<svg id="Layer_5" enable-background="new 0 0 62 62" height="512" viewBox="0 0 62 62" width="512" xmlns="http://www.w3.org/2000/svg"><g><g><g><path d="m42 39h1c-1.1 0-2.1.45-2.83 1.17-.72.73-1.17 1.73-1.17 2.83v4h-6v-.15c0-1.49.42-2.91 1.17-4.13.75-1.21 1.84-2.22 3.17-2.89 1.09-.55 2.3-.83 3.52-.83z" fill="#fcd770"/></g><g><path d="m31 49c0-1.1.9-2 2-2h6v-4c0-1.1.45-2.1 1.17-2.83.73-.72 1.73-1.17 2.83-1.17 2.21 0 4 1.79 4 4v6c0 3.31-2.68 6-6 6h-7-1c-1.1 0-2-.9-2-2z" fill="#fcd770"/></g><g><path d="m14 52c0-.55.45-1 1-1 1.31 0 2.42.83 2.82 2 .12.31.18.65.18 1v6c0 .55-.45 1-1 1h-1-1c-.55 0-1-.45-1-1v-3z" fill="#d3a06c"/></g><g><path d="m17.83 53h5.71c.17.3.39.58.63.83.73.72 1.73 1.17 2.83 1.17h6 1 7c3.32 0 6-2.69 6-6v4c0 4.42-3.58 8-8 8h-22c.55 0 1-.45 1-1v-6c0-.35-.06-.69-.18-1z" fill="#969faa"/></g><g><path d="m32 13-1.79.89c-1.35.68-2.21 2.07-2.21 3.58v1.53h-2c-1.1 0-2.1.45-2.83 1.17-.72.73-1.17 1.73-1.17 2.83 0 .19.01.37.04.55-1.24-.68-2.07-1.99-2.07-3.5 0-.71.19-1.36.51-1.94-.91-.73-1.51-1.84-1.51-3.11 0-1.59.93-2.94 2.26-3.59-.16-.44-.26-.91-.26-1.41 0-2.21 1.79-4 4-4 .04 0 .09.01.13.01.44-1.73 2-3.01 3.87-3.01.7 0 1.35.2 1.92.51.73-.91 1.85-1.51 3.11-1.51.99 0 1.88.37 2.58.96.69-1.17 1.96-1.96 3.42-1.96 1.45 0 2.71.78 3.41 1.94.7-.58 1.58-.94 2.56-.94 1.26 0 2.37.6 3.11 1.51.57-.31 1.22-.51 1.92-.51 1.87 0 3.42 1.28 3.86 3.01.05 0 .09-.01.14-.01 2.21 0 4 1.79 4 4 0 .5-.1.97-.27 1.41 1.34.65 2.27 2 2.27 3.59 0 1.27-.6 2.38-1.52 3.11.32.58.52 1.23.52 1.94 0 1.49-.82 2.8-2.04 3.48.03-.17.04-.35.04-.53 0-2.21-1.79-4-4-4h-2v-6c0 2.21-1.79 4-4 4-.83 0-1.6-.25-2.24-.69-.54 1.56-2.01 2.69-3.76 2.69s-3.22-1.13-3.76-2.69c-.64.44-1.41.69-2.24.69-2.21 0-4-1.79-4-4z" fill="#656d78"/></g><g><path d="m29 33.36v13.82c-.26-.12-.54-.18-.83-.18h-.17c-1.1 0-2 .89-2 2h-1v-8-8-1c0-.55.45-1 1-1h2c.07 0 .14.01.2.02.46.09.8.5.8.98z" fill="#b27946"/></g><g><path d="m5 57v3c0 .55-.45 1-1 1h-2c-.55 0-1-.45-1-1v-28c0-.55.45-1 1-1h2c.55 0 1 .45 1 1v1 8 8z" fill="#b27946"/></g><g><path d="m31 53c0 1.1.9 2 2 2h-6c-1.1 0-2.1-.45-2.83-1.17-.24-.25-.46-.53-.63-.83-.34-.59-.54-1.27-.54-2 0-1.11.9-2 2-2h1c0-1.11.9-2 2-2h.17c.29 0 .57.06.83.18.22.1.42.23.59.4l1.41 1.42z" fill="#f0d0b4"/></g><g><path d="m58 23c0 .18-.01.36-.04.53-.11.89-.53 1.69-1.13 2.3-.73.72-1.73 1.17-2.83 1.17h-2v-8h2c2.21 0 4 1.79 4 4z" fill="#f0d0b4"/></g><g><path d="m52 27v2c0 5.52-4.48 10-10 10h-1.14-2.86c-3.96 0-7.38-2.3-9-5.64v-1.36c0-.48-.34-.89-.8-.98-.13-.65-.2-1.33-.2-2.02v-2-8-1.53c0-1.51.86-2.9 2.21-3.58l1.79-.89c0 2.21 1.79 4 4 4 .83 0 1.6-.25 2.24-.69.54 1.56 2.01 2.69 3.76 2.69s3.22-1.13 3.76-2.69c.64.44 1.41.69 2.24.69 2.21 0 4-1.79 4-4v6z" fill="#f0d0b4"/></g><g><path d="m28 19v8h-2c-2.02 0-3.69-1.5-3.96-3.45-.03-.18-.04-.36-.04-.55 0-1.1.45-2.1 1.17-2.83.73-.72 1.73-1.17 2.83-1.17z" fill="#f0d0b4"/></g><g><path d="m15 49c0 .55-.22 1.05-.59 1.41-.36.37-.86.59-1.41.59h-2c-1.1 0-2-.9-2-2 0-.55.22-1.05.59-1.41.36-.37.86-.59 1.41-.59h2c1.1 0 2 .9 2 2z" fill="#ff826e"/></g><g><path d="m20.41 39.59c.37.36.59.86.59 1.41 0 1.1-.9 2-2 2h-2c-.55 0-1.05-.22-1.41-.59-.37-.36-.59-.86-.59-1.41 0-1.1.9-2 2-2h2c.55 0 1.05.22 1.41.59z" fill="#ff826e"/></g><g><path d="m13 31c1.1 0 2 .9 2 2 0 .55-.22 1.05-.59 1.41-.36.37-.86.59-1.41.59h-2c-1.1 0-2-.9-2-2 0-.55.22-1.05.59-1.41.36-.37.86-.59 1.41-.59z" fill="#ff826e"/></g><g><path d="m36 31h8c0 1.1-.45 2.1-1.17 2.83-.73.72-1.73 1.17-2.83 1.17-2.21 0-4-1.79-4-4z" fill="#ff826e"/></g></g><g><path d="m35 31c0 2.757 2.243 5 5 5s5-2.243 5-5v-1h-10zm7.829 1c-.413 1.164-1.525 2-2.829 2s-2.416-.836-2.829-2z"/><path d="m37 25h2c0-2.206-1.794-4-4-4s-4 1.794-4 4h2c0-1.103.897-2 2-2s2 .897 2 2z"/><path d="m45 21c-2.206 0-4 1.794-4 4h2c0-1.103.897-2 2-2s2 .897 2 2h2c0-2.206-1.794-4-4-4z"/><path d="m62 15c0-1.638-.785-3.128-2.096-4.057.064-.315.096-.63.096-.943 0-2.56-1.933-4.676-4.416-4.966-.775-1.819-2.565-3.034-4.584-3.034-.575 0-1.141.103-1.688.307-1.519-1.39-3.869-1.69-5.673-.72-.934-1.008-2.235-1.587-3.639-1.587-1.411 0-2.717.585-3.652 1.602-1.829-.989-4.18-.682-5.694.705-.548-.204-1.113-.307-1.688-.307-2.019 0-3.809 1.215-4.584 3.034-2.484.29-4.416 2.406-4.416 4.966 0 .313.032.629.096.943-1.311.929-2.096 2.418-2.096 4.057 0 1.25.47 2.435 1.31 3.351-.206.55-.31 1.118-.31 1.696 0 1.661.831 3.197 2.187 4.123.53 2.192 2.495 3.83 4.847 3.83h1v1c0 .334.02.668.05 1h-1.05c-1.103 0-2 .897-2 2h-8.184c-.414-1.161-1.514-2-2.816-2h-2c-1.302 0-2.402.839-2.816 2h-2.184c0-1.103-.897-2-2-2h-2c-1.103 0-2 .897-2 2v28c0 1.103.897 2 2 2h2c1.103 0 2-.897 2-2v-2h7v2c0 1.103.897 2 2 2h1 1 22c4.963 0 9-4.037 9-9v-3.943c0-.019.003-.038.003-.058v-6.001c0-1.336-.521-2.591-1.465-3.535-.11-.11-.238-.195-.357-.293 3.997-1.65 6.819-5.585 6.819-10.17v-1h1c2.363 0 4.338-1.653 4.857-3.86 1.329-.93 2.143-2.453 2.143-4.093 0-.579-.104-1.146-.31-1.696.84-.916 1.31-2.101 1.31-3.351zm-36 11c-1.654 0-3-1.346-3-3s1.346-3 3-3h1v6zm20.003 17h-.003v6.028c-.016 2.743-2.25 4.971-4.997 4.971l-6.999.001v-.001h-1.006c-.549-.003-.995-.449-.995-.999v-4c0-.552.448-1 1-1h5.466l1.702 2.555 1.664-1.109-1.831-2.748-.001-3.698c0-1.651 1.341-2.994 2.99-2.999h.01v-.001h.002c.801 0 1.553.312 2.119.878s.879 1.319.879 2.121zm-23.902 9h-3.657c-.566-.971-1.516-1.691-2.653-1.92.01-.026.016-.054.025-.08h6.368c-.112.314-.184.647-.184.999 0 .343.035.677.101 1.001zm-13.917-4h-2.184v-6h8.184c.414 1.161 1.514 2 2.816 2h2c1.302 0 2.402-.839 2.816-2h2.184v6h-8.184c-.414-1.161-1.514-2-2.816-2h-2c-1.302 0-2.402.839-2.816 2zm7.816-7c0-.552.448-1 1-1h2c.552 0 1 .448 1 1s-.448 1-1 1h-2c-.552 0-1-.448-1-1zm-5 7h2c.552 0 1 .448 1 1s-.448 1-1 1h-2c-.552 0-1-.448-1-1s.448-1 1-1zm13.995 2h.005v-.001h2v-1c0-.552.448-1 1-1h.172c.268 0 .519.104.707.292l1.124 1.123v3.586c0 .352.072.685.184.999h-3.187c-1.654 0-3-1.346-3-3 0-.55.446-.996.995-.999zm12.797-9.276c.32-.16.656-.285.998-.393-.492.774-.787 1.685-.787 2.668l.001 3.001h-3.942c.28-2.262 1.652-4.237 3.73-5.276zm-5.742 5.445c-.577.195-1.073.555-1.433 1.032l-.324-.324c-.091-.091-.193-.163-.293-.241v-10.092c1.507 1.607 3.461 2.704 5.631 3.176-2.08 1.516-3.382 3.852-3.581 6.449zm-4.05-14.169v13.999c-.77 0-1.468.297-2 .775v-14.774zm-17 0h2c.552 0 1 .448 1 1s-.448 1-1 1h-2c-.552 0-1-.448-1-1s.448-1 1-1zm-2.816 2c.414 1.161 1.514 2 2.816 2h2c1.302 0 2.402-.839 2.816-2h8.184v6h-2.184c-.414-1.161-1.514-2-2.816-2h-2c-1.302 0-2.402.839-2.816 2h-8.184v-6zm-6.184 26v-28h2l.002 28zm4-4v-6h2.184c.414 1.161 1.514 2 2.816 2h2v4zm10 4h-1v-8c1.103 0 2 .897 2 2v6zm23 0h-20v-6h4.026c.914 1.206 2.347 1.999 3.974 1.999h5.993c.004 0 .007.001.01.001l8-.001c1.917 0 3.656-.776 4.922-2.03-.475 3.402-3.395 6.031-6.925 6.031zm3-22h-1.144-2.856c-3.408 0-6.449-1.876-8-4.897v-1.103c0-.692-.354-1.303-.89-1.662-.066-.442-.11-.889-.11-1.338v-11.528c0-1.143.636-2.171 1.658-2.683l.595-.297c.639 2.025 2.513 3.508 4.747 3.508.618 0 1.223-.112 1.79-.33.902 1.428 2.482 2.33 4.21 2.33s3.308-.902 4.21-2.33c.567.218 1.172.33 1.79.33 1.13 0 2.162-.391 3-1.026v12.026c0 4.963-4.037 9-9 9zm12-12h-1v-6h1c1.654 0 3 1.346 3 3s-1.346 3-3 3zm4.858-8.668-.663.528.412.74c.261.468.393.955.393 1.447 0 .452-.123.88-.311 1.276-.693-1.931-2.523-3.323-4.689-3.323h-1v-5h-2c0 1.654-1.346 3-3 3-.602 0-1.182-.178-1.679-.514l-1.075-.728-.43 1.226c-.421 1.205-1.553 2.016-2.816 2.016s-2.395-.811-2.816-2.016l-.43-1.226-1.075.728c-.497.336-1.077.514-1.679.514-1.654 0-3-1.346-3-3s1.346-3 3-3v-2c-2.534 0-4.611 1.902-4.934 4.349l-1.302.651c-1.705.854-2.764 2.566-2.764 4.472v.528h-1c-2.182 0-4.023 1.415-4.704 3.368-.201-.407-.33-.852-.33-1.322 0-.492.132-.979.392-1.447l.411-.739-.661-.527c-.726-.579-1.142-1.43-1.142-2.333 0-1.152.652-2.183 1.703-2.69l.826-.398-.326-.857c-.135-.354-.203-.709-.203-1.054 0-1.654 1.346-3 2.934-3.003l.972.05.2-.786c.462-1.808 2.571-2.847 4.334-1.872l.738.408.527-.659c.578-.724 1.427-1.139 2.329-1.139.888 0 1.538.395 1.928.726l.901.765.604-1.016c.552-.923 1.511-1.475 2.567-1.475 1.05 0 2.006.546 2.558 1.46l.603.998.896-.747c.386-.324 1.033-.711 1.909-.711.901 0 1.75.415 2.33 1.139l.526.658.738-.408c1.765-.977 3.872.063 4.334 1.872l.2.786.812-.034c.054-.002.107-.008.094-.013 1.654 0 3 1.346 3 3 0 .342-.068.697-.204 1.056l-.323.855.823.398c1.052.508 1.704 1.54 1.704 2.691 0 .904-.416 1.754-1.142 2.332z"/></g></g></svg>