<svg id="Layer_1" enable-background="new 0 0 512 512" height="512" viewBox="0 0 512 512" width="512" xmlns="http://www.w3.org/2000/svg"><g id="_x33_3_Kids_Room"><g><path d="m413.582 25.066v292.942h-315.164v-292.942c0-11.594 9.379-20.994 20.948-20.994h273.268c11.569 0 20.948 9.4 20.948 20.994z" fill="#facb00"/><path d="m413.58 25.079v292.967h-51.742v-292.967c0-11.651-9.427-20.994-20.948-20.994h51.742c11.521 0 20.948 9.343 20.948 20.994z" opacity=".1"/><path d="m124.6 30.328h118.357v261.477h-118.357z" fill="#37d0f9"/><path d="m269.143 30.328h118.253v261.477h-118.253z" fill="#37d0f9"/><g fill="#fff"><path d="m242.957 30.433v196.186l-65.043 65.186h-53.314v-142.757z" opacity=".4"/><path d="m387.394 30.328v51.644l-118.251 118.406v-170.05z" opacity=".4"/><path d="m207.659 291.805 35.298-35.375v35.375z" opacity=".4"/><path d="m387.394 111.784v61.301l-118.251 118.51v-61.407z" opacity=".4"/></g><path d="m340.523 435.229v53.682c0 10.471-8.547 19.036-18.995 19.036h-87.566c-10.447 0-18.995-8.566-18.995-19.036v-53.682c.665.095 1.33.191 1.995.191h121.567c.665 0 1.33-.096 1.994-.191z" fill="#e6e8e7"/><path d="m340.576 435.193v53.744c0 10.497-8.59 18.999-19.064 18.999h-27.652c10.369 0 18.957-8.502 18.957-18.999v-53.534h25.662c.734-.002 1.362-.106 2.097-.21z" opacity=".1"/><path d="m312.819 435.193v.21h-1.989c.628-.002 1.36-.106 1.989-.21z" opacity=".1"/><path d="m348.026 425.861v-14.518c0-5.256-4.252-9.518-9.497-9.518h-121.568c-5.245 0-9.497 4.261-9.497 9.518v14.518c0 5.256 4.252 9.518 9.497 9.518h121.567c5.246 0 9.498-4.262 9.498-9.518z" fill="#72b505"/><path d="m348.012 411.364v14.486c0 5.249-4.19 9.552-9.531 9.552h-30.794c5.236 0 9.531-4.304 9.531-9.552v-14.486c0-5.249-4.295-9.552-9.531-9.552h30.794c5.341 0 9.531 4.304 9.531 9.552z" opacity=".1"/><path d="m151.156 434.549c0 40.518-32.784 73.373-73.318 73.373-40.43 0-73.214-32.855-73.214-73.373 0-40.623 32.784-73.478 73.214-73.478 40.534.001 73.318 32.856 73.318 73.478z" fill="#fd4746"/><path d="m144.815 464.478c-11.417 25.613-37.079 43.458-66.929 43.458-40.43 0-73.214-32.855-73.214-73.373 0-29.811 17.701-55.529 43.152-66.97-4.085 9.132-6.389 19.314-6.389 30.021 0 40.518 32.784 73.373 73.214 73.373 10.685 0 20.95-2.309 30.166-6.509z" opacity=".1"/><path d="m440.302 467.115v30.336c0 5.797-4.689 10.497-10.474 10.497h-30.349c-5.785 0-10.474-4.7-10.474-10.497v-30.336c0-5.797 4.689-10.497 10.474-10.497h30.349c5.785 0 10.474 4.7 10.474 10.497z" fill="#facb00"/><path d="m440.288 467.102v30.336c0 5.773-4.713 10.497-10.474 10.497h-16.339c5.761 0 10.474-4.724 10.474-10.497v-30.336c0-5.773-4.713-10.497-10.474-10.497h16.339c5.761.001 10.474 4.724 10.474 10.497z" opacity=".1"/><path d="m491.599 467.115v30.336c0 5.797-4.689 10.497-10.474 10.497h-30.349c-5.785 0-10.474-4.7-10.474-10.497v-30.336c0-5.797 4.689-10.497 10.474-10.497h30.349c5.785 0 10.474 4.7 10.474 10.497z" fill="#37d0f9"/><path d="m491.611 467.102v30.336c0 5.773-4.713 10.497-10.474 10.497h-16.55c5.761 0 10.474-4.724 10.474-10.497v-30.336c0-5.773-4.713-10.497-10.474-10.497h16.55c5.761.001 10.474 4.724 10.474 10.497z" opacity=".1"/><path d="m465.951 415.785v30.336c0 5.797-4.689 10.497-10.474 10.497h-30.349c-5.785 0-10.474-4.7-10.474-10.497v-30.336c0-5.797 4.689-10.497 10.474-10.497h30.349c5.784 0 10.474 4.7 10.474 10.497z" fill="#fa8aa2"/><path d="m465.95 415.772v30.336c0 5.773-4.714 10.497-10.474 10.497h-18.644c5.761 0 10.474-4.724 10.474-10.497v-30.336c0-5.773-4.713-10.497-10.474-10.497h18.644c5.76.001 10.474 4.724 10.474 10.497z" opacity=".1"/><g><path d="m507.376 503.85h-13.247c.957-1.94 1.543-4.093 1.543-6.398v-30.336c0-8.034-6.526-14.571-14.547-14.571h-12.66c.965-1.946 1.556-4.107 1.556-6.423v-30.336c0-8.034-6.526-14.571-14.544-14.571h-30.352c-8.017 0-14.544 6.538-14.544 14.571v30.336c0 2.315.593 4.477 1.556 6.423h-12.66c-8.021 0-14.547 6.538-14.547 14.571v30.336c0 2.307.587 4.46 1.543 6.398h-47.382c3.423-4.033 5.501-9.245 5.501-14.941v-50.957c4.429-2.24 7.505-6.792 7.505-12.094v-14.515c0-7.497-6.089-13.593-13.57-13.593h-121.565c-7.483 0-13.571 6.097-13.571 13.593v14.515c0 5.301 3.075 9.854 7.505 12.094v50.957c0 5.696 2.078 10.909 5.501 14.941h-104.22c25.888-12.9 43.05-39.497 43.05-69.302 0-42.76-34.716-77.549-77.389-77.549-42.616 0-77.287 34.865-77.287 77.549 0 28.068 15.601 55.617 42.994 69.302h-38.921c-2.248 0-4.072 1.822-4.072 4.072 0 2.251 1.824 4.072 4.072 4.072.414 0 536.409.011 502.753 0 2.251 0 4.072-1.822 4.072-4.072s-1.821-4.072-4.073-4.072zm-492.351-40.509c-2.776-6.061-4.691-12.579-5.621-19.422 8.048 2.006 16.944 3.55 26.537 4.618-.691 4.897-1.12 9.502-1.285 13.882-7.163-.11-13.736.203-19.631.922zm29.018-13.929c10.101 1.029 20.813 1.574 32.185 1.574 21.196 0 44.623-1.858 69.894-5.423-1.984 12.352-7.164 23.644-14.773 32.911-35.25-9.155-64.975-14.43-88.554-15.742.156-4.187.574-8.609 1.248-13.32zm102.902-12.165c-38.683 5.582-72.71 6.943-101.4 4.103 1.007-4.808 2.226-9.477 3.664-13.99 10.345 2.312 20.498.464 30.175-3.756 19.73-8.376 40.845-14.571 61.28-18.053 4.563 9.888 6.729 20.167 6.281 31.696zm-10.353-39.248c-20.204 3.661-40.959 9.858-60.427 18.121-8.65 3.776-16.792 4.908-24.351 3.447 6.514-17.926 16.381-36.142 29.411-54.251 23.371 1.141 43.697 13.906 55.367 32.683zm-65.453-32.515c-11.86 17.23-20.939 34.566-27.108 51.653-8.338-3.725-15.87-11.391-22.474-22.756 11.324-15.941 29.145-26.913 49.582-28.897zm-54.411 36.684c7.197 11.228 15.506 18.821 24.731 22.704-1.6 5.019-2.956 10.238-4.058 15.64-10.559-1.154-20.168-2.891-28.666-5.182-.003-.263-.04-.518-.04-.781.001-11.694 2.924-22.704 8.033-32.381zm2.449 68.885c4.735-.43 9.957-.575 15.533-.487.234 6.746 1.033 13.393 2.435 19.886-7.161-5.251-13.264-11.83-17.968-19.399zm27.936 25.487c-2.485-8.256-3.893-16.857-4.247-25.648 21.955 1.273 49.493 6.089 82.034 14.346-12.368 11.51-28.883 18.613-47.062 18.613-11.044-.001-21.454-2.676-30.725-7.311zm440.415-29.424v30.336c0 3.463-2.747 6.271-6.168 6.399h-30.818c-3.42-.127-6.168-2.936-6.168-6.399v-30.336c0-3.543 2.872-6.427 6.403-6.427 3.336 0 31.219 0 30.348 0 3.531 0 6.403 2.883 6.403 6.427zm-68.801-20.994v-30.336c0-3.543 2.872-6.427 6.398-6.427h30.352c3.528 0 6.398 2.884 6.398 6.427v30.336c0 3.543-2.872 6.423-6.398 6.423-.924 0-31.058 0-30.352 0-3.526 0-6.398-2.88-6.398-6.423zm-25.651 51.33v-30.336c0-3.543 2.872-6.427 6.403-6.427 1.591 0 32.167 0 30.348 0 3.531 0 6.403 2.884 6.403 6.427v30.336c0 3.463-2.747 6.271-6.168 6.398h-30.818c-3.421-.127-6.168-2.935-6.168-6.398zm-181.54-86.109c0-3.002 2.434-5.448 5.426-5.448h121.566c2.99 0 5.424 2.446 5.424 5.448v14.515c0 3.002-2.434 5.448-5.424 5.448h-121.566c-2.992 0-5.426-2.446-5.426-5.448zm7.505 77.566v-49.417h117.409v49.417c0 8.172-6.569 14.812-14.686 14.941h-88.037c-8.118-.129-14.686-6.769-14.686-14.941z"/><path d="m73.836 322.082h364.326c2.251 0 4.072-1.822 4.072-4.072s-1.822-4.072-4.072-4.072h-20.509v-288.872c0-13.82-11.222-25.066-25.019-25.066h-273.269c-13.796 0-25.019 11.247-25.019 25.066v288.871h-20.51c-2.248 0-4.072 1.822-4.072 4.072-.001 2.252 1.822 4.073 4.072 4.073zm28.655-297.016c0-9.329 7.57-16.922 16.874-16.922h273.269c9.306 0 16.874 7.592 16.874 16.922v288.871h-307.017z"/><path d="m242.906 26.236h-118.301c-2.248 0-4.072 1.822-4.072 4.072v261.458c0 2.251 1.824 4.072 4.072 4.072h118.301c2.248 0 4.072-1.822 4.072-4.072v-261.458c.001-2.251-1.823-4.072-4.072-4.072zm-4.073 261.457h-110.156v-253.313h110.156z"/><path d="m387.397 26.236h-118.305c-2.251 0-4.072 1.822-4.072 4.072v261.458c0 2.251 1.822 4.072 4.072 4.072h118.305c2.251 0 4.072-1.822 4.072-4.072v-261.458c.001-2.251-1.821-4.072-4.072-4.072zm-4.072 261.457h-110.161v-253.313h110.161z"/></g></g></g></svg>