<svg xmlns="http://www.w3.org/2000/svg" xmlns:xlink="http://www.w3.org/1999/xlink" width="400" zoomAndPan="magnify" viewBox="0 0 300 299.999988" height="400" preserveAspectRatio="xMidYMid meet" version="1.0"><defs><filter x="0%" y="0%" width="100%" height="100%" id="f5772b6b38"><feColorMatrix values="0 0 0 0 1 0 0 0 0 1 0 0 0 0 1 0 0 0 1 0" color-interpolation-filters="sRGB"/></filter><mask id="7a2311006d"><g filter="url(#f5772b6b38)"><rect x="-30" width="360" fill="#000000" y="-29.999999" height="359.999986" fill-opacity="0.2392"/></g></mask><clipPath id="e45fbdd784"><path d="M 1 26 L 151 26 L 151 188 L 1 188 Z M 1 26 " clip-rule="nonzero"/></clipPath><clipPath id="1e77ff4f3c"><path d="M 43.601562 235.265625 L 0.96875 26.578125 L 211.128906 -16.355469 L 253.761719 192.332031 Z M 43.601562 235.265625 " clip-rule="nonzero"/></clipPath><clipPath id="671d6a28f9"><path d="M 43.601562 235.265625 L 0.96875 26.578125 L 211.128906 -16.355469 L 253.761719 192.332031 Z M 43.601562 235.265625 " clip-rule="nonzero"/></clipPath><clipPath id="91dd8e8ca0"><path d="M 41.085938 222.953125 L 0.949219 26.476562 L 198.578125 -13.894531 L 238.714844 182.582031 Z M 41.085938 222.953125 " clip-rule="nonzero"/></clipPath><clipPath id="65108354a2"><path d="M 41.085938 222.953125 L 0.984375 26.652344 L 198.613281 -13.722656 L 238.714844 182.582031 Z M 41.085938 222.953125 " clip-rule="nonzero"/></clipPath><clipPath id="41d39bd634"><path d="M 97 83 L 151 83 L 151 166 L 97 166 Z M 97 83 " clip-rule="nonzero"/></clipPath><clipPath id="899ecca8c7"><path d="M 43.601562 235.265625 L 0.96875 26.578125 L 211.128906 -16.355469 L 253.761719 192.332031 Z M 43.601562 235.265625 " clip-rule="nonzero"/></clipPath><clipPath id="7aa89c46e9"><path d="M 43.601562 235.265625 L 0.96875 26.578125 L 211.128906 -16.355469 L 253.761719 192.332031 Z M 43.601562 235.265625 " clip-rule="nonzero"/></clipPath><clipPath id="cef2aa0a64"><path d="M 54 56 L 151 56 L 151 200 L 54 200 Z M 54 56 " clip-rule="nonzero"/></clipPath><clipPath id="cbf89fad16"><path d="M 43.601562 235.265625 L 0.96875 26.578125 L 211.128906 -16.355469 L 253.761719 192.332031 Z M 43.601562 235.265625 " clip-rule="nonzero"/></clipPath><clipPath id="763a9c923f"><path d="M 43.601562 235.265625 L 0.96875 26.578125 L 211.128906 -16.355469 L 253.761719 192.332031 Z M 43.601562 235.265625 " clip-rule="nonzero"/></clipPath><clipPath id="34a7b56ddc"><path d="M 94 82 L 129 82 L 129 113 L 94 113 Z M 94 82 " clip-rule="nonzero"/></clipPath><clipPath id="92e3437397"><path d="M 43.601562 235.265625 L 0.96875 26.578125 L 211.128906 -16.355469 L 253.761719 192.332031 Z M 43.601562 235.265625 " clip-rule="nonzero"/></clipPath><clipPath id="447f3218d4"><path d="M 43.601562 235.265625 L 0.96875 26.578125 L 211.128906 -16.355469 L 253.761719 192.332031 Z M 43.601562 235.265625 " clip-rule="nonzero"/></clipPath><clipPath id="57aeeff2f6"><rect x="0" width="151" y="0" height="236"/></clipPath><clipPath id="ad4f904704"><path d="M 0 194.894531 L 300 194.894531 L 300 281.609375 L 0 281.609375 Z M 0 194.894531 " clip-rule="nonzero"/></clipPath><clipPath id="0113268deb"><path d="M 0 198.765625 L 300 198.765625 L 300 288.574219 L 0 288.574219 Z M 0 198.765625 " clip-rule="nonzero"/></clipPath><clipPath id="3a4dd11206"><path d="M 167 100.164062 L 300 100.164062 L 300 300 L 167 300 Z M 167 100.164062 " clip-rule="nonzero"/></clipPath></defs><rect x="-30" width="360" fill="#ffffff" y="-29.999999" height="359.999986" fill-opacity="1"/><rect x="-30" width="360" fill="#ffffff" y="-29.999999" height="359.999986" fill-opacity="1"/><rect x="-30" width="360" fill="#fff4ee" y="-29.999999" height="359.999986" fill-opacity="1"/><g mask="url(#7a2311006d)"><g transform="matrix(1, 0, 0, 1, 149, 0)"><g clip-path="url(#57aeeff2f6)"><g clip-path="url(#e45fbdd784)"><g clip-path="url(#1e77ff4f3c)"><g clip-path="url(#671d6a28f9)"><g clip-path="url(#91dd8e8ca0)"><g clip-path="url(#65108354a2)"><path fill="#efd5c8" d="M 1.183594 27.269531 C 4.390625 30.429688 36.4375 51.691406 43.46875 56.179688 C 44.367188 56.753906 45.265625 57.328125 46.164062 57.902344 C 49.457031 60.003906 52.75 62.109375 56.042969 64.210938 L 57.707031 61.226562 C 45.421875 53.671875 5.058594 28.53125 1.675781 26.617188 C 1.261719 26.378906 0.84375 26.933594 1.183594 27.269531 Z M 77.640625 50.242188 C 73.90625 52.199219 71.113281 55.519531 68.417969 58.757812 C 66.144531 61.488281 63.871094 64.21875 61.601562 66.949219 C 60 68.875 58.382812 70.820312 57.222656 73.039062 C 54.953125 77.375 53.8125 82.671875 54.1875 87.550781 C 54.375 89.980469 55.707031 92.179688 57.703125 93.585938 C 77.652344 107.664062 98.417969 121.617188 119.425781 134.164062 C 137.902344 145.195312 159.859375 159.175781 178.242188 171.042969 C 179.902344 172.113281 181.9375 172.449219 183.847656 171.933594 C 188.191406 170.761719 192.132812 168.09375 195.277344 164.820312 C 199.207031 160.734375 202.046875 155.738281 204.6875 150.722656 C 207.183594 145.980469 209.574219 140.472656 208.359375 135.417969 C 208.113281 134.398438 207.5 133.503906 206.640625 132.898438 C 203.800781 130.902344 200.722656 128.707031 197.957031 126.769531 C 194.703125 124.496094 191.136719 122.652344 188.019531 120.191406 C 186.390625 118.90625 156.09375 99.3125 145.136719 90.851562 C 139.902344 86.808594 134.210938 82.632812 128.636719 79.050781 C 127.128906 78.078125 125.585938 77.167969 124.007812 76.316406 C 120.648438 74.507812 117.394531 72.507812 114.179688 70.453125 C 104.28125 64.125 94.359375 57.804688 84.941406 50.78125 C 82.824219 49.199219 79.980469 49.015625 77.640625 50.242188 Z M 217.566406 147.433594 C 219.777344 148.667969 222.066406 150.035156 222.917969 150.695312 C 226.535156 153.496094 230.289062 156.257812 233.90625 159.058594 C 234.304688 161.101562 234.703125 163.203125 234.320312 165.253906 C 234.125 166.3125 233.722656 167.324219 233.285156 168.308594 C 230.613281 174.328125 226.46875 179.679688 221.320312 183.777344 C 219.40625 185.296875 216.832031 187.933594 214.683594 186.769531 C 208.875 183.621094 203.226562 180.175781 197.769531 176.449219 L 217.566406 147.433594 " fill-opacity="1" fill-rule="nonzero"/></g></g></g></g></g><g clip-path="url(#41d39bd634)"><g clip-path="url(#899ecca8c7)"><g clip-path="url(#7aa89c46e9)"><path fill="#fff4ee" d="M 126.332031 83.613281 C 141.359375 93.261719 147.398438 99.214844 161.691406 108.359375 C 169.542969 113.382812 177.816406 117.71875 185.683594 122.714844 C 191.289062 126.269531 196.949219 129.789062 202.097656 133.976562 C 202.546875 136.691406 202.101562 139.480469 201.375 142.132812 C 199.082031 150.546875 193.902344 158.144531 186.90625 163.347656 C 185.011719 164.761719 182.726562 166.054688 180.40625 165.59375 C 178.605469 165.238281 176.9375 164.28125 175.390625 163.289062 C 149.984375 147.03125 123.066406 126.546875 97.136719 111.132812 C 98.960938 108.582031 101.210938 106.066406 103.515625 103.9375 C 105.242188 102.335938 107.105469 100.855469 108.605469 99.039062 C 111.320312 95.753906 112.882812 91.355469 116.5 89.105469 C 119.386719 87.308594 124.273438 86.320312 126.332031 83.613281 " fill-opacity="1" fill-rule="nonzero"/></g></g></g><g clip-path="url(#cef2aa0a64)"><g clip-path="url(#cbf89fad16)"><g clip-path="url(#763a9c923f)"><path fill="#f6c1a1" d="M 76.5 96.273438 C 75.59375 98.847656 74.050781 101.179688 72.035156 103.019531 L 72.511719 103.542969 C 74.613281 101.625 76.5 96.273438 76.5 96.273438 Z M 77.5625 106.949219 L 78.011719 107.492188 C 79.484375 106.277344 80.621094 104.6875 81.296875 102.898438 C 81.296875 102.898438 78.941406 105.808594 77.5625 106.949219 Z M 82.527344 110.203125 L 82.972656 110.75 C 84.40625 109.582031 85.523438 108.050781 86.199219 106.328125 C 86.199219 106.328125 83.867188 109.109375 82.527344 110.203125 Z M 87.550781 113.722656 L 87.996094 114.273438 C 89.359375 113.167969 90.503906 111.757812 91.3125 110.199219 C 91.3125 110.199219 88.839844 112.679688 87.550781 113.722656 Z M 93.878906 117.757812 L 94.355469 118.277344 C 97.476562 115.398438 100.027344 112.015625 101.929688 108.222656 C 101.929688 108.222656 96.9375 114.9375 93.878906 117.757812 Z M 101.800781 122.210938 L 102.167969 122.816406 C 103.886719 121.773438 105.3125 120.296875 106.300781 118.542969 C 106.300781 118.542969 103.417969 121.234375 101.800781 122.210938 Z M 109.074219 127.359375 L 109.605469 127.824219 C 111.484375 125.65625 113.058594 123.246094 114.289062 120.65625 C 114.289062 120.65625 110.910156 125.242188 109.074219 127.359375 Z M 116.554688 132.023438 L 116.96875 132.59375 C 118.835938 131.238281 120.292969 129.296875 121.070312 127.125 C 121.070312 127.125 118.308594 130.75 116.554688 132.023438 Z M 125.292969 137.574219 L 125.691406 138.160156 C 127.917969 136.644531 129.695312 134.433594 130.691406 131.929688 C 130.691406 131.929688 127.40625 136.140625 125.292969 137.574219 Z M 140.777344 130.773438 C 138.878906 133.476562 136.785156 136.085938 134.554688 138.523438 C 133.523438 139.652344 132.394531 140.785156 130.96875 141.203125 L 131.164062 141.882812 C 132.769531 141.414062 133.976562 140.203125 135.074219 139.003906 C 137.324219 136.542969 140.777344 130.773438 140.777344 130.773438 Z M 144.722656 140.582031 C 143.300781 142.5625 141.691406 144.429688 139.9375 146.128906 L 140.429688 146.636719 C 142.210938 144.90625 144.722656 140.582031 144.722656 140.582031 Z M 148.632812 151.960938 L 148.792969 152.648438 C 151.410156 152.027344 153.742188 150.128906 154.867188 147.6875 C 154.867188 147.6875 151.042969 151.390625 148.632812 151.960938 Z M 161.003906 159.832031 L 161.417969 160.402344 C 163.5 158.898438 165.3125 157.078125 166.8125 154.992188 C 166.8125 154.992188 163.023438 158.371094 161.003906 159.832031 Z M 63.003906 57.625 C 61.515625 57.429688 60.027344 57.945312 58.964844 59.007812 C 57.078125 60.894531 55.835938 63.0625 54.789062 65.78125 C 54.511719 66.5 54.273438 67.277344 54.421875 68.03125 C 54.5625 68.773438 55.054688 69.394531 55.53125 69.976562 C 58.375 73.453125 61.277344 76.6875 64.304688 80.007812 C 66.140625 80.457031 68.054688 79.539062 69.5 78.320312 C 71.398438 76.722656 72.789062 74.613281 74.148438 72.535156 C 75.195312 70.929688 76.257812 69.300781 76.8125 67.46875 C 77.371094 65.636719 77.363281 63.542969 76.347656 61.917969 C 73.542969 60.816406 70.726562 59.726562 67.921875 58.628906 C 66.429688 58.046875 64.683594 57.84375 63.003906 57.625 Z M 83.714844 64.300781 C 79.792969 76.28125 70.496094 86.574219 59.253906 92.273438 C 60.675781 92.546875 62.097656 91.890625 63.363281 91.1875 C 74.105469 85.230469 82.136719 74.578125 84.902344 62.601562 C 85.394531 60.476562 85.714844 58.183594 84.882812 56.167969 C 85.742188 58.929688 84.617188 61.550781 83.714844 64.300781 Z M 196.546875 125.824219 C 197.023438 126.132812 197.492188 126.445312 197.957031 126.769531 C 200.722656 128.707031 203.800781 130.902344 206.640625 132.898438 C 207.5 133.503906 208.113281 134.398438 208.359375 135.417969 C 209.574219 140.472656 207.183594 145.980469 204.6875 150.722656 C 202.046875 155.738281 199.207031 160.734375 195.277344 164.820312 C 192.132812 168.09375 188.191406 170.761719 183.847656 171.933594 C 181.9375 172.449219 179.902344 172.113281 178.242188 171.042969 C 175.648438 169.371094 172.980469 167.648438 170.265625 165.90625 L 170.105469 166.144531 C 168.207031 170.867188 167.179688 175.941406 167.09375 181.03125 C 167.074219 182.105469 167.097656 183.195312 167.382812 184.230469 C 168.210938 187.265625 171.214844 189.363281 174.320312 189.820312 C 177.433594 190.28125 180.597656 189.351562 183.421875 187.976562 C 188.476562 185.511719 192.714844 181.65625 196.648438 177.636719 C 197.019531 177.253906 197.394531 176.855469 197.769531 176.445312 L 217.550781 147.453125 C 219.882812 142.765625 221.277344 137.730469 222.398438 132.5 C 223.207031 128.738281 223.699219 124.796875 222.769531 121.058594 C 222.355469 119.390625 220.210938 117.164062 218.847656 116.121094 C 216.09375 114.015625 202.300781 116.300781 196.546875 125.824219 Z M 228.585938 155.007812 C 231.730469 152.542969 235.445312 150.808594 239.359375 150.015625 C 240.960938 149.691406 242.8125 149.582031 244.039062 150.664062 C 244.636719 151.195312 245 151.945312 245.25 152.710938 C 246.3125 155.957031 245.585938 159.5 244.625 162.777344 C 243.613281 166.21875 242.351562 169.585938 240.851562 172.84375 C 240.027344 174.625 239.132812 176.378906 238.085938 178.039062 C 237.199219 179.449219 236.207031 180.789062 235.214844 182.125 C 233.996094 183.765625 232.78125 185.402344 231.5625 187.042969 C 230.089844 189.027344 228.613281 191.019531 226.929688 192.832031 C 225.585938 194.285156 224.113281 195.621094 222.535156 196.816406 C 220.703125 198.210938 218.667969 199.4375 216.402344 199.84375 C 214.136719 200.253906 211.597656 199.710938 210.046875 198.011719 C 209.199219 197.078125 208.695312 195.878906 208.378906 194.65625 C 207.488281 191.226562 207.96875 187.453125 209.703125 184.359375 L 209.886719 184.074219 C 211.472656 184.992188 213.070312 185.894531 214.683594 186.769531 C 216.832031 187.933594 219.40625 185.296875 221.320312 183.777344 C 226.46875 179.679688 230.613281 174.328125 233.285156 168.308594 C 233.722656 167.324219 234.125 166.3125 234.320312 165.253906 C 234.703125 163.203125 234.304688 161.101562 233.90625 159.058594 C 232.15625 157.699219 230.371094 156.355469 228.585938 155.007812 " fill-opacity="1" fill-rule="nonzero"/></g></g></g><g clip-path="url(#34a7b56ddc)"><g clip-path="url(#92e3437397)"><g clip-path="url(#447f3218d4)"><path fill="#f6c1a1" d="M 120.484375 82.34375 C 118.503906 82.882812 117.042969 84.503906 115.511719 85.871094 C 110.171875 90.640625 102.921875 92.960938 97.902344 98.0625 C 95.96875 100.023438 94.367188 102.503906 94.199219 105.253906 C 93.976562 108.933594 96.203125 111.246094 99.085938 111.886719 C 100.699219 109.878906 101.929688 108.222656 101.929688 108.222656 C 101.269531 109.53125 100.53125 110.792969 99.71875 112.003906 C 101 112.175781 102.378906 112.039062 103.710938 111.558594 C 111.242188 108.851562 113.882812 99.019531 120.960938 95.28125 C 123.417969 93.984375 126.480469 93.347656 127.960938 90.996094 C 129.007812 89.328125 128.929688 87.066406 127.921875 85.371094 C 126.914062 83.679688 125.074219 82.554688 123.128906 82.238281 C 122.25 82.097656 121.34375 82.109375 120.484375 82.34375 " fill-opacity="1" fill-rule="nonzero"/></g></g></g></g></g></g><g clip-path="url(#ad4f904704)"><path fill="#72462a" d="M -20.804688 194.894531 L 334.222656 194.894531 L 334.222656 281.898438 L -20.804688 281.898438 Z M -20.804688 194.894531 " fill-opacity="1" fill-rule="nonzero"/></g><g clip-path="url(#0113268deb)"><path fill="#a66d48" d="M -10.742188 198.765625 L 421.464844 198.765625 L 421.464844 288.574219 L -10.742188 288.574219 Z M -10.742188 198.765625 " fill-opacity="1" fill-rule="nonzero"/></g><path fill="#e8e3f4" d="M 321.351562 264.621094 C 321.351562 264.621094 319.875 228.097656 309.773438 203.332031 C 301.179688 182.273438 294.113281 178.058594 292.1875 177.265625 L 292.226562 176.882812 L 271.191406 169.710938 L 255.457031 159.996094 C 241.753906 166.453125 228.0625 167.363281 214.386719 162.664062 L 202.019531 171.636719 L 187.542969 177.316406 C 185.964844 177.933594 184.664062 178.972656 183.714844 180.257812 L 183.671875 180.03125 C 169.359375 199.058594 161.9375 222.359375 162.613281 246.132812 L 163.464844 275.953125 C 163.464844 275.953125 174.695312 299.109375 184.4375 300.449219 L 181.917969 314.855469 L 207.40625 314.679688 L 207.402344 314.867188 L 251.433594 314.867188 L 302.050781 315.414062 L 294.765625 285.277344 C 315.183594 281.039062 321.351562 264.621094 321.351562 264.621094 Z M 218.089844 156.21875 C 216.753906 152.539062 215.894531 146.46875 216.078125 142.664062 C 216.078125 142.664062 225.125 137.167969 229.152344 137.910156 C 238.015625 139.542969 244.039062 141.617188 245.671875 141.960938 C 247.460938 138.898438 251.109375 134.863281 253.421875 133.375 C 253.6875 133.203125 254.042969 133.28125 254.214844 133.546875 C 254.386719 133.8125 254.308594 134.167969 254.042969 134.335938 C 252.058594 135.617188 248.082031 142.015625 246.039062 145.53125 C 246.476562 146.921875 248.128906 147.898438 247.429688 151.34375 C 250.15625 147.984375 250.644531 146.890625 250.664062 146.84375 C 250.777344 146.550781 251.109375 146.40625 251.40625 146.523438 C 251.699219 146.636719 251.847656 146.96875 251.730469 147.265625 C 251.636719 147.503906 249.699219 152.328125 245.675781 156.320312 C 244.726562 158.34375 243.09375 160.289062 240.382812 161.804688 C 233.367188 165.730469 221.648438 166.011719 218.089844 156.21875 " fill-opacity="1" fill-rule="nonzero"/><g clip-path="url(#3a4dd11206)"><path fill="#443336" d="M 309.34375 258.625 C 303.199219 252.273438 294.75 250.285156 291.21875 249.710938 C 293.097656 248.171875 300.730469 242.347656 307.273438 243.632812 C 307.585938 243.691406 307.886719 243.492188 307.949219 243.179688 C 308.011719 242.871094 307.808594 242.570312 307.496094 242.507812 C 299.449219 240.933594 290.402344 248.882812 290.023438 249.21875 C 289.929688 249.304688 289.867188 249.410156 289.84375 249.519531 C 289.707031 249.503906 289.617188 249.496094 289.578125 249.492188 L 285.847656 249.378906 C 285.90625 249.277344 285.9375 249.15625 285.921875 249.03125 C 285.898438 248.769531 283.273438 222.960938 284.238281 214.027344 C 284.273438 213.710938 284.046875 213.429688 283.730469 213.394531 C 283.417969 213.359375 283.132812 213.585938 283.097656 213.902344 C 282.117188 222.953125 284.671875 248.082031 284.78125 249.144531 C 284.789062 249.21875 284.808594 249.285156 284.839844 249.347656 L 258.003906 248.515625 C 257.675781 248.503906 257.421875 248.753906 257.410156 249.070312 C 257.398438 249.386719 257.652344 249.648438 257.964844 249.660156 L 289.515625 250.636719 C 289.628906 250.648438 301.042969 251.699219 308.515625 259.421875 C 308.628906 259.535156 308.78125 259.597656 308.929688 259.597656 C 309.074219 259.597656 309.21875 259.542969 309.328125 259.433594 C 309.554688 259.214844 309.5625 258.851562 309.34375 258.625 Z M 267.578125 211.953125 C 267.578125 211.796875 267.453125 211.667969 267.292969 211.667969 L 261.871094 211.667969 C 261.710938 211.667969 261.582031 211.796875 261.582031 211.953125 C 261.582031 212.113281 261.710938 212.238281 261.871094 212.238281 L 267.292969 212.238281 C 267.453125 212.238281 267.578125 212.113281 267.578125 211.953125 Z M 254.214844 133.546875 C 254.042969 133.28125 253.722656 133.277344 253.421875 133.375 C 250.933594 134.183594 246.988281 141.632812 245.203125 144.691406 C 243.566406 144.351562 238.496094 143.316406 229.632812 141.683594 C 225.605469 140.941406 216.078125 142.664062 216.078125 142.664062 C 215.894531 146.46875 216.753906 152.539062 218.089844 156.21875 C 221.648438 166.011719 233.367188 165.730469 240.382812 161.804688 C 243.09375 160.289062 244.726562 158.34375 245.675781 156.320312 C 249.699219 152.328125 251.636719 147.503906 251.730469 147.265625 C 251.847656 146.96875 251.699219 146.636719 251.40625 146.523438 C 251.109375 146.40625 250.777344 146.550781 250.664062 146.84375 C 250.644531 146.890625 250.433594 148.167969 247.707031 151.527344 C 248.40625 148.082031 247.355469 146.9375 246.921875 145.546875 C 248.960938 142.035156 252.058594 135.617188 254.042969 134.335938 C 254.308594 134.167969 254.386719 133.8125 254.214844 133.546875 Z M 230.316406 227.410156 C 230.1875 227.621094 229.910156 227.691406 229.691406 227.570312 L 229.328125 227.363281 L 224.859375 234.804688 L 228.101562 235.28125 L 236.824219 221.195312 C 237.09375 220.757812 236.96875 220.183594 236.539062 219.898438 L 235.425781 219.15625 C 235.113281 218.953125 234.730469 218.957031 234.425781 219.125 L 234.777344 219.355469 C 234.984375 219.496094 235.046875 219.773438 234.914062 219.988281 M 271.160156 169.703125 L 256.511719 164.710938 L 255.644531 169.792969 L 250.542969 199.636719 C 249.050781 208.378906 248.390625 217.238281 248.574219 226.097656 L 250.398438 314.574219 L 222.617188 314.574219 L 224.480469 247.199219 L 216.785156 246.15625 C 216.472656 246.113281 216.25 245.824219 216.292969 245.511719 C 216.335938 245.199219 216.628906 244.984375 216.941406 245.019531 L 224.511719 246.050781 L 224.652344 240.90625 L 218.097656 239.785156 C 217.785156 239.734375 217.578125 239.4375 217.628906 239.125 C 217.683594 238.8125 217.976562 238.605469 218.292969 238.660156 L 224.6875 239.75 L 225.003906 228.195312 C 225.285156 218.09375 224.308594 207.996094 222.105469 198.132812 L 217.417969 177.175781 L 215.039062 166.527344 L 208.902344 168.933594 C 208.359375 169 207.78125 169.179688 207.164062 169.488281 C 206.863281 169.640625 206.574219 169.800781 206.285156 169.960938 L 202.5 171.445312 C 201.320312 171.644531 200.109375 171.628906 198.914062 171.394531 C 195.160156 170.667969 191.785156 167.964844 190.648438 164.265625 C 189.433594 160.3125 190.75 155.816406 193.582031 152.871094 C 195.5 150.878906 199.261719 150.238281 199.898438 147.242188 C 200.457031 144.617188 197.601562 141.683594 197.117188 139.128906 C 196.230469 134.441406 200.441406 132.5 203.0625 129.503906 C 205.363281 126.871094 205.007812 123.3125 205.382812 120.070312 C 205.625 117.929688 206.183594 115.878906 207.109375 113.925781 C 211.070312 105.585938 220.378906 101.3125 229.070312 103.5625 C 234.859375 100.980469 241.40625 100.144531 247.441406 101.925781 C 252.289062 103.359375 256.777344 106.347656 259.535156 110.621094 C 261.109375 113.058594 261.6875 115.742188 262.484375 118.484375 C 263.535156 122.089844 265.914062 123.316406 268.207031 125.929688 C 271.683594 129.894531 269.070312 133.859375 268.675781 138.335938 C 268.257812 143.070312 273.929688 146.128906 272.820312 150.933594 C 272.085938 154.105469 266.761719 156.757812 270.464844 160.054688 C 271.890625 161.324219 273.042969 161.828125 273.324219 163.933594 C 273.625 166.199219 272.617188 168.089844 271.160156 169.703125 Z M 294.417969 284.621094 C 281.367188 285.871094 268.835938 283.484375 266.601562 283.027344 L 264.15625 272.46875 C 264.085938 272.160156 263.773438 271.964844 263.46875 272.039062 C 263.160156 272.109375 262.964844 272.417969 263.039062 272.726562 L 265.5625 283.640625 C 265.613281 283.855469 265.78125 284.019531 265.996094 284.066406 C 266.113281 284.09375 275.335938 286.121094 286.597656 286.121094 C 289.164062 286.121094 291.835938 286.019531 294.53125 285.761719 C 294.84375 285.730469 295.074219 285.449219 295.046875 285.132812 C 295.015625 284.820312 294.742188 284.582031 294.417969 284.621094 Z M 263.050781 213.46875 C 262.890625 213.46875 262.761719 213.597656 262.761719 213.753906 C 262.761719 213.914062 262.890625 214.042969 263.050781 214.042969 L 266.109375 214.042969 C 266.269531 214.042969 266.398438 213.914062 266.398438 213.753906 C 266.398438 213.597656 266.269531 213.46875 266.109375 213.46875 Z M 263.335938 197.636719 L 263.335938 200.621094 L 265.828125 200.621094 L 265.828125 197.636719 Z M 184.902344 258.109375 C 185.0625 257.894531 185.054688 257.597656 184.882812 257.390625 C 180.726562 252.535156 170.527344 250.566406 170.09375 250.484375 C 169.78125 250.425781 169.484375 250.628906 169.425781 250.941406 C 169.367188 251.25 169.570312 251.550781 169.882812 251.609375 C 169.96875 251.625 177.363281 253.054688 181.945312 256.300781 C 179.6875 255.710938 176.386719 255.273438 173.371094 256.492188 C 170.804688 257.527344 168.921875 259.582031 167.769531 262.597656 C 167.652344 262.890625 167.804688 263.222656 168.097656 263.335938 C 168.164062 263.363281 168.234375 263.375 168.304688 263.375 C 168.535156 263.375 168.753906 263.234375 168.839844 263.003906 C 169.875 260.304688 171.542969 258.46875 173.796875 257.554688 C 178.449219 255.671875 184.144531 258.253906 184.203125 258.28125 C 184.449219 258.394531 184.738281 258.324219 184.902344 258.109375 Z M 221.585938 262.261719 L 198.566406 270.304688 C 198.269531 270.410156 198.113281 270.738281 198.21875 271.035156 C 198.300781 271.269531 198.519531 271.417969 198.757812 271.417969 C 198.820312 271.417969 198.886719 271.410156 198.949219 271.386719 L 221.964844 263.339844 C 222.265625 263.234375 222.421875 262.910156 222.320312 262.613281 C 222.210938 262.3125 221.886719 262.152344 221.585938 262.261719 Z M 189.621094 278.613281 C 189.308594 278.546875 189.003906 278.742188 188.933594 279.050781 L 184.546875 298.898438 C 184.511719 298.894531 184.480469 298.890625 184.445312 298.890625 C 184.027344 298.890625 183.660156 298.714844 183.3125 298.355469 C 182.667969 297.683594 182.195312 296.488281 181.851562 295.050781 C 181.960938 295.15625 182.078125 295.246094 182.199219 295.316406 C 185.523438 297.132812 188.71875 277.296875 188.71875 277.296875 L 179.953125 276.378906 C 179.953125 276.378906 179.652344 281.109375 179.855469 285.859375 C 179.851562 289.394531 180.144531 296.714844 182.484375 299.144531 C 183.011719 299.695312 183.621094 299.992188 184.296875 300.03125 L 183.179688 305.078125 C 183.113281 305.382812 183.308594 305.6875 183.617188 305.757812 C 183.660156 305.769531 183.703125 305.773438 183.742188 305.773438 C 184.003906 305.773438 184.246094 305.589844 184.304688 305.324219 L 190.058594 279.296875 C 190.125 278.988281 189.929688 278.683594 189.621094 278.613281 Z M 284.746094 202.921875 C 284.757812 202.921875 284.777344 202.921875 284.792969 202.921875 C 285.085938 202.921875 285.339844 202.695312 285.363281 202.398438 C 286.597656 187.222656 292.773438 178.421875 292.835938 178.335938 C 293.019531 178.078125 292.960938 177.71875 292.703125 177.535156 C 292.441406 177.351562 292.085938 177.410156 291.902344 177.671875 C 291.640625 178.035156 285.480469 186.792969 284.21875 202.304688 C 284.191406 202.621094 284.429688 202.894531 284.746094 202.921875 Z M 183.476562 181.59375 C 183.175781 181.703125 183.023438 182.03125 183.132812 182.328125 C 183.179688 182.453125 187.769531 195.070312 190.261719 213.0625 C 190.300781 213.351562 190.546875 213.558594 190.828125 213.558594 C 190.855469 213.558594 190.882812 213.554688 190.90625 213.550781 C 191.222656 213.507812 191.441406 213.222656 191.398438 212.90625 C 188.894531 194.792969 184.257812 182.0625 184.210938 181.933594 C 184.101562 181.636719 183.773438 181.484375 183.476562 181.59375 Z M 209.144531 271.855469 L 200.09375 275.421875 C 199.796875 275.539062 199.652344 275.871094 199.769531 276.164062 C 199.859375 276.390625 200.074219 276.527344 200.300781 276.527344 C 200.371094 276.527344 200.445312 276.511719 200.515625 276.484375 L 209.566406 272.917969 C 209.859375 272.800781 210.003906 272.46875 209.890625 272.175781 C 209.773438 271.878906 209.4375 271.738281 209.144531 271.855469 Z M 193.503906 225.703125 C 193.523438 225.855469 195.757812 240.691406 196.382812 246.929688 C 196.414062 247.246094 196.183594 247.527344 195.871094 247.558594 C 195.847656 247.558594 195.832031 247.5625 195.8125 247.5625 C 195.519531 247.5625 195.269531 247.339844 195.238281 247.042969 C 194.617188 240.835938 192.390625 226.023438 192.367188 225.875 C 192.320312 225.5625 192.535156 225.269531 192.847656 225.222656 C 193.160156 225.179688 193.457031 225.390625 193.503906 225.703125 " fill-opacity="1" fill-rule="nonzero"/></g><path fill="#387a61" d="M 267.578125 211.953125 C 267.578125 211.796875 267.453125 211.667969 267.292969 211.667969 L 261.871094 211.667969 C 261.710938 211.667969 261.582031 211.796875 261.582031 211.953125 C 261.582031 212.113281 261.710938 212.238281 261.871094 212.238281 L 267.292969 212.238281 C 267.453125 212.238281 267.578125 212.113281 267.578125 211.953125 Z M 266.398438 213.753906 C 266.398438 213.597656 266.269531 213.46875 266.109375 213.46875 L 263.050781 213.46875 C 262.890625 213.46875 262.761719 213.597656 262.761719 213.753906 C 262.761719 213.914062 262.890625 214.042969 263.050781 214.042969 L 266.109375 214.042969 C 266.269531 214.042969 266.398438 213.914062 266.398438 213.753906 Z M 261.792969 208.398438 L 267.371094 208.398438 L 267.371094 202.835938 L 261.792969 202.835938 Z M 272.695312 199.128906 L 272.695312 224.160156 L 256.820312 224.160156 L 249.832031 246.460938 C 249.753906 246.703125 249.527344 246.859375 249.28125 246.859375 C 249.226562 246.859375 249.167969 246.855469 249.113281 246.835938 C 249.070312 246.820312 249.039062 246.796875 249.003906 246.773438 C 248.777344 246.644531 248.652344 246.378906 248.734375 246.117188 L 248.972656 245.359375 L 256.46875 221.445312 L 256.46875 199.128906 L 263.335938 199.128906 L 263.335938 200.621094 L 265.828125 200.621094 L 265.828125 199.128906 Z M 204.460938 192.675781 L 210.144531 194.707031 L 221.417969 234.402344 C 221.757812 234.371094 222.109375 234.382812 222.464844 234.449219 L 222.632812 234.472656 L 211.472656 195.179688 L 221.300781 198.691406 C 221.597656 198.796875 221.929688 198.644531 222.035156 198.347656 C 222.140625 198.046875 221.988281 197.71875 221.6875 197.613281 L 205.371094 191.785156 L 212.847656 168.664062 C 212.945312 168.363281 212.78125 168.039062 212.480469 167.941406 C 212.175781 167.84375 211.855469 168.011719 211.757812 168.3125 L 204.105469 191.960938 C 204.011719 192.253906 204.167969 192.570312 204.460938 192.675781 Z M 269.746094 271.253906 L 261.660156 266.066406 L 239.472656 251.824219 C 238.820312 251.40625 238.070312 251.152344 237.296875 251.09375 L 216.089844 249.453125 L 195.925781 247.890625 L 171.8125 246.023438 C 170.800781 245.945312 170.34375 247.261719 171.195312 247.820312 L 181.824219 254.839844 C 182.035156 254.972656 182.242188 255.109375 182.441406 255.25 L 189.394531 259.839844 L 189.933594 259.621094 L 196.984375 264.445312 L 196.722656 264.679688 L 197.503906 265.191406 C 197.628906 265.15625 197.761719 265.113281 197.898438 265.070312 L 201.28125 267.382812 L 206.171875 267.648438 L 221.585938 262.261719 C 221.886719 262.152344 222.210938 262.3125 222.320312 262.613281 C 222.421875 262.910156 222.265625 263.234375 221.964844 263.339844 L 209.175781 267.8125 L 217.925781 268.289062 L 223.882812 268.839844 L 249.507812 271.230469 L 263.035156 272.492188 C 263.074219 272.273438 263.238281 272.089844 263.46875 272.039062 C 263.773438 271.964844 264.085938 272.160156 264.15625 272.46875 L 264.1875 272.601562 L 269.121094 273.058594 C 270.148438 273.15625 270.613281 271.8125 269.746094 271.253906 Z M 229.230469 227.308594 L 229.328125 227.363281 L 229.691406 227.570312 C 229.910156 227.691406 230.1875 227.621094 230.316406 227.410156 L 234.914062 219.988281 C 235.046875 219.773438 234.984375 219.496094 234.777344 219.355469 L 234.425781 219.125 L 234.234375 218.996094 C 234.015625 218.851562 233.714844 218.917969 233.578125 219.144531 L 229.0625 226.667969 C 228.925781 226.890625 229.003906 227.179688 229.230469 227.308594 Z M 218.828125 171.566406 C 219.5625 171.375 220.410156 168.554688 221.25 164.632812 C 218.136719 165.359375 216.113281 166.164062 215.066406 166.648438 L 216.363281 172.449219 C 217.09375 172.101562 217.910156 171.804688 218.828125 171.566406 Z M 264.292969 196.476562 L 263.929688 197.636719 L 264.292969 197.636719 Z M 255.863281 168.5 L 256.511719 164.710938 C 254.007812 164.304688 251.644531 163.988281 249.386719 163.738281 C 251.101562 166.007812 253.515625 167.511719 255.863281 168.5 Z M 261.523438 167.589844 C 261.402344 167.300781 261.539062 166.964844 261.832031 166.839844 C 262.125 166.71875 262.460938 166.855469 262.582031 167.144531 L 271.777344 188.835938 C 271.890625 189.101562 271.78125 189.414062 271.527344 189.554688 L 266.640625 192.300781 C 266.703125 192.429688 266.71875 192.578125 266.671875 192.726562 L 265.132812 197.636719 L 264.867188 197.636719 L 264.867188 195.730469 C 264.867188 195.582031 264.757812 195.46875 264.613281 195.449219 L 265.382812 193.007812 L 252.089844 200.46875 C 251.8125 200.625 251.464844 200.527344 251.308594 200.253906 C 251.152344 199.976562 251.25 199.628906 251.527344 199.472656 L 270.519531 188.808594 L 261.523438 167.589844 " fill-opacity="1" fill-rule="nonzero"/><path fill="#f6c1a1" d="M 264.613281 195.449219 C 264.601562 195.449219 264.59375 195.441406 264.582031 195.441406 C 264.421875 195.441406 264.292969 195.570312 264.292969 195.730469 L 264.292969 197.636719 L 264.867188 197.636719 L 264.867188 195.730469 C 264.867188 195.582031 264.757812 195.46875 264.613281 195.449219 Z M 222.292969 262.574219 C 222.300781 262.585938 222.3125 262.597656 222.320312 262.613281 C 222.421875 262.910156 222.265625 263.234375 221.964844 263.339844 L 198.949219 271.386719 C 198.886719 271.410156 198.820312 271.417969 198.757812 271.417969 C 198.519531 271.417969 198.300781 271.269531 198.21875 271.035156 C 198.113281 270.738281 198.269531 270.410156 198.566406 270.304688 L 221.585938 262.261719 C 221.710938 262.214844 221.839844 262.226562 221.957031 262.265625 L 220.925781 261.085938 C 220.410156 260.496094 219.660156 260.179688 218.875 260.210938 C 212.984375 260.460938 202.078125 263.742188 197.503906 265.191406 C 196.894531 265.386719 196.398438 265.546875 196.039062 265.664062 C 195.625 265.800781 195.390625 265.878906 195.390625 265.878906 L 196.097656 265.242188 L 196.722656 264.679688 L 203.066406 258.96875 C 204.042969 258.089844 204.183594 256.609375 203.390625 255.558594 C 202.933594 254.960938 202.132812 254.738281 201.433594 255.019531 L 189.394531 259.839844 L 184.796875 261.683594 C 184.796875 261.683594 179.949219 265.457031 179.953125 276.378906 C 179.953125 277.992188 180.058594 279.757812 180.304688 281.691406 C 180.542969 283.609375 185.394531 281.015625 188.382812 279.222656 C 188.621094 279.078125 188.847656 278.941406 189.0625 278.808594 C 189.140625 278.714844 189.246094 278.648438 189.367188 278.617188 C 190.171875 278.117188 190.691406 277.773438 190.691406 277.773438 L 194.25 279.101562 L 197.304688 280.242188 C 199.222656 280.957031 201.382812 280.511719 202.859375 279.09375 L 209.105469 273.101562 L 200.515625 276.484375 C 200.445312 276.511719 200.371094 276.527344 200.300781 276.527344 C 200.074219 276.527344 199.859375 276.390625 199.769531 276.164062 C 199.652344 275.871094 199.796875 275.539062 200.09375 275.421875 L 209.144531 271.855469 C 209.4375 271.738281 209.773438 271.878906 209.890625 272.175781 C 209.914062 272.238281 209.921875 272.304688 209.921875 272.371094 L 217.140625 268.214844 L 222.625 265.054688 C 223.398438 264.609375 223.484375 263.527344 222.789062 262.96875 Z M 257.492188 252.167969 C 257.492188 252.167969 252.710938 251.140625 249.070312 250.078125 C 247.167969 249.523438 245.578125 248.960938 245.144531 248.527344 C 244.507812 247.894531 241.824219 243.542969 239.863281 240.300781 C 238.480469 238.019531 236.15625 236.472656 233.511719 236.082031 L 228.101562 235.28125 L 224.859375 234.804688 L 224.820312 234.796875 L 222.632812 234.472656 L 222.464844 234.449219 C 222.109375 234.382812 221.757812 234.371094 221.417969 234.402344 C 219.648438 234.550781 218.140625 235.910156 217.90625 237.757812 L 217.761719 238.859375 C 217.890625 238.710938 218.085938 238.621094 218.292969 238.660156 L 233.871094 241.316406 C 234.183594 241.371094 234.394531 241.664062 234.339844 241.980469 C 234.292969 242.257812 234.050781 242.453125 233.777344 242.453125 C 233.742188 242.453125 233.710938 242.453125 233.679688 242.445312 L 218.097656 239.785156 C 217.832031 239.742188 217.648438 239.511719 217.632812 239.253906 L 217.605469 239.246094 C 215.789062 238.929688 214.082031 240.195312 213.859375 242.015625 L 213.855469 242.058594 C 213.660156 243.679688 214.71875 245.171875 216.296875 245.546875 C 216.296875 245.535156 216.292969 245.523438 216.292969 245.511719 C 216.335938 245.199219 216.628906 244.984375 216.941406 245.019531 L 233.429688 247.261719 C 233.746094 247.304688 233.964844 247.59375 233.921875 247.90625 C 233.882812 248.191406 233.636719 248.398438 233.355469 248.398438 C 233.328125 248.398438 233.300781 248.398438 233.277344 248.394531 L 216.785156 246.15625 C 216.59375 246.128906 216.449219 246.011719 216.367188 245.855469 L 215.9375 247.339844 C 215.730469 248.0625 215.800781 248.804688 216.089844 249.453125 L 237.296875 251.09375 C 238.070312 251.152344 238.820312 251.40625 239.472656 251.824219 L 261.660156 266.066406 C 260.679688 262.152344 259.726562 258.433594 258.960938 255.503906 Z M 220.773438 192.175781 L 216.363281 172.449219 C 217.09375 172.101562 217.910156 171.804688 218.828125 171.566406 C 219.5625 171.375 220.410156 168.554688 221.25 164.632812 C 221.453125 163.675781 221.65625 162.65625 221.859375 161.589844 C 226.976562 165.664062 235.042969 164.792969 240.382812 161.804688 C 243.09375 160.289062 244.726562 158.34375 245.675781 156.320312 C 246.066406 155.933594 246.433594 155.535156 246.785156 155.136719 C 246.90625 156.992188 247.128906 158.644531 247.484375 159.90625 C 247.898438 161.382812 248.5625 162.648438 249.386719 163.738281 C 251.101562 166.007812 253.515625 167.511719 255.863281 168.5 L 252.039062 190.894531 C 247.992188 194 242.554688 196.195312 235.246094 196.195312 C 229.65625 196.195312 224.6875 194.582031 220.773438 192.175781 " fill-opacity="1" fill-rule="nonzero"/><path fill="#f6c1a1" d="M 257.550781 142.09375 C 256.417969 144.203125 254.59375 145.59375 252.800781 145.941406 C 252.761719 145.949219 252.726562 145.957031 252.6875 145.964844 C 252.164062 146.054688 251.644531 146.054688 251.144531 145.953125 C 251.046875 146.171875 250.945312 146.394531 250.84375 146.613281 C 250.832031 146.632812 250.8125 146.652344 250.804688 146.675781 C 250.800781 146.679688 250.78125 146.738281 250.738281 146.839844 C 250.054688 148.285156 249.316406 149.699219 248.519531 151.054688 C 248.027344 151.835938 247.453125 152.667969 246.792969 153.5 C 247.453125 150.042969 246.496094 146.933594 246.042969 145.546875 C 246.554688 144.640625 247.3125 143.414062 248.007812 142.261719 C 250.03125 138.914062 252.5625 135.097656 254.027344 134.125 C 254.214844 134.003906 254.300781 133.785156 254.273438 133.574219 C 255.011719 133.523438 255.726562 133.652344 256.375 133.996094 C 256.785156 134.214844 257.132812 134.507812 257.429688 134.851562 C 258.859375 136.503906 258.976562 139.445312 257.550781 142.09375 Z M 243.621094 136.921875 C 243.507812 137.046875 243.355469 137.113281 243.199219 137.113281 C 243.0625 137.113281 242.921875 137.066406 242.808594 136.96875 C 239.992188 134.460938 237.246094 135.632812 237.128906 135.683594 C 236.839844 135.8125 236.5 135.683594 236.371094 135.394531 C 236.242188 135.109375 236.367188 134.769531 236.65625 134.640625 C 236.796875 134.578125 240.183594 133.09375 243.574219 136.113281 C 243.808594 136.324219 243.832031 136.6875 243.621094 136.921875 Z M 240.613281 140.539062 C 240.539062 141.226562 239.917969 141.722656 239.230469 141.648438 C 238.539062 141.574219 238.042969 140.957031 238.117188 140.269531 C 238.191406 139.582031 238.808594 139.085938 239.496094 139.160156 C 240.1875 139.234375 240.6875 139.851562 240.613281 140.539062 Z M 228.636719 134.339844 C 228.523438 134.472656 228.367188 134.542969 228.203125 134.546875 C 228.070312 134.546875 227.9375 134.5 227.828125 134.410156 C 224.914062 131.96875 222.140625 133.277344 222.113281 133.292969 C 221.828125 133.433594 221.488281 133.316406 221.34375 133.03125 C 221.207031 132.746094 221.324219 132.402344 221.609375 132.265625 C 221.75 132.195312 225.089844 130.617188 228.566406 133.535156 C 228.8125 133.738281 228.839844 134.097656 228.636719 134.339844 Z M 226.558594 139.03125 C 226.484375 139.71875 225.863281 140.214844 225.175781 140.140625 C 224.484375 140.070312 223.988281 139.449219 224.0625 138.761719 C 224.132812 138.074219 224.753906 137.578125 225.445312 137.652344 C 226.132812 137.726562 226.632812 138.34375 226.558594 139.03125 Z M 250.375 132.921875 C 245.867188 131.71875 239.683594 130.753906 238.488281 123.449219 C 237.632812 118.230469 233.015625 117.570312 230.714844 117.570312 C 226.449219 123.324219 220.652344 126.125 216.40625 127.472656 C 215.933594 131.984375 215.519531 137.4375 216.109375 142.847656 C 217.835938 142.53125 226.128906 141.164062 229.714844 141.777344 C 229.757812 141.785156 229.753906 141.785156 229.785156 141.789062 C 230.027344 141.125 230.304688 140.386719 230.632812 139.558594 C 230.75 139.265625 231.085938 139.121094 231.378906 139.234375 C 231.675781 139.351562 231.820312 139.683594 231.703125 139.980469 C 231.445312 140.632812 231.1875 141.316406 230.945312 141.992188 C 230.921875 141.988281 243.675781 144.507812 245.242188 144.8125 C 245.90625 143.640625 246.972656 141.710938 248.078125 139.957031 C 249.464844 137.75 251.019531 135.488281 252.3125 134.128906 C 252.332031 134.109375 252.351562 134.085938 252.371094 134.066406 C 251.84375 133.535156 251.1875 133.136719 250.375 132.921875 " fill-opacity="1" fill-rule="nonzero"/></svg>