<svg xmlns="http://www.w3.org/2000/svg" xmlns:xlink="http://www.w3.org/1999/xlink" width="1920" zoomAndPan="magnify" viewBox="0 0 1440 525.000007" height="700" preserveAspectRatio="xMidYMid meet" version="1.0"><defs><clipPath id="195763ff30"><path d="M 276.523438 364 L 582.691406 364 L 582.691406 393 L 276.523438 393 Z M 276.523438 364 " clip-rule="nonzero"/></clipPath><clipPath id="b6be055147"><path d="M 371 156.160156 L 398 156.160156 L 398 181 L 371 181 Z M 371 156.160156 " clip-rule="nonzero"/></clipPath><clipPath id="788fccb912"><path d="M 1.367188 0 L 195 0 L 195 158 L 1.367188 158 Z M 1.367188 0 " clip-rule="nonzero"/></clipPath><clipPath id="715bb12b43"><path d="M -67.3125 36.957031 L 151.238281 -120.710938 L 270.363281 44.414062 L 51.816406 202.082031 Z M -67.3125 36.957031 " clip-rule="nonzero"/></clipPath><clipPath id="40a45499f5"><path d="M -67.3125 36.957031 L 151.238281 -120.710938 L 270.363281 44.414062 L 51.816406 202.082031 Z M -67.3125 36.957031 " clip-rule="nonzero"/></clipPath><clipPath id="f122e28db9"><path d="M -67.3125 36.957031 L 151.238281 -120.710938 L 270.363281 44.414062 L 51.816406 202.082031 Z M -67.3125 36.957031 " clip-rule="nonzero"/></clipPath><clipPath id="e2eb052ae6"><path d="M 23 0 L 202 0 L 202 141 L 23 141 Z M 23 0 " clip-rule="nonzero"/></clipPath><clipPath id="9466a0e597"><path d="M -67.3125 36.957031 L 151.238281 -120.710938 L 270.363281 44.414062 L 51.816406 202.082031 Z M -67.3125 36.957031 " clip-rule="nonzero"/></clipPath><clipPath id="2aa47013b3"><path d="M -67.3125 36.957031 L 151.238281 -120.710938 L 270.363281 44.414062 L 51.816406 202.082031 Z M -67.3125 36.957031 " clip-rule="nonzero"/></clipPath><clipPath id="2decd158ef"><path d="M -67.3125 36.957031 L 151.238281 -120.710938 L 270.363281 44.414062 L 51.816406 202.082031 Z M -67.3125 36.957031 " clip-rule="nonzero"/></clipPath><clipPath id="01bb551dff"><path d="M 162 523 L 193 523 L 193 524 L 162 524 Z M 162 523 " clip-rule="nonzero"/></clipPath><clipPath id="4c967137c6"><path d="M 96.074219 368.339844 L 197.371094 368.339844 L 197.371094 467.96875 L 96.074219 467.96875 Z M 96.074219 368.339844 " clip-rule="nonzero"/></clipPath><clipPath id="c613dc9af5"><path d="M 65.863281 491 L 130.3125 491 L 130.3125 524 L 65.863281 524 Z M 65.863281 491 " clip-rule="nonzero"/></clipPath></defs><path fill="#ffcf5c" d="M 588.851562 434.566406 C 587.695312 440.121094 577.28125 486.761719 532.816406 507.863281 C 496.140625 525.339844 451.132812 518.472656 418.699219 490.308594 C 373.191406 520.207031 315.261719 509.90625 287.917969 473.144531 C 267.132812 445.175781 266.050781 404.589844 285.257812 370.835938 C 251.089844 352.394531 231.074219 316.132812 234.542969 279.601562 C 238.671875 236.277344 275.152344 200.054688 321.972656 195.386719 C 322.398438 185.898438 325.097656 149.710938 352.828125 126.640625 C 387.152344 97.941406 446.8125 100.5625 492.320312 139.527344 C 561.742188 131.308594 590.78125 147.433594 604.394531 164.023438 C 622.175781 185.703125 610.027344 203.835938 625.761719 259 C 642.5 317.753906 665.136719 328.09375 661.125 358.261719 C 658.3125 378.011719 644.464844 405.632812 588.851562 434.566406 Z M 588.851562 434.566406 " fill-opacity="1" fill-rule="nonzero"/><path fill="#3f434c" d="M 474.667969 507.570312 C 467.460938 507.632812 462.078125 514.164062 461.355469 514.617188 C 460.566406 515.109375 449.34375 516.6875 445.304688 515.601562 C 441.269531 514.515625 440.285156 509.878906 438.902344 509.386719 C 438.269531 509.160156 437.527344 509.140625 436.914062 509.191406 C 436.800781 509.347656 436.695312 509.554688 436.589844 509.839844 C 436.117188 511.132812 435.425781 511.824219 435.730469 513.507812 C 436.03125 515.195312 438.539062 516.273438 441.679688 517.351562 C 444.824219 518.433594 449.523438 519.210938 453.617188 518.820312 C 457.710938 518.433594 461.332031 517.09375 462.496094 515.882812 C 463.660156 514.675781 463.054688 514.417969 464.867188 513.984375 C 466.675781 513.554688 467.28125 515.0625 470.253906 514.890625 C 473.226562 514.71875 474.847656 513.59375 475.339844 511.390625 C 475.597656 510.230469 475.285156 509.082031 474.929688 508.253906 C 474.835938 508.03125 474.75 507.800781 474.667969 507.570312 " fill-opacity="1" fill-rule="nonzero"/><path fill="#ffffff" d="M 438.902344 509.386719 C 440.285156 509.878906 441.269531 514.515625 445.304688 515.601562 C 449.34375 516.6875 460.566406 515.109375 461.355469 514.617188 C 462.078125 514.164062 467.460938 507.632812 474.667969 507.570312 C 474.375 506.734375 474.175781 505.863281 474.078125 504.976562 C 473.804688 502.492188 473.183594 498.476562 471.933594 497.140625 C 470.320312 495.410156 463.671875 494.367188 458.339844 495.355469 C 456.992188 495.605469 455.746094 496.238281 454.742188 497.167969 C 452.382812 499.339844 447.59375 503.726562 446.117188 504.785156 C 444.132812 506.210938 440.296875 507.851562 438.917969 508.324219 C 437.84375 508.699219 437.316406 508.625 436.914062 509.191406 C 437.527344 509.140625 438.269531 509.160156 438.902344 509.386719 " fill-opacity="1" fill-rule="nonzero"/><path fill="#ffe7bd" d="M 457.078125 497.132812 L 449.175781 469.109375 L 468.425781 468.0625 C 468.425781 468.0625 471.597656 490.976562 471.136719 496.890625 C 471.070312 497.773438 470.734375 498.601562 469.910156 498.929688 C 466.597656 500.242188 459.957031 501.75 457.078125 497.132812 " fill-opacity="1" fill-rule="nonzero"/><path fill="#3f434c" d="M 431.9375 507.570312 C 424.730469 507.632812 419.347656 514.164062 418.625 514.617188 C 417.835938 515.109375 406.613281 516.6875 402.574219 515.601562 C 398.539062 514.515625 397.550781 509.878906 396.171875 509.386719 C 395.539062 509.160156 394.796875 509.140625 394.183594 509.191406 C 394.066406 509.347656 393.964844 509.554688 393.859375 509.839844 C 393.386719 511.132812 392.695312 511.824219 393 513.507812 C 393.300781 515.195312 395.808594 516.273438 398.949219 517.351562 C 402.09375 518.433594 406.789062 519.210938 410.886719 518.820312 C 414.980469 518.433594 418.601562 517.09375 419.765625 515.882812 C 420.929688 514.675781 420.324219 514.417969 422.136719 513.984375 C 423.945312 513.554688 424.550781 515.0625 427.523438 514.890625 C 430.496094 514.71875 432.117188 513.59375 432.609375 511.390625 C 432.867188 510.230469 432.554688 509.082031 432.199219 508.253906 C 432.105469 508.03125 432.019531 507.800781 431.9375 507.570312 " fill-opacity="1" fill-rule="nonzero"/><path fill="#ffffff" d="M 396.171875 509.386719 C 397.550781 509.878906 398.539062 514.515625 402.574219 515.601562 C 406.613281 516.6875 417.835938 515.109375 418.625 514.617188 C 419.347656 514.164062 424.730469 507.632812 431.9375 507.570312 C 431.644531 506.734375 431.445312 505.863281 431.347656 504.976562 C 431.074219 502.492188 430.453125 498.476562 429.203125 497.140625 C 427.589844 495.410156 420.941406 494.367188 415.609375 495.355469 C 414.261719 495.605469 413.015625 496.238281 412.011719 497.167969 C 409.652344 499.339844 404.863281 503.726562 403.386719 504.785156 C 401.402344 506.210938 397.566406 507.851562 396.1875 508.324219 C 395.113281 508.699219 394.585938 508.625 394.183594 509.191406 C 394.796875 509.140625 395.539062 509.160156 396.171875 509.386719 " fill-opacity="1" fill-rule="nonzero"/><path fill="#ffe7bd" d="M 414.347656 497.132812 L 406.445312 469.109375 L 425.691406 468.0625 C 425.691406 468.0625 428.867188 490.976562 428.40625 496.890625 C 428.339844 497.773438 428.003906 498.601562 427.179688 498.929688 C 423.867188 500.242188 417.226562 501.75 414.347656 497.132812 " fill-opacity="1" fill-rule="nonzero"/><path fill="#ffe7bd" d="M 450.503906 271.960938 C 446.046875 280.773438 444.535156 299.910156 442.957031 316.644531 C 441.542969 331.664062 437.15625 341.753906 438.613281 343.34375 C 441.6875 346.703125 447.757812 351.707031 455.839844 348.804688 C 463.921875 345.902344 461.632812 332.152344 462.703125 315.804688 C 463.769531 299.460938 464.683594 243.921875 450.503906 271.960938 " fill-opacity="1" fill-rule="nonzero"/><path fill="#d16a47" d="M 462.582031 317.867188 C 462.617188 317.183594 462.65625 316.5 462.703125 315.804688 C 463.769531 299.460938 464.683594 243.921875 450.503906 271.960938 C 446.421875 280.035156 443.394531 296.871094 441.703125 312.507812 C 444.730469 314.328125 452.082031 317.941406 462.582031 317.867188 " fill-opacity="1" fill-rule="nonzero"/><path fill="#f19d72" d="M 462.671875 280.898438 C 459.515625 281.179688 454.800781 283.011719 448.675781 287.105469 C 447.226562 288.148438 445.976562 289.128906 445.101562 289.921875 C 444.949219 290.667969 444.800781 291.421875 444.65625 292.183594 C 446.085938 292.152344 448.765625 290.828125 448.765625 290.828125 C 448.765625 290.828125 446.101562 293.296875 444.046875 295.5625 C 443.855469 296.679688 443.667969 297.8125 443.488281 298.953125 C 445.863281 298.023438 449.367188 295.277344 449.367188 295.277344 C 449.367188 295.277344 444.101562 301.558594 442.664062 304.597656 C 442.597656 305.109375 442.53125 305.617188 442.464844 306.128906 C 442.527344 306.171875 442.609375 306.203125 442.714844 306.207031 C 445.125 306.332031 452.371094 297.710938 452.371094 297.710938 C 452.371094 297.710938 448.597656 303.914062 449.628906 304 C 450.148438 304.042969 454.523438 299.214844 458.746094 294.398438 C 460.492188 293.207031 461.960938 292.007812 463.164062 290.847656 C 463.078125 287.433594 462.921875 284.050781 462.671875 280.898438 " fill-opacity="1" fill-rule="nonzero"/><path fill="#3f434c" d="M 456.09375 290.15625 C 456.09375 290.15625 458.296875 304.324219 458.277344 318.761719 C 458.257812 332.476562 457.363281 347.363281 457.363281 347.363281 C 457.363281 347.363281 467.765625 332.789062 467.167969 324.660156 C 466.570312 316.523438 463.398438 296.078125 456.09375 290.15625 " fill-opacity="1" fill-rule="nonzero"/><path fill="#ddd3ba" d="M 281.464844 388.320312 L 281.464844 398.28125 L 518.128906 398.28125 L 577.476562 384.878906 L 577.476562 375.941406 L 281.464844 388.320312 " fill-opacity="1" fill-rule="nonzero"/><g clip-path="url(#195763ff30)"><path fill="#4e9ad9" d="M 369.726562 364.640625 L 281.664062 376.84375 C 278.757812 377.246094 276.59375 379.734375 276.59375 382.671875 L 276.59375 384.101562 C 276.59375 387.324219 279.183594 389.949219 282.398438 389.988281 L 516.757812 392.324219 L 579.191406 378.316406 C 581.195312 377.863281 582.621094 376.082031 582.621094 374.023438 L 582.621094 368.539062 C 582.621094 366.109375 580.65625 364.140625 578.230469 364.140625 L 376.964844 364.140625 C 374.542969 364.140625 372.125 364.308594 369.726562 364.640625 " fill-opacity="1" fill-rule="nonzero"/></g><path fill="#ddd3ba" d="M 281.464844 395.519531 L 281.464844 492.222656 L 290.109375 492.222656 L 290.109375 395.519531 L 281.464844 395.519531 " fill-opacity="1" fill-rule="nonzero"/><path fill="#ddd3ba" d="M 513.226562 395.519531 L 513.226562 492.222656 L 521.871094 492.222656 L 521.871094 395.519531 L 513.226562 395.519531 " fill-opacity="1" fill-rule="nonzero"/><path fill="#ddd3ba" d="M 568.832031 380.851562 L 568.832031 477.554688 L 577.476562 477.554688 L 577.476562 380.851562 L 568.832031 380.851562 " fill-opacity="1" fill-rule="nonzero"/><path fill="#3f434c" d="M 460.335938 345.390625 C 460.335938 345.390625 398.183594 361.199219 384.953125 371.582031 C 377.761719 377.230469 377.972656 388.035156 381.167969 402.039062 C 381.964844 405.515625 380.984375 412.511719 382.078125 416.351562 C 387.960938 436.992188 399.160156 459.140625 401.273438 484.777344 C 401.273438 484.777344 425.558594 485.011719 430.613281 478.191406 C 430.613281 478.191406 428.007812 473.300781 428.515625 467.671875 C 428.976562 462.5625 427.644531 459.214844 425.875 454.140625 C 423.570312 447.535156 425.683594 441.734375 421.898438 432.847656 C 418.164062 424.089844 418.851562 415.167969 418.460938 410.941406 C 418.179688 407.894531 417.257812 402.445312 414.09375 399.761719 C 414.09375 399.761719 475.839844 383.457031 484.300781 377.59375 C 497.105469 368.722656 482.132812 343.964844 460.335938 345.390625 " fill-opacity="1" fill-rule="nonzero"/><path fill="#ffffff" d="M 421.65625 476.257812 C 421.4375 476.257812 421.226562 476.136719 421.121094 475.929688 C 420.503906 474.6875 419.796875 470.03125 418.699219 462.53125 C 417.894531 457.054688 416.984375 450.84375 415.976562 445.640625 C 415.273438 442.03125 414.9375 439.371094 414.636719 437.027344 C 413.976562 431.863281 413.542969 428.449219 409.964844 420.089844 C 408.589844 416.871094 407.648438 414.726562 406.957031 413.164062 C 405.148438 409.054688 405.148438 409.054688 404.023438 404.824219 L 403.738281 403.742188 C 402.769531 400.097656 402.828125 397.527344 403.925781 395.652344 C 404.988281 393.839844 407.023438 392.636719 410.527344 391.746094 C 416.394531 390.253906 433.515625 377.875 433.6875 377.746094 C 433.953125 377.554688 434.328125 377.613281 434.519531 377.882812 C 434.710938 378.148438 434.652344 378.523438 434.386719 378.714844 C 433.675781 379.234375 416.910156 391.359375 410.820312 392.90625 C 407.652344 393.710938 405.84375 394.742188 404.957031 396.257812 C 404.027344 397.839844 404.007812 400.121094 404.890625 403.433594 L 405.179688 404.515625 C 406.277344 408.660156 406.277344 408.660156 408.046875 412.679688 C 408.738281 414.246094 409.683594 416.394531 411.0625 419.617188 C 414.707031 428.132812 415.171875 431.800781 415.820312 436.875 C 416.117188 439.203125 416.453125 441.839844 417.148438 445.410156 C 418.164062 450.640625 419.074219 456.867188 419.878906 462.359375 C 420.777344 468.480469 421.621094 474.261719 422.1875 475.394531 C 422.335938 475.691406 422.214844 476.046875 421.921875 476.195312 C 421.835938 476.238281 421.746094 476.257812 421.65625 476.257812 " fill-opacity="1" fill-rule="nonzero"/><path fill="#3f434c" d="M 500.964844 347.441406 C 500.964844 347.441406 438.8125 363.25 425.582031 373.632812 C 407.007812 388.214844 437.277344 439.261719 441.367188 488.878906 C 441.367188 488.878906 462.960938 490.886719 471.242188 480.238281 C 471.242188 480.238281 472.324219 475.324219 470.984375 468.53125 C 470.3125 465.132812 467.53125 461.527344 466.71875 457.300781 C 465.632812 451.683594 462.445312 434.476562 462.007812 431.980469 C 460.566406 423.824219 459.4375 416.773438 459.089844 412.988281 C 458.804688 409.945312 457.882812 404.496094 454.722656 401.808594 C 454.722656 401.808594 458.761719 401.601562 464.429688 400.050781 C 469.261719 398.734375 473.21875 393.585938 480.132812 392.808594 C 499.226562 390.65625 520.285156 382.863281 524.929688 379.644531 C 537.734375 370.773438 522.761719 346.015625 500.964844 347.441406 " fill-opacity="1" fill-rule="nonzero"/><path fill="#ffffff" d="M 463.238281 482.796875 C 462.964844 482.796875 462.71875 482.605469 462.65625 482.328125 C 462.628906 482.199219 459.867188 469.453125 456.871094 458.117188 C 455.511719 452.96875 453.875 444.46875 452.296875 436.246094 C 450.421875 426.507812 448.488281 416.441406 447.378906 414.21875 C 445.875 411.210938 442.539062 403.480469 443.988281 396.765625 C 444.804688 392.976562 447.617188 391.3125 450.875 389.382812 C 453.03125 388.105469 455.480469 386.660156 457.859375 384.34375 C 461.535156 380.769531 465.363281 381.128906 469.796875 381.542969 C 472.992188 381.839844 476.617188 382.179688 480.863281 381.082031 C 490.90625 378.484375 517.082031 369.003906 517.347656 368.90625 C 517.65625 368.796875 518 368.957031 518.109375 369.265625 C 518.222656 369.578125 518.0625 369.921875 517.753906 370.03125 C 517.488281 370.128906 491.257812 379.628906 481.164062 382.238281 C 476.714844 383.390625 472.980469 383.039062 469.683594 382.730469 C 465.375 382.328125 461.972656 382.011719 458.691406 385.199219 C 456.207031 387.617188 453.699219 389.101562 451.480469 390.414062 C 448.21875 392.34375 445.863281 393.738281 445.152344 397.015625 C 444.699219 399.132812 444.105469 404.988281 448.445312 413.683594 C 449.628906 416.054688 451.492188 425.75 453.46875 436.019531 C 455.042969 444.222656 456.675781 452.703125 458.023438 457.808594 C 461.03125 469.171875 463.796875 481.945312 463.824219 482.074219 C 463.894531 482.394531 463.691406 482.714844 463.367188 482.785156 C 463.324219 482.792969 463.28125 482.796875 463.238281 482.796875 " fill-opacity="1" fill-rule="nonzero"/><path fill="#d16a47" d="M 453.707031 352.851562 C 448.960938 365.039062 486.589844 356.230469 506.078125 368.90625 C 524.722656 381.03125 532.539062 368.597656 532.539062 368.597656 C 532.539062 368.597656 530.785156 339.519531 529.652344 317.148438 C 528.761719 299.523438 524.589844 284.226562 516.484375 270.75 C 503.253906 248.746094 460.566406 252.941406 454.046875 265.65625 C 448.402344 276.675781 458.738281 289.511719 461.253906 315.257812 C 462.359375 326.570312 457.363281 343.457031 453.707031 352.851562 " fill-opacity="1" fill-rule="nonzero"/><path fill="#f19d72" d="M 519.914062 350.207031 C 517.398438 349.28125 510.539062 354.34375 510.539062 354.34375 C 510.539062 354.34375 521.402344 340.707031 518.203125 340.019531 C 515 339.332031 506.308594 350.207031 506.308594 350.207031 C 506.308594 350.207031 510.652344 342.082031 509.28125 341.738281 C 508.183594 341.464844 495.476562 356.847656 490.417969 363.039062 C 496.109375 364.199219 501.578125 365.976562 506.078125 368.90625 C 506.378906 369.101562 506.675781 369.289062 506.96875 369.472656 C 512.859375 366.199219 518.375 362.222656 518.316406 360.875 C 518.203125 358.351562 511.796875 360.875 511.796875 360.875 C 511.796875 360.875 522.429688 351.132812 519.914062 350.207031 " fill-opacity="1" fill-rule="nonzero"/><path fill="#f19d72" d="M 529.652344 317.148438 C 529.433594 312.777344 529.007812 308.546875 528.375 304.453125 C 520.871094 303.546875 512.117188 303.648438 511.316406 304.972656 C 510.011719 307.128906 516.730469 308.609375 516.730469 308.609375 C 516.730469 308.609375 502.484375 310.765625 504.0625 312.9375 C 505.636719 315.109375 514.148438 314.734375 514.148438 314.734375 C 514.148438 314.734375 497.546875 320 499.824219 322.355469 C 502.101562 324.714844 515.363281 320.53125 515.363281 320.53125 C 515.363281 320.53125 507.238281 324.855469 508.1875 325.90625 C 508.789062 326.574219 521.007812 323.109375 529.824219 320.5 C 529.765625 319.367188 529.710938 318.25 529.652344 317.148438 " fill-opacity="1" fill-rule="nonzero"/><path fill="#f19d72" d="M 466.972656 341.164062 C 469.332031 340.476562 465.523438 337.191406 465.523438 337.191406 C 465.523438 337.191406 474.746094 342.695312 476.042969 341.699219 C 477.339844 340.707031 473.449219 337.878906 473.449219 337.878906 C 473.449219 337.878906 482.066406 341.394531 482.75 339.105469 C 483.4375 336.8125 479.472656 335.4375 479.472656 335.4375 C 479.472656 335.4375 486.714844 337.5 485.648438 334.824219 C 484.769531 332.617188 467.121094 327.085938 460.976562 325.214844 C 460.441406 329.660156 459.453125 334.332031 458.277344 338.757812 C 461.453125 340.304688 465.5625 341.574219 466.972656 341.164062 " fill-opacity="1" fill-rule="nonzero"/><path fill="#f19d72" d="M 477.988281 272.953125 C 477.988281 272.953125 482.105469 295.335938 482.660156 294.265625 C 483.207031 293.195312 483.65625 289.453125 483.65625 289.453125 C 483.65625 289.453125 485.953125 297.472656 487.171875 296.554688 C 488.394531 295.640625 487.171875 287.3125 487.171875 287.3125 C 487.171875 287.3125 488.621094 292.8125 490.144531 292.277344 C 491.671875 291.746094 490.144531 284.714844 490.144531 284.714844 C 490.144531 284.714844 491.519531 288.613281 493.121094 286.472656 C 494.71875 284.335938 486.925781 263.632812 484.648438 265.160156 C 482.371094 266.6875 477.554688 270.390625 477.988281 272.953125 " fill-opacity="1" fill-rule="nonzero"/><path fill="#f19d72" d="M 483.136719 313.132812 C 483.136719 313.132812 478.785156 305.1875 477.492188 305.722656 C 476.195312 306.257812 476.730469 308.398438 476.730469 308.398438 C 476.730469 308.398438 474.746094 306.527344 474.136719 307.195312 C 473.527344 307.863281 475.703125 310.078125 475.703125 310.078125 C 475.703125 310.078125 472.460938 309.238281 472.6875 310.609375 C 472.917969 311.988281 483.144531 316.570312 483.136719 315.269531 C 483.132812 313.972656 483.136719 313.132812 483.136719 313.132812 " fill-opacity="1" fill-rule="nonzero"/><path fill="#f19d72" d="M 476.921875 253.933594 C 480.136719 253.203125 488.71875 253.96875 491.355469 255.113281 C 498.988281 258.4375 491.355469 268.292969 491.355469 268.292969 L 478.480469 272.953125 L 470.566406 264.628906 C 470.566406 264.628906 471.699219 255.113281 476.921875 253.933594 " fill-opacity="1" fill-rule="nonzero"/><path fill="#ffe7bd" d="M 482.167969 255.128906 C 479.628906 255.207031 477.308594 256.707031 476.335938 259.058594 C 476.289062 259.167969 476.246094 259.28125 476.203125 259.398438 C 475.019531 262.667969 476.300781 280.5 476.300781 280.5 C 476.300781 280.5 492.054688 261.96875 490.460938 258.03125 C 489.367188 255.328125 484.875 255.039062 482.167969 255.128906 " fill-opacity="1" fill-rule="nonzero"/><path fill="#ffe7bd" d="M 482.195312 227.886719 C 485.90625 228.378906 488.773438 231.394531 489.101562 235.128906 C 489.585938 240.683594 489.242188 245.886719 488.300781 247.496094 C 486.3125 250.914062 477.210938 253.152344 473.398438 251.773438 C 471.109375 250.941406 470.714844 248.589844 470.578125 244.851562 C 470.492188 242.367188 470.933594 240.316406 470.949219 239.257812 C 470.988281 236.617188 470.191406 227.8125 475.210938 227.589844 C 477.355469 227.492188 479.894531 227.582031 482.195312 227.886719 " fill-opacity="1" fill-rule="nonzero"/><path fill="#3f434c" d="M 485.003906 233.875 C 485.757812 235.503906 485.925781 239.164062 486.976562 240.519531 C 488.027344 241.875 490.992188 241.90625 491.976562 241.105469 C 494.476562 239.066406 495.386719 231.75 495.222656 230.253906 C 494.640625 225.039062 491.582031 225.683594 488.574219 224.75 C 485.566406 223.8125 483.867188 231.40625 485.003906 233.875 " fill-opacity="1" fill-rule="nonzero"/><path fill="#ffe7bd" d="M 489.164062 243.921875 C 489.164062 243.921875 488.667969 247.417969 488.941406 251.355469 C 489.160156 254.4375 489.730469 257.375 488.855469 258.253906 C 486.988281 260.125 479.769531 260.367188 478.4375 259.328125 C 477.105469 258.289062 479.164062 247.917969 479.164062 247.917969 L 489.164062 243.921875 " fill-opacity="1" fill-rule="nonzero"/><path fill="#ffcba1" d="M 475.65625 239.515625 C 475.621094 239.324219 475.375 239.265625 475.257812 239.421875 C 474.921875 239.851562 474.285156 240.542969 473.28125 241.144531 C 471.808594 242.03125 471.894531 243.035156 473.832031 242.886719 C 475.769531 242.738281 475.933594 242.589844 475.941406 241.59375 C 475.941406 241.0625 475.773438 240.105469 475.65625 239.515625 " fill-opacity="1" fill-rule="nonzero"/><path fill="#3f434c" d="M 481.464844 238.199219 C 481.425781 238.199219 481.382812 238.1875 481.347656 238.164062 C 481 237.96875 479.96875 237.464844 479.398438 237.476562 C 478.785156 237.496094 478.589844 237.84375 478.582031 237.859375 C 478.519531 237.972656 478.378906 238.019531 478.261719 237.957031 C 478.144531 237.898438 478.097656 237.757812 478.15625 237.640625 C 478.167969 237.617188 478.472656 237.027344 479.382812 237 C 480.222656 236.972656 481.527344 237.71875 481.582031 237.75 C 481.699219 237.816406 481.738281 237.960938 481.671875 238.078125 C 481.628906 238.15625 481.546875 238.199219 481.464844 238.199219 " fill-opacity="1" fill-rule="nonzero"/><path fill="#3f434c" d="M 471.695312 237.914062 C 471.636719 237.914062 471.574219 237.890625 471.527344 237.84375 C 471.433594 237.75 471.433594 237.597656 471.527344 237.503906 C 472.40625 236.625 473.957031 237.261719 474.023438 237.289062 C 474.144531 237.339844 474.203125 237.480469 474.152344 237.605469 C 474.101562 237.726562 473.960938 237.78125 473.839844 237.730469 C 473.824219 237.726562 472.519531 237.191406 471.863281 237.84375 C 471.820312 237.890625 471.757812 237.914062 471.695312 237.914062 " fill-opacity="1" fill-rule="nonzero"/><path fill="#3f434c" d="M 478.59375 237.496094 C 478.59375 237.496094 478.253906 239.273438 479.449219 239.382812 C 480.644531 239.492188 480.832031 237.800781 480.691406 237.578125 C 480.554688 237.355469 479.613281 236.929688 478.59375 237.496094 " fill-opacity="1" fill-rule="nonzero"/><path fill="#3f434c" d="M 471.570312 237.578125 C 471.570312 237.578125 471.347656 239.34375 472.238281 239.476562 C 473.125 239.605469 473.230469 237.921875 473.125 237.699219 C 473.019531 237.472656 472.308594 237.03125 471.570312 237.578125 " fill-opacity="1" fill-rule="nonzero"/><path fill="#3f434c" d="M 482.035156 236.015625 C 482.011719 236.015625 481.984375 236.011719 481.960938 236.003906 C 479.761719 235.3125 477.636719 235.394531 477.617188 235.394531 C 477.492188 235.398438 477.375 235.296875 477.367188 235.164062 C 477.363281 235.035156 477.464844 234.921875 477.59375 234.917969 C 477.683594 234.914062 479.820312 234.828125 482.105469 235.546875 C 482.230469 235.585938 482.300781 235.722656 482.261719 235.847656 C 482.230469 235.949219 482.136719 236.015625 482.035156 236.015625 " fill-opacity="1" fill-rule="nonzero"/><path fill="#3f434c" d="M 529.765625 319.378906 C 529.730469 318.628906 529.691406 317.886719 529.652344 317.148438 C 529.339844 310.945312 528.617188 305.027344 527.460938 299.378906 L 507.417969 289.273438 C 507.417969 289.273438 522.363281 311.023438 529.765625 319.378906 " fill-opacity="1" fill-rule="nonzero"/><path fill="#3f434c" d="M 471.320312 235.398438 C 471.199219 235.398438 471.09375 235.308594 471.082031 235.183594 C 471.070312 235.054688 471.164062 234.933594 471.296875 234.921875 L 473.796875 234.660156 C 473.929688 234.648438 474.046875 234.742188 474.058594 234.875 C 474.070312 235.003906 473.976562 235.125 473.847656 235.136719 L 471.34375 235.398438 C 471.335938 235.398438 471.328125 235.398438 471.320312 235.398438 " fill-opacity="1" fill-rule="nonzero"/><path fill="#3f434c" d="M 484.800781 233.203125 C 484.800781 233.203125 482.644531 230.710938 478.160156 230.550781 C 473.679688 230.390625 471.589844 229.746094 471.042969 228.839844 C 470.496094 227.941406 470.28125 222.894531 474.394531 221.503906 C 478.507812 220.117188 481.851562 219.496094 484.503906 220.179688 C 487.15625 220.867188 489.121094 222.804688 489.121094 222.804688 C 489.121094 222.804688 490.941406 223.808594 490.628906 227.128906 C 490.320312 230.449219 488.984375 233.503906 484.800781 233.203125 " fill-opacity="1" fill-rule="nonzero"/><path fill="#ffe7bd" d="M 488.480469 239.539062 C 488.882812 238.867188 489.515625 238.359375 490.273438 238.167969 C 491.09375 237.957031 492.089844 238.082031 492.59375 239.578125 C 493.535156 242.375 488.882812 246.300781 487.683594 244.171875 C 486.84375 242.679688 487.820312 240.632812 488.480469 239.539062 " fill-opacity="1" fill-rule="nonzero"/><path fill="#ffcba1" d="M 488.824219 243.804688 C 488.722656 243.804688 488.628906 243.742188 488.597656 243.640625 C 488.582031 243.597656 488.269531 242.585938 488.90625 242.195312 C 489.210938 242.007812 489.574219 242.054688 489.898438 242.09375 C 490.15625 242.125 490.398438 242.15625 490.484375 242.054688 C 490.75 241.738281 491.15625 240.972656 491.113281 240.261719 C 491.078125 239.695312 490.648438 239.539062 490.628906 239.535156 C 490.507812 239.492188 490.4375 239.359375 490.480469 239.234375 C 490.519531 239.109375 490.652344 239.039062 490.777344 239.078125 C 490.808594 239.089844 491.535156 239.332031 491.589844 240.234375 C 491.640625 241.085938 491.175781 241.976562 490.851562 242.363281 C 490.597656 242.664062 490.195312 242.613281 489.839844 242.570312 C 489.582031 242.535156 489.316406 242.503906 489.15625 242.601562 C 488.890625 242.765625 488.992188 243.316406 489.050781 243.496094 C 489.089844 243.621094 489.019531 243.753906 488.894531 243.796875 C 488.871094 243.804688 488.847656 243.804688 488.824219 243.804688 " fill-opacity="1" fill-rule="nonzero"/><path fill="#ffe7bd" d="M 509.226562 263.058594 C 524.808594 271.65625 561.378906 299.632812 565.71875 313.210938 C 568.945312 323.292969 567.144531 345.332031 565.199219 375.941406 C 565.007812 378.925781 560.15625 378.269531 557.171875 376.703125 C 553.8125 374.941406 552.238281 335.351562 545.703125 323.339844 C 539.085938 311.167969 506.679688 290.109375 504.710938 286.109375 C 499.117188 274.738281 503.0625 259.65625 509.226562 263.058594 " fill-opacity="1" fill-rule="nonzero"/><path fill="#ffe7bd" d="M 446.046875 329.25 C 446.046875 329.25 415.511719 349.300781 406.226562 358.769531 C 400.273438 364.839844 409.878906 366.800781 412.480469 365.914062 C 421.230469 362.933594 453.84375 355.566406 456.703125 344.222656 C 459.976562 331.238281 451.757812 326.816406 446.046875 329.25 " fill-opacity="1" fill-rule="nonzero"/><path fill="#ffe7bd" d="M 406.820312 358.46875 C 406.820312 358.46875 390.128906 366.90625 388.355469 368.671875 C 386.582031 370.433594 386.753906 371.644531 387.210938 371.472656 C 387.667969 371.300781 388.183594 371.488281 388.183594 371.488281 C 388.183594 371.488281 386.523438 373.820312 387.152344 374.394531 C 387.78125 374.964844 387.78125 374.964844 387.78125 374.964844 C 387.78125 374.964844 387.78125 376.570312 389.097656 376.285156 C 390.410156 375.996094 393.273438 373.476562 394.070312 373.476562 C 394.871094 373.476562 391.269531 376.167969 391.5 376.855469 C 391.726562 377.542969 394.472656 376.167969 395.558594 375.136719 C 396.644531 374.109375 398.644531 371.242188 400.589844 370.613281 C 402.535156 369.984375 399.859375 372.902344 400.074219 375.1875 C 400.230469 376.824219 401.617188 377.023438 401.960938 376.394531 C 402.304688 375.761719 405.964844 371.242188 407.277344 370.785156 C 408.59375 370.324219 411.222656 367.863281 412.480469 365.914062 C 413.742188 363.96875 411.339844 357.949219 406.820312 358.46875 " fill-opacity="1" fill-rule="nonzero"/><path fill="#ffcba1" d="M 478.484375 252.167969 C 478.480469 252.167969 478.480469 252.167969 478.480469 252.167969 C 478.347656 252.167969 478.242188 252.0625 478.242188 251.929688 C 478.242188 251.796875 478.347656 251.691406 478.480469 251.691406 C 478.511719 251.691406 481.171875 251.675781 484.546875 250.101562 C 484.667969 250.046875 484.808594 250.097656 484.867188 250.21875 C 484.921875 250.335938 484.871094 250.480469 484.75 250.535156 C 481.292969 252.144531 478.632812 252.167969 478.484375 252.167969 " fill-opacity="1" fill-rule="nonzero"/><path fill="#ffcba1" d="M 473.988281 244.875 C 473.3125 244.875 472.601562 244.742188 471.964844 244.363281 C 471.851562 244.296875 471.8125 244.148438 471.878906 244.035156 C 471.945312 243.921875 472.09375 243.882812 472.207031 243.953125 C 474.085938 245.0625 476.785156 243.722656 476.8125 243.710938 C 476.929688 243.648438 477.074219 243.699219 477.132812 243.8125 C 477.191406 243.933594 477.144531 244.074219 477.027344 244.136719 C 476.945312 244.179688 475.542969 244.875 473.988281 244.875 " fill-opacity="1" fill-rule="nonzero"/><path fill="#d16a47" d="M 545.5625 289.273438 C 533.046875 278.410156 517.832031 267.808594 509.226562 263.058594 C 503.0625 259.65625 499.117188 274.738281 504.710938 286.109375 C 505.988281 288.703125 520.140625 301.109375 531.679688 310.96875 C 535.320312 309.050781 543.363281 300.910156 545.5625 289.273438 " fill-opacity="1" fill-rule="nonzero"/><path fill="#f19d72" d="M 522.144531 271.21875 C 519.207031 273.332031 517.039062 275.210938 517.019531 275.882812 C 516.960938 277.726562 522.242188 275.117188 522.242188 275.117188 C 522.242188 275.117188 513.15625 283.546875 515.117188 283.929688 C 517.078125 284.320312 522.871094 279.785156 522.871094 279.785156 C 522.871094 279.785156 513.375 291.109375 515.898438 291.238281 C 518.425781 291.371094 526.019531 282.335938 526.019531 282.335938 C 526.019531 282.335938 522.066406 288.832031 523.144531 288.925781 C 523.6875 288.972656 528.273438 283.910156 532.699219 278.863281 C 529.09375 276.125 525.511719 273.539062 522.144531 271.21875 " fill-opacity="1" fill-rule="nonzero"/><path fill="#3f434c" d="M 479.390625 290.578125 C 478.070312 292 476.101562 292.316406 474.992188 291.28125 C 473.882812 290.25 474.050781 288.257812 475.367188 286.835938 C 476.6875 285.414062 478.652344 285.097656 479.765625 286.132812 C 480.875 287.164062 480.707031 289.15625 479.390625 290.578125 " fill-opacity="1" fill-rule="nonzero"/><path fill="#e6b78c" d="M 466.226562 281.984375 C 466.226562 281.984375 472.574219 280.898438 473.601562 281.355469 C 474.632812 281.8125 479.261719 284.90625 479.550781 286.339844 C 479.835938 287.773438 474.175781 284.5625 473.71875 284.390625 C 473.261719 284.21875 472.230469 284.449219 471.714844 285.480469 C 471.203125 286.511719 470.859375 287.65625 471.773438 288.34375 C 472.6875 289.03125 474.746094 288.460938 476.121094 290.0625 C 477.492188 291.667969 476.003906 291.988281 474.632812 291.027344 C 473.261719 290.0625 470.34375 290.464844 466.914062 289.777344 C 463.484375 289.089844 460.054688 285.996094 460.96875 284.449219 C 461.882812 282.902344 464.625 281.585938 466.226562 281.984375 " fill-opacity="1" fill-rule="nonzero"/><path fill="#e6b78c" d="M 466.570312 282.5 C 466.570312 282.5 471.578125 280.382812 472.675781 280.324219 C 473.773438 280.269531 477.007812 282.617188 477.90625 283.300781 C 478.804688 283.992188 478.75 287.027344 477.148438 286.683594 C 475.546875 286.339844 475.03125 283.300781 473.832031 283.1875 C 472.632812 283.074219 464.914062 283.875 466.570312 282.5 " fill-opacity="1" fill-rule="nonzero"/><path fill="#e6b78c" d="M 390.609375 202.371094 C 390.609375 202.371094 409.019531 244.125 419.605469 253.648438 C 430.511719 263.460938 471.878906 279.582031 470.566406 286.769531 C 469.257812 293.957031 416.652344 279.152344 406.9375 270.8125 C 387.777344 254.367188 378.199219 226.980469 379.007812 219.898438 C 379.8125 212.820312 390.609375 202.371094 390.609375 202.371094 " fill-opacity="1" fill-rule="nonzero"/><path fill="#93bfa4" d="M 408.417969 237.933594 C 399.460938 222.445312 390.609375 202.371094 390.609375 202.371094 C 390.609375 202.371094 379.8125 212.820312 379.007812 219.898438 C 378.460938 224.691406 380.175781 238.792969 388.898438 252.503906 C 392.617188 250.515625 404.488281 244.996094 408.417969 237.933594 " fill-opacity="1" fill-rule="nonzero"/><path fill="#3f434c" d="M 388.105469 251.226562 L 393.667969 220.476562 L 384.035156 243.332031 C 385.160156 245.921875 386.503906 248.578125 388.105469 251.226562 " fill-opacity="1" fill-rule="nonzero"/><path fill="#e6b78c" d="M 368.957031 504.773438 C 367.527344 504.015625 366.605469 502.582031 366.480469 500.9375 C 366.265625 498.023438 367.558594 492.738281 368.921875 488.035156 C 371.058594 480.667969 353.75 483.929688 353.75 483.929688 L 353.953125 495.722656 C 354.589844 501.054688 353.148438 505.117188 350.757812 508.347656 C 349.414062 510.160156 386.089844 513.125 378.6875 509.75 C 376.539062 508.773438 371.765625 506.261719 368.957031 504.773438 " fill-opacity="1" fill-rule="nonzero"/><path fill="#3f434c" d="M 350.757812 508.347656 C 351.554688 507.269531 352.285156 506.054688 352.839844 504.742188 C 353.367188 504.796875 353.976562 505.042969 354.582031 505.679688 C 356.070312 507.25 366.53125 511.921875 378.6875 509.75 C 385.246094 512.636719 391.601562 515.214844 389.8125 515.695312 C 387.277344 516.367188 359.570312 515.875 352.175781 515.730469 C 350.988281 515.707031 349.988281 514.902344 349.757812 513.746094 C 349.460938 512.257812 349.414062 510.164062 350.757812 508.347656 " fill-opacity="1" fill-rule="nonzero"/><path fill="#e6b78c" d="M 303.003906 504.773438 C 301.574219 504.015625 301.621094 501.65625 301.496094 500.011719 C 301.28125 497.097656 303.609375 490.070312 304.972656 485.367188 C 307.109375 478 290.046875 483.929688 290.046875 483.929688 C 290.046875 483.929688 288.65625 497.394531 286.886719 504.742188 C 286.25 507.371094 285.433594 507.496094 284.800781 508.347656 C 283.457031 510.160156 320.132812 513.125 312.730469 509.75 C 310.582031 508.773438 305.808594 506.261719 303.003906 504.773438 " fill-opacity="1" fill-rule="nonzero"/><path fill="#3f434c" d="M 284.800781 508.347656 C 285.601562 507.269531 286.328125 506.054688 286.886719 504.742188 C 287.410156 504.796875 288.023438 505.042969 288.625 505.679688 C 290.113281 507.25 300.574219 511.921875 312.730469 509.75 C 319.292969 512.636719 325.648438 515.214844 323.855469 515.695312 C 321.320312 516.367188 293.613281 515.875 286.222656 515.730469 C 285.035156 515.707031 284.035156 514.902344 283.800781 513.746094 C 283.503906 512.257812 283.457031 510.164062 284.800781 508.347656 " fill-opacity="1" fill-rule="nonzero"/><path fill="#93bfa4" d="M 382.933594 313.847656 C 382.667969 282.40625 381.628906 260.300781 381.628906 260.300781 C 379.730469 256.101562 375.816406 267.414062 350.523438 266.441406 C 321.398438 265.320312 326.113281 247.828125 321.550781 254.289062 C 313.308594 265.976562 304.265625 277.957031 300.765625 292.40625 C 299.667969 296.9375 298.65625 310.800781 298.023438 320.191406 C 297.542969 327.339844 288.554688 495.644531 288.554688 495.644531 L 306.25 495.644531 L 345.96875 333.902344 C 346.492188 343.886719 350.070312 405.261719 349.222656 417.699219 C 348.679688 425.609375 351.890625 495.546875 351.890625 495.546875 C 351.890625 495.546875 369.132812 497.625 369.851562 495.285156 C 384.664062 446.996094 383.03125 325.457031 382.933594 313.847656 " fill-opacity="1" fill-rule="nonzero"/><path fill="#3f434c" d="M 318.726562 258.285156 C 316.082031 262.011719 313.433594 265.796875 310.976562 269.707031 C 314.917969 272.644531 327.417969 278.992188 352.328125 282.949219 C 367.023438 285.285156 376.089844 285.558594 382.464844 285.464844 C 382.328125 279.855469 382.179688 275.019531 382.046875 271.128906 C 372.804688 270.886719 355.113281 269.84375 340.933594 265.566406 C 329.902344 262.238281 322.855469 259.804688 318.726562 258.285156 " fill-opacity="1" fill-rule="nonzero"/><path fill="#93bfa4" d="M 382.796875 283.34375 C 381.84375 273.980469 382.464844 253.289062 388.65625 235.605469 C 391.621094 227.140625 394.042969 221.703125 394.414062 215.292969 C 394.546875 213.042969 393.683594 205.007812 389.839844 199.363281 C 385.96875 193.675781 380.75 189.824219 370.875 187.746094 C 360.597656 185.582031 352.515625 187.410156 347.738281 193.285156 C 341.652344 200.78125 333.867188 233.921875 320.3125 255.257812 C 318.945312 257.40625 315.042969 263.378906 313.28125 265.390625 C 321.339844 270.429688 351.757812 282.726562 382.796875 283.34375 " fill-opacity="1" fill-rule="nonzero"/><path fill="#3f434c" d="M 378.753906 203.5 C 378.585938 203.5 378.417969 203.421875 378.304688 203.277344 C 378.109375 203.027344 378.152344 202.667969 378.402344 202.476562 C 378.464844 202.425781 383.355469 198.519531 383.957031 192.386719 C 384.34375 188.492188 384.433594 186.382812 384.4375 186.363281 C 384.449219 186.046875 384.71875 185.800781 385.03125 185.816406 C 385.347656 185.828125 385.59375 186.097656 385.578125 186.414062 C 385.578125 186.433594 385.484375 188.570312 385.097656 192.5 C 384.441406 199.140625 379.324219 203.207031 379.105469 203.378906 C 379 203.460938 378.878906 203.5 378.753906 203.5 " fill-opacity="1" fill-rule="nonzero"/><path fill="#3f434c" d="M 372.949219 169.085938 C 372.949219 169.085938 368.175781 174.078125 366.117188 177.648438 C 364.058594 181.21875 365.796875 184.546875 368.429688 184.984375 C 371.066406 185.417969 376.519531 181.824219 377.128906 177.9375 C 377.738281 174.046875 376.417969 169.601562 372.949219 169.085938 " fill-opacity="1" fill-rule="nonzero"/><g clip-path="url(#b6be055147)"><path fill="#3f434c" d="M 396.546875 172.214844 C 396.546875 172.214844 399.664062 168.519531 394.933594 162.488281 C 392.757812 159.714844 390.472656 159.402344 390.472656 159.402344 C 390.472656 159.402344 386.601562 156.140625 382.746094 156.480469 C 376.386719 157.039062 370.394531 167.398438 371.675781 174.164062 C 372.953125 180.929688 380.214844 181.421875 382.589844 180.355469 C 384.964844 179.292969 394.972656 175.96875 396.546875 172.214844 " fill-opacity="1" fill-rule="nonzero"/></g><path fill="#e6b78c" d="M 375.558594 175.496094 C 375.558594 175.496094 374.371094 179.136719 372.816406 182.253906 C 371.257812 185.375 369.332031 187.972656 369.492188 188.582031 C 369.785156 189.71875 377.714844 194.476562 378.242188 192.84375 C 379.28125 189.609375 382.527344 181.726562 382.527344 181.726562 L 375.558594 175.496094 " fill-opacity="1" fill-rule="nonzero"/><path fill="#e6b78c" d="M 387.921875 164.5625 C 384.359375 163.234375 380.355469 164.570312 378.285156 167.765625 C 375.210938 172.511719 374.070312 175.296875 374.914062 179.050781 C 375.792969 182.972656 379.335938 187.863281 382.609375 188.796875 C 384.988281 189.472656 388.605469 188.792969 390.503906 185.503906 C 391.765625 183.316406 392.109375 181.753906 392.597656 180.800781 C 393.820312 178.40625 398.722656 170.230469 394.328125 167.632812 C 392.453125 166.523438 390.132812 165.386719 387.921875 164.5625 " fill-opacity="1" fill-rule="nonzero"/><path fill="#3f434c" d="M 380.339844 169.53125 L 376.308594 172.378906 C 376.308594 172.378906 375.777344 169.441406 376.933594 167.503906 C 378.09375 165.5625 380.136719 163.640625 381.277344 164.871094 C 382.417969 166.101562 381.800781 168.761719 380.339844 169.53125 " fill-opacity="1" fill-rule="nonzero"/><path fill="#ffffff" d="M 384.824219 181.765625 C 384.824219 181.765625 387.292969 183.210938 388.898438 184.3125 C 388.898438 184.3125 387.949219 185.914062 386.355469 184.929688 C 384.847656 183.992188 384.824219 181.765625 384.824219 181.765625 " fill-opacity="1" fill-rule="nonzero"/><path fill="#3f434c" d="M 386.265625 176.5 C 386.265625 176.5 386.554688 177.40625 385.554688 177.9375 C 384.558594 178.464844 383.765625 177.078125 383.90625 176.546875 C 384.050781 176.015625 384.695312 175.828125 384.695312 175.828125 C 384.695312 175.828125 385.425781 175.625 386.265625 176.5 " fill-opacity="1" fill-rule="nonzero"/><path fill="#3f434c" d="M 391.949219 179.585938 C 391.949219 179.585938 392.078125 180.371094 391.179688 180.980469 C 390.285156 181.585938 389.804688 180.429688 389.988281 179.929688 C 390.175781 179.429688 390.734375 179.179688 390.734375 179.179688 C 390.734375 179.179688 391.363281 178.902344 391.949219 179.585938 " fill-opacity="1" fill-rule="nonzero"/><path fill="#3f434c" d="M 386.527344 177.480469 C 386.503906 177.480469 386.480469 177.476562 386.460938 177.472656 C 386.332031 177.433594 386.261719 177.300781 386.296875 177.175781 C 386.300781 177.164062 386.382812 176.777344 385.785156 176.429688 C 385.0625 176.007812 383.476562 175.914062 383.460938 175.914062 C 383.328125 175.90625 383.230469 175.792969 383.234375 175.660156 C 383.242188 175.527344 383.355469 175.425781 383.488281 175.433594 C 383.558594 175.4375 385.203125 175.535156 386.023438 176.015625 C 386.960938 176.5625 386.765625 177.277344 386.753906 177.308594 C 386.726562 177.414062 386.628906 177.480469 386.527344 177.480469 " fill-opacity="1" fill-rule="nonzero"/><path fill="#3f434c" d="M 392.136719 180.09375 C 392.03125 180.09375 391.9375 180.023438 391.90625 179.921875 C 391.664062 179.125 390.691406 179.285156 390.648438 179.292969 C 390.519531 179.316406 390.394531 179.230469 390.371094 179.101562 C 390.347656 178.972656 390.4375 178.847656 390.5625 178.824219 C 391.058594 178.734375 392.070312 178.820312 392.363281 179.785156 C 392.402344 179.910156 392.332031 180.042969 392.203125 180.082031 C 392.183594 180.089844 392.160156 180.09375 392.136719 180.09375 " fill-opacity="1" fill-rule="nonzero"/><path fill="#c99163" d="M 388.550781 178.433594 C 388.667969 178.273438 388.871094 178.320312 388.890625 178.507812 C 388.9375 179.03125 389.085938 179.910156 389.542969 180.859375 C 390.214844 182.25 389.683594 183.121094 388.324219 182.207031 C 386.964844 181.289062 386.910156 181.089844 387.371094 180.191406 C 387.617188 179.710938 388.191406 178.917969 388.550781 178.433594 " fill-opacity="1" fill-rule="nonzero"/><path fill="#3f434c" d="M 388.097656 174.707031 C 388.0625 174.707031 388.027344 174.695312 387.992188 174.679688 C 387.972656 174.671875 386.140625 173.757812 384.570312 173.648438 C 384.4375 173.636719 384.339844 173.523438 384.347656 173.390625 C 384.359375 173.257812 384.472656 173.160156 384.605469 173.167969 C 386.269531 173.285156 388.128906 174.210938 388.203125 174.25 C 388.324219 174.3125 388.371094 174.457031 388.3125 174.574219 C 388.269531 174.65625 388.183594 174.707031 388.097656 174.707031 " fill-opacity="1" fill-rule="nonzero"/><path fill="#3f434c" d="M 393.375 178.992188 C 393.277344 178.992188 393.1875 178.933594 393.152344 178.835938 C 392.929688 178.265625 392.5625 177.628906 392.058594 176.945312 C 391.980469 176.835938 392 176.6875 392.109375 176.609375 C 392.214844 176.53125 392.363281 176.554688 392.441406 176.660156 C 392.972656 177.378906 393.363281 178.054688 393.597656 178.667969 C 393.644531 178.789062 393.582031 178.925781 393.460938 178.976562 C 393.433594 178.984375 393.402344 178.992188 393.375 178.992188 " fill-opacity="1" fill-rule="nonzero"/><path fill="#3f434c" d="M 364.925781 189.015625 C 364.925781 189.015625 363.054688 191.925781 362.96875 193.625 C 362.882812 195.324219 364.242188 198.339844 364.242188 198.339844 C 364.242188 198.339844 363.148438 200.59375 363.417969 202.640625 C 363.683594 204.6875 363.285156 209.980469 363.285156 209.980469 C 363.285156 209.980469 365.851562 209.359375 367.234375 206.503906 C 368.621094 203.652344 366.976562 198.714844 366.976562 198.714844 C 366.976562 198.714844 372.84375 186.894531 364.925781 189.015625 " fill-opacity="1" fill-rule="nonzero"/><path fill="#c99163" d="M 378.753906 186.347656 C 378.6875 186.347656 378.621094 186.316406 378.574219 186.261719 C 378.503906 186.179688 376.890625 184.269531 376.375 183.246094 C 376.316406 183.128906 376.359375 182.984375 376.480469 182.925781 C 376.597656 182.863281 376.742188 182.910156 376.800781 183.027344 C 377.292969 184.003906 378.921875 185.933594 378.9375 185.953125 C 379.023438 186.054688 379.011719 186.203125 378.910156 186.289062 C 378.863281 186.328125 378.808594 186.347656 378.753906 186.347656 " fill-opacity="1" fill-rule="nonzero"/><path fill="#e6b78c" d="M 378.289062 171.640625 C 378.394531 170.796875 378.230469 170.007812 377.78125 169.484375 C 377.292969 168.917969 376.46875 168.597656 375.171875 169.867188 C 372.75 172.230469 373.835938 178.191406 376.042969 176.601562 C 377.589844 175.488281 378.113281 173.019531 378.289062 171.640625 " fill-opacity="1" fill-rule="nonzero"/><path fill="#c99163" d="M 375.558594 175.734375 C 375.496094 175.734375 375.433594 175.710938 375.386719 175.664062 C 375.296875 175.574219 375.296875 175.421875 375.386719 175.328125 C 375.59375 175.117188 375.992188 174.597656 375.894531 174.320312 C 375.847656 174.191406 375.6875 174.121094 375.445312 174.03125 C 375.160156 173.921875 374.773438 173.773438 374.765625 173.332031 C 374.761719 172.816406 374.949219 171.75 375.496094 170.945312 C 376.066406 170.105469 376.761719 170.1875 376.789062 170.191406 C 376.917969 170.210938 377.011719 170.328125 376.992188 170.460938 C 376.976562 170.589844 376.859375 170.683594 376.730469 170.667969 C 376.703125 170.664062 376.285156 170.636719 375.890625 171.214844 C 375.410156 171.921875 375.238281 172.886719 375.246094 173.328125 C 375.246094 173.425781 375.335938 173.476562 375.617188 173.582031 C 375.882812 173.6875 376.21875 173.8125 376.34375 174.160156 C 376.570312 174.796875 375.8125 175.578125 375.726562 175.664062 C 375.679688 175.710938 375.617188 175.734375 375.558594 175.734375 " fill-opacity="1" fill-rule="nonzero"/><path fill="#3f434c" d="M 323.6875 267.835938 C 328.03125 271.960938 334.78125 273.105469 339.925781 272.53125 C 345.074219 271.960938 356.738281 265.542969 363.941406 252.503906 C 371.144531 239.460938 374.644531 228.085938 374.644531 228.085938 C 374.644531 228.085938 347.472656 251.792969 337.980469 254.429688 C 328.492188 257.066406 325.621094 245.816406 325.621094 245.816406 L 325.617188 245.816406 C 323.953125 249.125 322.1875 252.304688 320.3125 255.257812 C 319.960938 255.8125 319.433594 256.628906 318.820312 257.5625 C 319.546875 260.707031 321.011719 265.292969 323.6875 267.835938 " fill-opacity="1" fill-rule="nonzero"/><path fill="#3f434c" d="M 392.527344 170.617188 C 392.527344 170.617188 394.398438 175.359375 394.734375 177.265625 C 394.734375 177.265625 398.917969 172.554688 397.6875 169.863281 C 396.460938 167.175781 392.777344 166.078125 392.777344 166.078125 C 392.777344 166.078125 391.871094 168.878906 392.527344 170.617188 " fill-opacity="1" fill-rule="nonzero"/><path fill="#3f434c" d="M 393.191406 170.003906 C 393.191406 170.003906 390.660156 170.957031 388.664062 171.03125 C 386.671875 171.105469 381.882812 171.976562 380.121094 173.320312 C 378.359375 174.664062 378 175.46875 378 175.46875 C 378 175.46875 377.65625 171.414062 378.320312 168.832031 C 378.988281 166.25 380.921875 162.265625 384.613281 161.984375 C 388.300781 161.707031 392.21875 163.78125 393.109375 165.976562 C 394 168.175781 393.191406 170.003906 393.191406 170.003906 " fill-opacity="1" fill-rule="nonzero"/><path fill="#3f434c" d="M 365.976562 180.09375 C 365.976562 180.09375 364.261719 182.753906 363.507812 185.746094 C 362.683594 189.019531 363.996094 193.894531 366.820312 193.222656 C 369.644531 192.550781 373.25 183.425781 371.234375 181.484375 C 369.660156 179.972656 367.046875 178.6875 365.976562 180.09375 " fill-opacity="1" fill-rule="nonzero"/><path fill="#3f434c" d="M 475.941406 289.304688 C 475.90625 289.304688 475.875 289.300781 475.839844 289.296875 C 475.742188 289.28125 465.867188 287.585938 454.257812 283.96875 C 438.632812 279.097656 427.476562 273.257812 421.101562 266.605469 C 409.207031 254.199219 393.117188 235.789062 384.007812 218.554688 C 378.519531 208.171875 378.171875 203.167969 378.160156 202.960938 C 378.140625 202.628906 378.390625 202.347656 378.71875 202.328125 C 379.046875 202.3125 379.332031 202.558594 379.351562 202.890625 C 379.355469 202.9375 379.726562 207.9375 385.144531 218.148438 C 394.207031 235.222656 410.167969 253.472656 421.960938 265.777344 C 429.726562 273.878906 444.003906 279.519531 454.613281 282.828125 C 466.144531 286.417969 475.941406 288.101562 476.039062 288.117188 C 476.363281 288.171875 476.585938 288.480469 476.527344 288.804688 C 476.480469 289.097656 476.226562 289.304688 475.941406 289.304688 " fill-opacity="1" fill-rule="nonzero"/><path fill="#fcf8eb" d="M 374.738281 183.242188 L 377.144531 173.09375 C 377.214844 172.785156 377.027344 172.476562 376.71875 172.402344 C 376.410156 172.332031 376.105469 172.523438 376.03125 172.828125 L 373.617188 183.003906 L 373.609375 183.054688 C 373.574219 183.277344 373.3125 185.175781 373.230469 187.746094 L 374.386719 187.746094 C 374.464844 185.296875 374.707031 183.476562 374.738281 183.242188 " fill-opacity="1" fill-rule="nonzero"/><path fill="#3f434c" d="M 379.015625 202.417969 C 374.75 200.230469 374.234375 192.699219 374.386719 187.746094 L 373.230469 187.746094 C 373.066406 192.960938 373.660156 200.957031 378.496094 203.4375 C 378.578125 203.480469 378.667969 203.5 378.753906 203.5 C 378.960938 203.5 379.164062 203.386719 379.265625 203.1875 C 379.40625 202.90625 379.296875 202.558594 379.015625 202.417969 " fill-opacity="1" fill-rule="nonzero"/><path fill="#e6b78c" d="M 346.71875 194.789062 C 339.128906 202.386719 329.554688 220.074219 324.71875 237.28125 C 321.066406 250.273438 316.984375 261.027344 327.765625 267.683594 C 338.242188 274.148438 351.914062 264.90625 362.964844 248.738281 C 372.136719 235.324219 380.304688 218.199219 378.183594 212.378906 C 376.128906 206.734375 370.382812 213.695312 363.265625 221.316406 C 354.191406 231.027344 344.082031 240.03125 344.082031 240.03125 C 344.082031 240.03125 364.484375 203.671875 361.460938 197.558594 C 358.441406 191.449219 350.71875 190.789062 346.71875 194.789062 " fill-opacity="1" fill-rule="nonzero"/><path fill="#e6b78c" d="M 374.019531 212.472656 C 373.707031 211.519531 373.734375 210.484375 374.03125 209.527344 C 374.640625 207.566406 376.113281 203.132812 377.027344 203.082031 C 378.199219 203.019531 378.457031 203.867188 378.457031 203.867188 C 378.457031 203.867188 383.21875 201.523438 383.671875 202.699219 C 384.125 203.875 383.476562 204.296875 384.257812 204.9375 C 385.035156 205.574219 383.796875 206.683594 384.253906 207.335938 C 384.707031 207.988281 385.328125 208.710938 384.953125 209.230469 C 384.574219 209.753906 380.074219 215.035156 378.117188 215.292969 C 376.589844 215.496094 374.707031 214.566406 374.019531 212.472656 " fill-opacity="1" fill-rule="nonzero"/><path fill="#93bfa4" d="M 350.5625 232.621094 C 356.457031 220.546875 363.390625 201.460938 361.460938 197.558594 C 358.441406 191.449219 350.671875 190.125 346.671875 194.125 C 340.972656 199.828125 333.695312 211.613281 328.605469 224.21875 C 332.65625 226.453125 343 232.792969 350.5625 232.621094 " fill-opacity="1" fill-rule="nonzero"/><path fill="#3f434c" d="M 305.734375 308.535156 C 305.425781 308.535156 305.167969 308.300781 305.140625 307.988281 C 305.113281 307.65625 305.355469 307.371094 305.6875 307.34375 C 319.128906 306.238281 323.898438 295.882812 323.941406 295.777344 C 324.078125 295.476562 324.433594 295.339844 324.730469 295.476562 C 325.03125 295.609375 325.167969 295.964844 325.035156 296.265625 C 324.980469 296.378906 323.75 299.097656 320.757812 301.980469 C 318 304.636719 313.164062 307.929688 305.785156 308.535156 C 305.765625 308.535156 305.75 308.535156 305.734375 308.535156 " fill-opacity="1" fill-rule="nonzero"/><path fill="#3f434c" d="M 355.058594 334.734375 L 337.828125 334.734375 C 337.5 334.734375 337.234375 334.46875 337.234375 334.140625 C 337.234375 333.808594 337.5 333.539062 337.828125 333.539062 L 355.058594 333.539062 C 355.390625 333.539062 355.65625 333.808594 355.65625 334.140625 C 355.65625 334.46875 355.390625 334.734375 355.058594 334.734375 " fill-opacity="1" fill-rule="nonzero"/><path fill="#ffe7bd" d="M 563.425781 375.484375 C 563.425781 375.484375 570.984375 376.019531 572.152344 377.695312 C 573.320312 379.367188 572.785156 388.210938 571.714844 388.277344 C 570.644531 388.34375 570.414062 387.128906 570.414062 387.128906 C 570.414062 387.128906 570.242188 389.816406 569.242188 390.152344 C 568.238281 390.488281 568.117188 390.152344 568.117188 390.152344 C 568.117188 390.152344 567.101562 390.179688 566.699219 390.300781 C 566.300781 390.417969 564.363281 383.921875 564.363281 383.921875 C 564.363281 383.921875 564.226562 388.679688 563.425781 389.011719 C 562.625 389.347656 561.621094 382.890625 561.621094 382.890625 C 561.621094 382.890625 554.402344 381.765625 555.671875 375.214844 C 556.34375 371.75 558.8125 372.804688 563.425781 375.484375 " fill-opacity="1" fill-rule="nonzero"/><path fill="#3f434c" d="M 533.367188 310.457031 C 533.195312 310.457031 533.023438 310.382812 532.90625 310.238281 C 532.699219 309.984375 532.734375 309.609375 532.988281 309.398438 C 543.308594 300.902344 544.953125 289.308594 544.96875 289.195312 C 545.011719 288.867188 545.3125 288.636719 545.640625 288.679688 C 545.964844 288.722656 546.195312 289.023438 546.152344 289.351562 C 546.085938 289.84375 544.445312 301.515625 533.746094 310.320312 C 533.632812 310.414062 533.5 310.457031 533.367188 310.457031 " fill-opacity="1" fill-rule="nonzero"/><g clip-path="url(#788fccb912)"><g clip-path="url(#715bb12b43)"><g clip-path="url(#40a45499f5)"><g clip-path="url(#f122e28db9)"><path fill="#ffcf5c" d="M 58.085938 156.8125 C 33.6875 162.542969 -18.15625 105.09375 -10.179688 44.609375 C -3.257812 -7.488281 44.058594 -32.164062 46.144531 -33.226562 C 93.046875 -56.714844 137.636719 -33.839844 146.589844 -29.25 C 175.355469 -14.511719 198.921875 13.054688 193.859375 21.59375 C 188.023438 31.519531 151.265625 3.246094 120.109375 16.390625 C 68.574219 38.207031 89.53125 149.425781 58.085938 156.8125 Z M 58.085938 156.8125 " fill-opacity="1" fill-rule="nonzero"/></g></g></g></g><g clip-path="url(#e2eb052ae6)"><g clip-path="url(#9466a0e597)"><g clip-path="url(#2aa47013b3)"><g clip-path="url(#2decd158ef)"><path fill="#ff6e5c" d="M 142.707031 136.394531 C 135.953125 141.269531 123.972656 141.976562 109.5 138.257812 C 79.628906 130.605469 43.203125 105.773438 29.101562 67.507812 C 21.535156 47 21.316406 24.113281 28.457031 1.3125 C 34.128906 -16.75 42.375 -28.347656 42.710938 -28.84375 C 62.640625 -56.679688 95.1875 -72.289062 134.402344 -72.773438 C 161.917969 -73.128906 189.625 -63.726562 198.285156 -54.796875 C 200.335938 -52.660156 201.355469 -50.539062 201.246094 -48.492188 C 200.96875 -42.640625 192.628906 -41.195312 181.054688 -39.132812 C 166.066406 -36.445312 145.542969 -32.8125 133.339844 -17.914062 C 114.054688 5.714844 126.894531 43.113281 138.242188 76.066406 C 147.347656 102.574219 155.230469 125.453125 143.785156 135.425781 C 143.5 135.824219 143.125 136.09375 142.707031 136.394531 Z M 66.976562 -49.523438 C 58.46875 -43.386719 51.039062 -35.933594 44.867188 -27.351562 C 44.527344 -26.855469 36.558594 -15.578125 30.984375 2.09375 C 23.847656 24.632812 24.109375 46.347656 31.566406 66.617188 C 45.363281 104.023438 81 128.28125 110.160156 135.75 C 124.636719 139.464844 136.269531 138.628906 142.132812 133.574219 C 152.25 124.75 144.652344 102.613281 135.808594 76.996094 C 124.234375 43.378906 111.140625 5.277344 131.339844 -19.453125 C 144.144531 -35.105469 165.203125 -38.867188 180.605469 -41.601562 C 190.617188 -43.363281 198.515625 -44.808594 198.675781 -48.542969 C 198.769531 -49.816406 197.984375 -51.34375 196.398438 -52.929688 C 188.316406 -61.320312 160.890625 -70.421875 134.417969 -70.117188 C 108.359375 -69.855469 85.199219 -62.671875 66.976562 -49.523438 Z M 66.976562 -49.523438 " fill-opacity="1" fill-rule="nonzero"/></g></g></g></g><path fill="#ff6e5c" d="M 41.257812 421.964844 C 83.035156 372.941406 177.652344 458.535156 99.273438 503.722656 C 51.773438 532.261719 4.273438 468.046875 37.523438 427.613281 L 41.257812 421.964844 " fill-opacity="1" fill-rule="nonzero"/><g clip-path="url(#01bb551dff)"><path fill="#253864" d="M 189.664062 548.527344 C 179.125 564.273438 148.574219 542.492188 169.933594 526.617188 C 182.839844 516.664062 198.902344 533.800781 190.5625 546.746094 L 189.664062 548.527344 " fill-opacity="1" fill-rule="nonzero"/></g><g clip-path="url(#4c967137c6)"><path fill="#253864" d="M 98.25 420.097656 C 96.746094 410.023438 98.753906 399.90625 104.492188 391.441406 C 109.949219 383.394531 118.210938 377.574219 127.113281 373.917969 C 144.777344 366.664062 167.671875 367.289062 182.449219 380.523438 C 190.398438 387.644531 194.519531 397.753906 195.601562 408.230469 C 196.324219 415.210938 195.707031 422.28125 194.4375 429.15625 C 193.140625 436.191406 190.800781 442.84375 186.691406 448.742188 C 171.539062 470.484375 139.382812 471.414062 118.992188 456.933594 C 112.816406 452.546875 107.757812 446.632812 104.355469 439.855469 C 101.242188 433.644531 100.113281 426.738281 98.25 420.097656 C 98.089844 419.535156 96.628906 419.910156 96.785156 420.464844 C 98.324219 425.941406 99.308594 431.640625 101.414062 436.929688 C 103.78125 442.878906 107.433594 448.257812 111.972656 452.75 C 120.710938 461.402344 132.667969 466.359375 144.824219 467.425781 C 156.722656 468.46875 169.101562 465.535156 178.765625 458.378906 C 189.949219 450.09375 194.898438 437.488281 196.695312 424.066406 C 198.257812 412.402344 197.359375 400.058594 191.535156 389.625 C 186.894531 381.308594 179.226562 375.269531 170.417969 371.867188 C 152.554688 364.96875 130.671875 368.570312 115.125 379.402344 C 108.851562 383.769531 103.539062 389.550781 100.167969 396.445312 C 96.519531 403.902344 95.566406 412.300781 96.785156 420.464844 C 96.867188 421.019531 98.339844 420.691406 98.25 420.097656 " fill-opacity="1" fill-rule="nonzero"/></g><path fill="#253864" d="M 101.695312 408.917969 C 102.628906 398.53125 107.347656 389.144531 115.496094 382.582031 C 123.300781 376.296875 133.367188 373.25 143.257812 372.628906 C 162.832031 371.402344 184.925781 380.429688 191.796875 400.132812 C 195.917969 411.957031 193.421875 424.890625 188.8125 436.175781 C 185.925781 443.257812 182.09375 449.769531 176.328125 454.882812 C 171.332031 459.3125 165.171875 462.21875 158.660156 463.59375 C 145.75 466.316406 131.925781 462.601562 121.253906 455.105469 C 109.976562 447.1875 102.699219 434.640625 101.878906 420.839844 C 101.640625 416.851562 101.839844 412.804688 101.695312 408.800781 C 101.675781 408.269531 100.207031 408.5625 100.230469 409.167969 C 100.441406 415.023438 100.039062 420.933594 101.058594 426.722656 C 102.210938 433.269531 104.972656 439.460938 108.851562 444.832031 C 116.386719 455.261719 128.292969 462.242188 140.851562 464.550781 C 153.132812 466.804688 166.0625 464.234375 175.972656 456.476562 C 181.59375 452.078125 185.808594 446.113281 188.722656 439.636719 C 191.601562 433.234375 193.898438 426.59375 194.882812 419.617188 C 196.359375 409.152344 194.355469 398.421875 188.019531 389.835938 C 182.265625 382.050781 173.574219 376.90625 164.425781 374.128906 C 146.171875 368.585938 123.265625 371.855469 109.914062 386.382812 C 104.179688 392.621094 100.984375 400.65625 100.230469 409.054688 C 100.171875 409.703125 101.648438 409.457031 101.695312 408.917969 " fill-opacity="1" fill-rule="nonzero"/><path fill="#253864" d="M 122.761719 418.117188 C 121.226562 407.484375 127.316406 398.429688 136.8125 394.066406 C 145.625 390.019531 156.917969 389.988281 164.960938 395.816406 C 175.078125 403.152344 175.484375 418.558594 171.160156 429.230469 C 165.882812 442.257812 150.195312 445.871094 138.171875 440.402344 C 133.714844 438.375 129.929688 435.085938 127.273438 430.976562 C 124.730469 427.050781 123.988281 422.539062 122.761719 418.117188 C 122.605469 417.550781 121.140625 417.929688 121.296875 418.484375 C 122.027344 421.117188 122.519531 423.84375 123.414062 426.421875 C 124.457031 429.4375 126.136719 432.21875 128.222656 434.621094 C 132.222656 439.230469 137.917969 442.167969 143.855469 443.328125 C 155.890625 445.671875 168.410156 440.042969 172.933594 428.3125 C 177.011719 417.753906 176.203125 403.226562 166.886719 395.679688 C 159.472656 389.675781 148.789062 389.1875 139.988281 391.945312 C 128.289062 395.609375 119.460938 405.742188 121.296875 418.484375 C 121.375 419.039062 122.847656 418.707031 122.761719 418.117188 " fill-opacity="1" fill-rule="nonzero"/><path fill="#253864" d="M 126.664062 412.546875 C 127.703125 401.332031 137.472656 394.917969 148.160156 394.949219 C 158.355469 394.976562 168.621094 400.917969 170.328125 411.597656 C 171.375 418.152344 169.054688 425.570312 165.550781 431.058594 C 161.71875 437.070312 155.015625 440.058594 148.011719 439.535156 C 141.410156 439.042969 135.164062 435.484375 131.128906 430.28125 C 129.070312 427.625 127.738281 424.488281 127.09375 421.199219 C 126.53125 418.332031 126.769531 415.34375 126.664062 412.433594 C 126.644531 411.902344 125.175781 412.191406 125.199219 412.800781 C 125.304688 415.730469 125.117188 418.671875 125.628906 421.570312 C 126.199219 424.816406 127.613281 427.871094 129.535156 430.535156 C 133.246094 435.6875 139.183594 439.078125 145.382812 440.160156 C 151.253906 441.1875 157.621094 439.929688 162.34375 436.179688 C 167.789062 431.855469 170.773438 424.703125 171.777344 417.949219 C 172.546875 412.746094 171.566406 407.414062 168.472656 403.113281 C 165.683594 399.230469 161.378906 396.683594 156.882812 395.289062 C 147.890625 392.5 136.65625 394.234375 130.0625 401.332031 C 127.167969 404.445312 125.585938 408.480469 125.199219 412.683594 C 125.136719 413.332031 126.617188 413.085938 126.664062 412.546875 " fill-opacity="1" fill-rule="nonzero"/><path fill="#253864" d="M 109.394531 397.957031 C 113.421875 387.03125 122.066406 379.09375 133.308594 376.109375 C 144.09375 373.246094 155.902344 374.917969 166.023438 379.351562 C 175.9375 383.695312 184.828125 391.210938 189.207031 401.285156 C 194.257812 412.921875 191.566406 425.679688 185.414062 436.320312 C 181.246094 443.519531 175.730469 450.449219 168.730469 455.039062 C 162.382812 459.199219 154.835938 461.042969 147.292969 460.621094 C 132.703125 459.808594 119.207031 450.640625 111.734375 438.296875 C 107.816406 431.816406 105.726562 424.28125 105.777344 416.707031 C 105.816406 410.261719 107.960938 404.171875 109.394531 397.957031 C 109.53125 397.347656 108.050781 397.554688 107.925781 398.09375 C 106.488281 404.332031 104.425781 410.382812 104.308594 416.84375 C 104.179688 424.027344 106.113281 431.066406 109.515625 437.359375 C 116.207031 449.742188 128.9375 458.820312 142.808594 461.074219 C 149.503906 462.164062 156.375 461.480469 162.722656 459.085938 C 170.03125 456.332031 175.8125 451.207031 180.671875 445.210938 C 188.890625 435.070312 195.023438 422.214844 192.976562 408.875 C 189.59375 386.839844 165.566406 373.914062 144.988281 373.832031 C 137.273438 373.800781 129.523438 375.589844 122.863281 379.558594 C 115.8125 383.765625 110.75 390.4375 107.925781 398.09375 C 107.726562 398.640625 109.199219 398.480469 109.394531 397.957031 " fill-opacity="1" fill-rule="nonzero"/><path fill="#253864" d="M 132.949219 418.105469 C 131.625 406.980469 143.5 399.789062 153.503906 401.621094 C 158.554688 402.546875 162.371094 406.046875 163.632812 411.035156 C 165.277344 417.578125 163.261719 426.042969 157.722656 430.15625 C 153.003906 433.660156 146.40625 433.734375 141.269531 431.15625 C 138.742188 429.886719 136.683594 427.878906 135.253906 425.453125 C 133.929688 423.203125 133.589844 420.59375 132.949219 418.105469 C 132.800781 417.539062 131.335938 417.910156 131.480469 418.472656 C 132.183594 421.203125 132.636719 423.886719 134.089844 426.351562 C 135.625 428.953125 138.066406 430.925781 140.765625 432.207031 C 146.003906 434.691406 152.382812 434.320312 157.394531 431.484375 C 167.011719 426.042969 169.25 408.300781 158.949219 402.414062 C 147.84375 396.070312 129.859375 404.828125 131.480469 418.472656 C 131.546875 419.023438 133.019531 418.703125 132.949219 418.105469 " fill-opacity="1" fill-rule="nonzero"/><path fill="#253864" d="M 129.613281 413.117188 C 130.703125 401.628906 142.273438 396.566406 152.644531 398.515625 C 157.539062 399.4375 162.175781 401.972656 165.027344 406.136719 C 168.457031 411.136719 168 417.488281 166.121094 422.972656 C 164.375 428.082031 161.394531 432.667969 156.34375 434.945312 C 151.992188 436.90625 146.953125 436.570312 142.558594 434.964844 C 138.109375 433.339844 134.3125 430.089844 131.957031 425.992188 C 129.605469 421.902344 129.777344 417.539062 129.613281 413.003906 C 129.59375 412.472656 128.125 412.761719 128.148438 413.371094 C 128.257812 416.414062 128.078125 419.40625 128.867188 422.382812 C 129.6875 425.5 131.441406 428.320312 133.65625 430.632812 C 137.929688 435.085938 144.175781 437.398438 150.292969 437.164062 C 156.75 436.921875 162.394531 433.234375 165.511719 427.632812 C 168.464844 422.328125 170.121094 415.597656 168.339844 409.648438 C 165.640625 400.609375 155.511719 396.777344 146.859375 397.238281 C 137.632812 397.730469 129.066406 403.554688 128.148438 413.253906 C 128.085938 413.902344 129.5625 413.65625 129.613281 413.117188 " fill-opacity="1" fill-rule="nonzero"/><path fill="#253864" d="M 137.871094 411.914062 C 142.339844 400.191406 161.996094 405.90625 161.09375 417.816406 C 160.832031 421.328125 158.703125 424.636719 156.320312 427.105469 C 153.308594 430.238281 148.902344 430.796875 144.976562 429.226562 C 141.566406 427.863281 138.851562 424.980469 137.535156 421.574219 C 136.257812 418.257812 137.113281 415.199219 137.871094 411.914062 C 138.011719 411.308594 136.527344 411.511719 136.402344 412.054688 C 135.648438 415.328125 134.90625 418.191406 135.929688 421.527344 C 136.929688 424.796875 139.390625 427.480469 142.285156 429.203125 C 145.066406 430.855469 148.375 431.351562 151.527344 430.734375 C 155.136719 430.027344 157.804688 427.445312 159.851562 424.539062 C 163.3125 419.632812 163.652344 413.460938 159.28125 409.039062 C 155.628906 405.34375 149.910156 403.886719 144.886719 404.855469 C 140.933594 405.621094 137.828125 408.3125 136.402344 412.054688 C 136.199219 412.59375 137.671875 412.4375 137.871094 411.914062 " fill-opacity="1" fill-rule="nonzero"/><path fill="#253864" d="M 116.695312 390.886719 C 123.816406 380.285156 135.460938 375.257812 148.046875 376.515625 C 160.007812 377.710938 171.46875 384.03125 179.457031 392.914062 C 187.394531 401.75 191.441406 413.667969 188.339844 425.371094 C 186.476562 432.414062 182.191406 438.558594 177.136719 443.683594 C 170.929688 449.980469 163.386719 455.449219 154.660156 457.441406 C 139.195312 460.972656 123.8125 452.148438 115.3125 439.523438 C 111.027344 433.160156 108.503906 425.648438 108.140625 417.980469 C 107.949219 413.972656 108.484375 409.949219 109.558594 406.09375 C 110.640625 402.222656 112.625 399.019531 114.398438 395.480469 C 115.164062 393.949219 115.929688 392.417969 116.695312 390.886719 C 117.03125 390.214844 115.5625 390.320312 115.328125 390.789062 C 112.40625 396.628906 108.960938 402.089844 107.511719 408.542969 C 105.851562 415.921875 106.628906 423.691406 109.191406 430.761719 C 114.140625 444.398438 126.1875 455.59375 140.519531 458.445312 C 156.445312 461.609375 171.359375 452.554688 181.34375 440.710938 C 189.507812 431.015625 193.261719 418.605469 189.144531 406.308594 C 181.984375 384.929688 155.027344 370.324219 133.347656 377.027344 C 125.871094 379.339844 119.667969 384.328125 115.328125 390.789062 C 114.925781 391.390625 116.40625 391.320312 116.695312 390.886719 " fill-opacity="1" fill-rule="nonzero"/><path fill="#253864" d="M 115.761719 401.3125 C 119.878906 390.191406 129.523438 383.257812 141.183594 382.023438 C 152.25 380.851562 163.871094 384.464844 172.609375 391.277344 C 181.558594 398.246094 186.519531 409.019531 184.652344 420.367188 C 183.480469 427.519531 179.847656 434.042969 175.515625 439.75 C 170.417969 446.457031 164 451.710938 155.632812 453.53125 C 142.039062 456.488281 127.863281 449.1875 119.800781 438.414062 C 115.691406 432.925781 113.222656 426.316406 112.761719 419.472656 C 112.339844 413.183594 114.367188 407.34375 115.761719 401.3125 C 115.902344 400.707031 114.421875 400.910156 114.292969 401.449219 C 112.835938 407.75 110.886719 413.722656 111.328125 420.292969 C 111.8125 427.503906 114.804688 434.367188 119.230469 440.015625 C 127.75 450.886719 142.144531 457.125 155.835938 454.347656 C 163.21875 452.847656 169.65625 448.496094 174.496094 442.8125 C 179.234375 437.246094 183.242188 430.917969 185.296875 423.847656 C 188.453125 412.984375 185.320312 401.863281 177.484375 393.847656 C 163.140625 379.171875 134.558594 374.976562 120.011719 391.589844 C 117.484375 394.476562 115.625 397.859375 114.292969 401.449219 C 114.09375 401.996094 115.570312 401.835938 115.761719 401.3125 " fill-opacity="1" fill-rule="nonzero"/><path fill="#253864" d="M 121.910156 395.375 C 137.140625 372.765625 171.578125 384.921875 180.824219 406.886719 C 183.117188 412.328125 183.601562 418.335938 182.179688 424.066406 C 180.378906 431.339844 175.535156 437.441406 170.027344 442.324219 C 163.367188 448.238281 155.527344 452.449219 146.417969 452.011719 C 138.730469 451.640625 131.53125 447.90625 126.023438 442.667969 C 119.511719 436.472656 115.367188 427.878906 114.734375 418.898438 C 114.410156 414.242188 115.230469 409.558594 116.902344 405.21875 C 118.214844 401.808594 120.273438 398.644531 121.910156 395.375 C 122.246094 394.703125 120.78125 394.808594 120.542969 395.277344 C 117.527344 401.300781 114.179688 406.792969 113.386719 413.644531 C 112.542969 420.992188 114.445312 428.402344 118.0625 434.78125 C 125.230469 447.417969 139.824219 455.417969 154.304688 452.160156 C 162.3125 450.363281 169.292969 444.996094 174.839844 439.136719 C 179.40625 434.3125 182.921875 428.402344 184.097656 421.800781 C 186.175781 410.148438 179.828125 399.050781 171.023438 391.886719 C 163.695312 385.921875 154.171875 382.113281 144.660156 382.261719 C 134.824219 382.414062 126.054688 387.101562 120.542969 395.277344 C 120.140625 395.878906 121.621094 395.808594 121.910156 395.375 " fill-opacity="1" fill-rule="nonzero"/><path fill="#253864" d="M 130.636719 391.148438 C 150.769531 373.691406 181.246094 396.578125 180.664062 420.117188 C 180.296875 435.054688 165.996094 445.417969 152.507812 448.320312 C 137.535156 451.542969 124.222656 440.746094 119.683594 427.007812 C 117.554688 420.558594 117.441406 413.519531 119.5 407.039062 C 121.582031 400.503906 126.21875 396.109375 130.636719 391.148438 C 131.226562 390.488281 129.816406 390.429688 129.457031 390.828125 C 125.183594 395.625 120.808594 399.828125 118.457031 405.976562 C 115.996094 412.40625 116.023438 419.605469 117.859375 426.1875 C 121.46875 439.128906 132.785156 449.660156 146.566406 449.773438 C 154.238281 449.835938 161.871094 446.542969 168.222656 442.445312 C 173.574219 438.992188 178.0625 434.214844 180.449219 428.25 C 184.78125 417.414062 180.351562 405.292969 173.078125 396.890625 C 167.738281 390.71875 160.394531 386.011719 152.332031 384.472656 C 144.050781 382.890625 135.796875 385.335938 129.457031 390.828125 C 128.800781 391.398438 130.242188 391.488281 130.636719 391.148438 " fill-opacity="1" fill-rule="nonzero"/><path fill="#253864" d="M 137.769531 389.21875 C 158.84375 378.335938 180.0625 402.667969 177.90625 423.085938 C 177.355469 428.285156 175.128906 433.15625 171.507812 436.925781 C 166.855469 441.769531 160.347656 444.261719 153.890625 445.550781 C 146.589844 447.011719 139.285156 446.578125 132.855469 442.550781 C 127.410156 439.144531 123.589844 433.585938 121.519531 427.582031 C 119.042969 420.402344 119.203125 412.375 122.027344 405.324219 C 123.5625 401.496094 126.027344 398.085938 129.0625 395.3125 C 131.671875 392.929688 134.871094 391.226562 137.769531 389.21875 C 138.585938 388.65625 137.355469 388.355469 136.855469 388.703125 C 131.84375 392.167969 126.863281 395.070312 123.335938 400.226562 C 119.800781 405.394531 118.242188 411.679688 118.3125 417.894531 C 118.457031 430.285156 125.921875 442.445312 138.042969 446.175781 C 144.8125 448.257812 152.261719 447.175781 158.917969 445.171875 C 164.542969 443.480469 169.890625 440.554688 173.765625 436.0625 C 180.539062 428.207031 180.769531 417.148438 177.234375 407.8125 C 174.25 399.933594 168.546875 392.867188 161.125 388.796875 C 153.460938 384.59375 144.570312 384.714844 136.855469 388.703125 C 135.980469 389.152344 137.25 389.488281 137.769531 389.21875 " fill-opacity="1" fill-rule="nonzero"/><path fill="#e05244" d="M 33.683594 380.9375 C 46.769531 391.566406 25.015625 416.921875 12.695312 396.671875 C 4.925781 384.410156 21.398438 371.542969 32.183594 379.996094 L 33.683594 380.9375 " fill-opacity="1" fill-rule="nonzero"/><g clip-path="url(#c613dc9af5)"><path fill="#e05244" d="M 81.953125 497.058594 C 102.476562 482.222656 129.015625 505.027344 128.644531 527.222656 C 128.550781 532.890625 126.457031 538.328125 122.792969 542.640625 C 117.875 548.433594 110.71875 551.671875 103.585938 553.78125 C 96.433594 555.894531 88.835938 555.136719 82.390625 551.355469 C 76.585938 547.945312 72.308594 542.304688 69.816406 536.121094 C 66.980469 529.09375 66.589844 521.140625 68.898438 513.914062 C 70.144531 510.019531 72.304688 506.449219 75.050781 503.433594 C 77.183594 501.089844 79.777344 499.128906 82.089844 496.957031 C 82.726562 496.355469 81.292969 496.277344 80.90625 496.640625 C 76.308594 500.960938 71.640625 504.703125 68.835938 510.535156 C 65.996094 516.4375 65.339844 523.183594 66.414062 529.605469 C 68.539062 542.351562 78.109375 553.601562 91.160156 555.59375 C 98.539062 556.71875 106.164062 554.398438 112.769531 551.238281 C 118.382812 548.554688 123.460938 544.585938 126.691406 539.199219 C 132.390625 529.703125 130.328125 517.945312 124.828125 508.886719 C 120.382812 501.5625 113.433594 495.554688 105.296875 492.765625 C 97.015625 489.925781 88.101562 491.433594 81.039062 496.539062 C 80.234375 497.121094 81.457031 497.417969 81.953125 497.058594 " fill-opacity="1" fill-rule="nonzero"/></g></svg>