<?xml version="1.0" encoding="UTF-8" standalone="no"?>
<!-- Created with Inkscape (http://www.inkscape.org/) -->

<svg
   version="1.1"
   id="svg3741"
   xml:space="preserve"
   width="682.66669"
   height="682.66669"
   viewBox="0 0 682.66669 682.66669"
   xmlns="http://www.w3.org/2000/svg"
   xmlns:svg="http://www.w3.org/2000/svg"><defs
     id="defs3745"><clipPath
       clipPathUnits="userSpaceOnUse"
       id="clipPath3759"><path
         d="M 0,512 H 512 V 0 H 0 Z"
         id="path3757" /></clipPath></defs><g
     id="g3747"
     transform="matrix(1.3333333,0,0,-1.3333333,0,682.66667)"><g
       id="g3749"
       transform="translate(175.4805,424.001)"><path
         d="M 0,0 V -78.514"
         style="fill:none;stroke:#000000;stroke-width:15;stroke-linecap:round;stroke-linejoin:round;stroke-miterlimit:10;stroke-dasharray:none;stroke-opacity:1"
         id="path3751" /></g><g
       id="g3753"><g
         id="g3755"
         clip-path="url(#clipPath3759)"><g
           id="g3761"
           transform="translate(431.0557,345.4873)"><path
             d="m 0,0 v 90.154 c 0,4.355 -1.729,8.531 -4.809,11.61 l -52.439,52.44 c -3.079,3.079 -7.256,4.809 -11.61,4.809 h -170.299 c -9.068,0 -16.418,-7.351 -16.418,-16.419 v -29.018"
             style="fill:none;stroke:#000000;stroke-width:15;stroke-linecap:round;stroke-linejoin:round;stroke-miterlimit:10;stroke-dasharray:none;stroke-opacity:1"
             id="path3763" /></g><g
           id="g3765"
           transform="translate(426.2471,447.251)"><path
             d="m 0,0 -52.441,52.441 c -1.402,1.402 -3.038,2.507 -4.808,3.314 V 6.441 c 0,-6.212 5.037,-11.25 11.25,-11.25 H 3.314 C 2.508,-3.038 1.401,-1.401 0,0"
             style="fill:none;stroke:#000000;stroke-width:15;stroke-linecap:round;stroke-linejoin:round;stroke-miterlimit:10;stroke-dasharray:none;stroke-opacity:1"
             id="path3767" /></g><g
           id="g3769"
           transform="translate(86.4434,7.5)"><path
             d="m 0,0 h -40.427 c -17.386,0 -31.479,14.094 -31.479,31.479 v 307.06 c 0,17.386 14.093,31.48 31.479,31.48 H 0 c 17.386,0 31.479,-14.094 31.479,-31.48 V 31.479 C 31.479,14.094 17.386,0 0,0 Z"
             style="fill:none;stroke:#000000;stroke-width:15;stroke-linecap:round;stroke-linejoin:round;stroke-miterlimit:10;stroke-dasharray:none;stroke-opacity:1"
             id="path3771" /></g><g
           id="g3773"
           transform="translate(497.4629,109.1465)"><path
             d="m 0,0 v 208.456 c 0,15.4 -12.484,27.885 -27.885,27.885 H -379.54"
             style="fill:none;stroke:#000000;stroke-width:15;stroke-linecap:round;stroke-linejoin:round;stroke-miterlimit:10;stroke-dasharray:none;stroke-opacity:1"
             id="path3775" /></g><g
           id="g3777"
           transform="translate(114.8203,25.3369)"><path
             d="m 0,0 h 354.758 c 15.4,0 27.885,12.484 27.885,27.885 v 20.862"
             style="fill:none;stroke:#000000;stroke-width:15;stroke-linecap:round;stroke-linejoin:round;stroke-miterlimit:10;stroke-dasharray:none;stroke-opacity:1"
             id="path3779" /></g><g
           id="g3781"
           transform="translate(414.9648,263.8867)"><path
             d="m 0,0 h -224.806 c -4.233,0 -7.664,3.432 -7.664,7.664 v 28.639 c 0,4.233 3.431,7.664 7.664,7.664 H 0 c 4.232,0 7.664,-3.431 7.664,-7.664 V 7.664 C 7.664,3.432 4.232,0 0,0 Z"
             style="fill:none;stroke:#000000;stroke-width:15;stroke-linecap:round;stroke-linejoin:round;stroke-miterlimit:10;stroke-dasharray:none;stroke-opacity:1"
             id="path3783" /></g><g
           id="g3785"
           transform="translate(223.2461,194.1113)"><path
             d="m 0,0 h -31.996 c -4.835,0 -8.755,3.92 -8.755,8.756 v 23.839 c 0,4.835 3.92,8.755 8.755,8.755 H 0 c 4.836,0 8.756,-3.92 8.756,-8.755 V 8.756 C 8.756,3.92 4.836,0 0,0 Z"
             style="fill:none;stroke:#000000;stroke-width:15;stroke-linecap:round;stroke-linejoin:round;stroke-miterlimit:10;stroke-dasharray:none;stroke-opacity:1"
             id="path3787" /></g><g
           id="g3789"
           transform="translate(318.5596,194.1113)"><path
             d="m 0,0 h -31.996 c -4.835,0 -8.755,3.92 -8.755,8.756 v 23.839 c 0,4.835 3.92,8.755 8.755,8.755 H 0 c 4.836,0 8.756,-3.92 8.756,-8.755 V 8.756 C 8.756,3.92 4.836,0 0,0 Z"
             style="fill:none;stroke:#000000;stroke-width:15;stroke-linecap:round;stroke-linejoin:round;stroke-miterlimit:10;stroke-dasharray:none;stroke-opacity:1"
             id="path3791" /></g><g
           id="g3793"
           transform="translate(413.873,194.1113)"><path
             d="m 0,0 h -31.996 c -4.835,0 -8.755,3.92 -8.755,8.756 v 23.839 c 0,4.835 3.92,8.755 8.755,8.755 H 0 c 4.836,0 8.756,-3.92 8.756,-8.755 V 8.756 C 8.756,3.92 4.836,0 0,0 Z"
             style="fill:none;stroke:#000000;stroke-width:15;stroke-linecap:round;stroke-linejoin:round;stroke-miterlimit:10;stroke-dasharray:none;stroke-opacity:1"
             id="path3795" /></g><g
           id="g3797"
           transform="translate(223.2461,132.5254)"><path
             d="m 0,0 h -31.996 c -4.835,0 -8.755,3.92 -8.755,8.756 v 23.839 c 0,4.836 3.92,8.756 8.755,8.756 H 0 c 4.836,0 8.756,-3.92 8.756,-8.756 V 8.756 C 8.756,3.92 4.836,0 0,0 Z"
             style="fill:none;stroke:#000000;stroke-width:15;stroke-linecap:round;stroke-linejoin:round;stroke-miterlimit:10;stroke-dasharray:none;stroke-opacity:1"
             id="path3799" /></g><g
           id="g3801"
           transform="translate(318.5596,132.5254)"><path
             d="m 0,0 h -31.996 c -4.835,0 -8.755,3.92 -8.755,8.756 v 23.839 c 0,4.836 3.92,8.756 8.755,8.756 H 0 c 4.836,0 8.756,-3.92 8.756,-8.756 V 8.756 C 8.756,3.92 4.836,0 0,0 Z"
             style="fill:none;stroke:#000000;stroke-width:15;stroke-linecap:round;stroke-linejoin:round;stroke-miterlimit:10;stroke-dasharray:none;stroke-opacity:1"
             id="path3803" /></g><g
           id="g3805"
           transform="translate(413.873,132.5254)"><path
             d="m 0,0 h -31.996 c -4.835,0 -8.755,3.92 -8.755,8.756 v 23.839 c 0,4.836 3.92,8.756 8.755,8.756 H 0 c 4.836,0 8.756,-3.92 8.756,-8.756 V 8.756 C 8.756,3.92 4.836,0 0,0 Z"
             style="fill:none;stroke:#000000;stroke-width:15;stroke-linecap:round;stroke-linejoin:round;stroke-miterlimit:10;stroke-dasharray:none;stroke-opacity:1"
             id="path3807" /></g><g
           id="g3809"
           transform="translate(223.2461,70.9395)"><path
             d="m 0,0 h -31.996 c -4.835,0 -8.755,3.92 -8.755,8.756 v 23.839 c 0,4.836 3.92,8.756 8.755,8.756 H 0 c 4.836,0 8.756,-3.92 8.756,-8.756 V 8.756 C 8.756,3.92 4.836,0 0,0 Z"
             style="fill:none;stroke:#000000;stroke-width:15;stroke-linecap:round;stroke-linejoin:round;stroke-miterlimit:10;stroke-dasharray:none;stroke-opacity:1"
             id="path3811" /></g><g
           id="g3813"
           transform="translate(318.5596,70.9395)"><path
             d="m 0,0 h -31.996 c -4.835,0 -8.755,3.92 -8.755,8.756 v 23.839 c 0,4.836 3.92,8.756 8.755,8.756 H 0 c 4.836,0 8.756,-3.92 8.756,-8.756 V 8.756 C 8.756,3.92 4.836,0 0,0 Z"
             style="fill:none;stroke:#000000;stroke-width:15;stroke-linecap:round;stroke-linejoin:round;stroke-miterlimit:10;stroke-dasharray:none;stroke-opacity:1"
             id="path3815" /></g><g
           id="g3817"
           transform="translate(413.873,70.9395)"><path
             d="m 0,0 h -31.996 c -4.835,0 -8.755,3.92 -8.755,8.756 v 23.839 c 0,4.836 3.92,8.756 8.755,8.756 H 0 c 4.836,0 8.756,-3.92 8.756,-8.756 V 8.756 C 8.756,3.92 4.836,0 0,0 Z"
             style="fill:none;stroke:#000000;stroke-width:15;stroke-linecap:round;stroke-linejoin:round;stroke-miterlimit:10;stroke-dasharray:none;stroke-opacity:1"
             id="path3819" /></g><g
           id="g3821"
           transform="translate(462.0635,345.4873)"><path
             d="m 0,0 v 27.777 c 0,9.67 -7.839,17.509 -17.509,17.509 h -13.499"
             style="fill:none;stroke:#000000;stroke-width:15;stroke-linecap:round;stroke-linejoin:round;stroke-miterlimit:10;stroke-dasharray:none;stroke-opacity:1"
             id="path3823" /></g><g
           id="g3825"
           transform="translate(175.4805,390.7734)"><path
             d="m 0,0 h -13.5 c -9.67,0 -17.509,-7.839 -17.509,-17.509 v -27.777"
             style="fill:none;stroke:#000000;stroke-width:15;stroke-linecap:round;stroke-linejoin:round;stroke-miterlimit:10;stroke-dasharray:none;stroke-opacity:1"
             id="path3827" /></g></g></g></g></svg>
