<svg id="Layer_1" enable-background="new 0 0 256 256" height="512" viewBox="0 0 256 256" width="512" xmlns="http://www.w3.org/2000/svg"><g><g><path d="m93.088 151.295h69.824c6.18 0 12.094 1.128 17.557 3.178v-89.473h-104.938v89.473c5.463-2.049 11.377-3.178 17.557-3.178z" fill="#414042"/></g><g><g><g><g><path d="m174 72.629v27.333c7.548 0 13.667-6.119 13.667-13.667s-6.119-13.666-13.667-13.666z" fill="#ffd2c0"/></g><g><path d="m182.609 75.686c1.91 2.35 3.058 5.345 3.058 8.609 0 6.867-5.069 12.534-11.667 13.504v2.163c7.548 0 13.667-6.119 13.667-13.667 0-4.283-1.974-8.103-5.058-10.609z" fill="#fcc4ae"/></g><g><path d="m174 79.295v14c3.866 0 7-3.134 7-7s-3.134-7-7-7z" fill="#f2ad97"/></g></g><g><g><path d="m82 72.629c-7.548 0-13.667 6.119-13.667 13.667s6.119 13.666 13.667 13.666z" fill="#ffd2c0"/></g><g><path d="m82 79.295c-3.866 0-7 3.134-7 7s3.134 7 7 7z" fill="#f2ad97"/></g></g></g><g><path d="m202.912 247.289h-149.824c-5.523 0-10-4.477-10-10v-35.994c0-27.614 22.386-50 50-50h69.824c27.614 0 50 22.386 50 50v35.994c0 5.523-4.477 10-10 10z" fill="#a54af4"/></g><g><path d="m49.088 203.295c-1.104 0-2-.896-2-2 0-10.897 3.895-21.474 10.967-29.782.716-.841 1.979-.941 2.819-.227.841.716.942 1.978.227 2.819-6.457 7.585-10.013 17.241-10.013 27.189 0 1.106-.896 2.001-2 2.001zm16.195-36.078h.01z" fill="#b171f4"/></g><circle cx="65.283" cy="167.217" fill="#b171f4" r="2.04"/><g><path d="m192.912 161.295c6.278 8.357 10 18.743 10 30v35.994c0 5.523-4.477 10-10 10h-149.824c0 5.523 4.477 10 10 10h149.824c5.523 0 10-4.477 10-10v-35.994c0-16.357-7.856-30.878-20-40z" fill="#893add"/></g><g><path d="m195.67 163.538c7.62 8.775 12.243 20.223 12.243 32.757v35.994c0 5.523-4.477 10-10 10h-149.825c-1.466 0-2.855-.323-4.11-.89 1.569 3.471 5.053 5.89 9.11 5.89h149.824c5.523 0 10-4.477 10-10v-35.994c0-15.08-6.685-28.59-17.242-37.757z" fill="#6c2bc1"/></g><g><path d="m163.167 247.289h-70.334v-85.994c0-5.523 4.477-10 10-10h50.333c5.523 0 10 4.477 10 10v85.994z" fill="#ffd2c0"/></g><g><path d="m92.833 173.295h70.333v73.994h-70.333z" fill="#e6e7e8"/></g><g><path d="m128 136.221c-5.691 0-11.136-1.04-16.167-2.929v18.004h32.333v-18.004c-5.03 1.888-10.475 2.929-16.166 2.929z" fill="#ffd2c0"/></g><g><path d="m128 136.221c-5.691 0-11.136-1.04-16.167-2.929v5c5.03 1.889 10.476 2.929 16.167 2.929 5.69 0 11.136-1.04 16.167-2.929v-5c-5.031 1.888-10.476 2.929-16.167 2.929z" fill="#f2ad97"/></g><g><g><path d="m82 65v25.221c0 25.405 20.595 46 46 46 25.405 0 46-20.595 46-46v-25.221z" fill="#ffd2c0"/></g></g><g><g><path d="m169 65v20.221c0 25.405-20.595 46-46 46-11.43 0-21.877-4.178-29.922-11.078 8.436 9.837 20.947 16.078 34.922 16.078 25.405 0 46-20.595 46-46v-25.221z" fill="#fcc4ae"/></g></g><g><circle cx="148" cy="79.587" fill="#995222" r="5.292"/></g><g><circle cx="108" cy="79.587" fill="#995222" r="5.292"/></g><g><path d="m128 113.712c6.259 0 11.333-3.026 11.333-6.76h-22.667c.001 3.733 5.075 6.76 11.334 6.76z" fill="#995222"/></g></g><g><g><path d="m148.25 247.289h-40.5v-60.289c0-2.761 2.239-5 5-5h30.5c2.761 0 5 2.239 5 5z" fill="#58595b"/></g><g><path d="m143.25 182v55.289c0 2.761-2.239 5-5 5h-30.5v5h40.5v-60.289c0-2.761-2.239-5-5-5z" fill="#414042"/></g><g><path d="m123.512 193.634h-7.941c-1.949 0-3.529-1.58-3.529-3.529 0-1.949 1.58-3.529 3.529-3.529h7.941c1.949 0 3.529 1.58 3.529 3.529.001 1.948-1.58 3.529-3.529 3.529z" fill="#d1d3d4"/></g><g><circle cx="116.012" cy="190.104" fill="#414042" r="2.5"/></g></g><g><g><path d="m92.833 214.568h6.029v32.721h-6.029z" fill="#a54af4"/><path d="m92.833 237.289h6.029v10h-6.029z" fill="#893add"/><path d="m92.833 242.289h6.029v5h-6.029z" fill="#6c2bc1"/><g><path d="m98.862 247.289h16.962c5.523 0 10-4.477 10-10v-12.721c0-5.523-4.477-10-10-10h-16.962z" fill="#ffd2c0"/></g><g><path d="m119.933 215.459c.567 1.255.89 2.643.89 4.11v12.721c0 5.523-4.477 10-10 10h-11.961v5h16.962c5.523 0 10-4.477 10-10v-12.721c0-4.057-2.42-7.542-5.891-9.11z" fill="#fcc4ae"/></g></g><g><path d="m157.138 214.568h6.029v32.721h-6.029z" fill="#a54af4"/><path d="m157.138 237.289h6.029v10h-6.029z" fill="#893add"/><path d="m157.138 242.289h6.029v5h-6.029z" fill="#6c2bc1"/><g><path d="m157.138 247.289h-16.962c-5.523 0-10-4.477-10-10v-12.721c0-5.523 4.477-10 10-10h16.962z" fill="#ffd2c0"/></g><g><path d="m136.067 215.459c-.567 1.255-.89 2.643-.89 4.11v12.721c0 5.523 4.477 10 10 10h11.962v5h-16.962c-5.523 0-10-4.477-10-10v-12.721c-.001-4.057 2.419-7.542 5.89-9.11z" fill="#fcc4ae"/></g></g></g><g><path d="m181.333 65h-106.666c-2.761 0-5-2.239-5-5v-8.488c0-2.761 2.239-5 5-5h106.667c2.761 0 5 2.239 5 5v8.488c-.001 2.761-2.239 5-5.001 5z" fill="#ffc91d"/></g><g><path d="m181.333 46.512v8.488c0 2.761-2.239 5-5 5h-106.666c0 2.761 2.239 5 5 5h106.667c2.761 0 5-2.239 5-5v-8.488c-.001-2.762-2.239-5-5.001-5z" fill="#ffa91a"/></g><g><path d="m134.378 7.5h-16.579c-7.726 0-14.986 3.7-19.526 9.951l-21.106 29.06h101.667l-26.108-30.556c-4.586-5.365-11.29-8.455-18.348-8.455z" fill="#ffa91a"/></g><g><path d="m173.707 40.512h-92.183l-4.357 6h101.666z" fill="#ef7816"/></g><g><g><g><path d="m159.788 65.098v58.1c0 5.594-2.405 10.918-6.603 14.616l-1.048.923c-1.055.93-.398 2.671 1.009 2.671h3.888c9.37 0 16.966-7.596 16.966-16.966v-59.344z" fill="#58595b"/></g></g></g><g><g><g><path d="m96.212 65.098v58.1c0 5.594 2.405 10.918 6.603 14.616l1.048.923c1.055.93.398 2.671-1.009 2.671h-3.888c-9.37 0-16.966-7.596-16.966-16.966v-59.344z" fill="#58595b"/></g></g></g><g><g><g><path d="m153.505 182.123c-2.761 0-5-2.239-5-5v-25.776c0-2.761 2.239-5 5-5h40.99c2.761 0 5 2.239 5 5v25.776c0 2.761-2.239 5-5 5h-15.863l-8.281 7.344c-1.29 1.144-3.327.228-3.327-1.496v-5.847h-13.519z" fill="#ffc91d"/></g></g><g><g><path d="m196.869 146.973c.386.709.625 1.51.625 2.375v25.776c0 2.761-2.239 5-5 5h-15.863l-8.281 7.344c-.399.354-.868.491-1.327.488v.016c0 1.725 2.037 2.641 3.327 1.496l8.281-7.344h15.863c2.761 0 5-2.239 5-5v-25.776c.001-1.898-1.068-3.528-2.625-4.375z" fill="#ffa91a"/></g></g><g><circle cx="160.089" cy="164.856" fill="#893add" r="4.474"/></g><g><circle cx="174" cy="164.856" fill="#893add" r="4.474"/></g><g><circle cx="187.911" cy="164.856" fill="#893add" r="4.474"/></g></g></g></svg>