<svg id="Layer_30" enable-background="new 0 0 416 496" height="512" viewBox="0 0 416 496" width="512" xmlns="http://www.w3.org/2000/svg"><g><g><g><path d="m40 48v64h-16c-8.84 0-16-7.16-16-16v-32c0-8.84 7.16-16 16-16z" fill="#969faa"/></g><g><path d="m344 8h-66.75c-4.61 0-9.13 1-13.25 2.88-3.46 1.57-6.63 3.75-9.37 6.49l-30.63 30.63-167.28-15.93c-.48-.05-.96-.07-1.45-.07-4.21 0-8.03 1.71-10.8 4.47-2.76 2.77-4.47 6.59-4.47 10.8v.73 64 2.75c0 7.6 5.59 14.05 13.11 15.12l128.88 18.42h.01l60.99-26.14c3.31-1.42 6.86-2.15 10.46-2.15 3.75 0 7.32.78 10.55 2.19v-.01-18.18h80v32h-66.18-.01c1.41 3.23 2.19 6.8 2.19 10.55v32 117.45h32 32v-96h32v-56-40-64c0-17.67-14.33-32-32-32z" fill="#aab2bd"/></g><g><path d="m200 85.13v14.95c0 9.74-8.62 17.22-18.26 15.84l-102.87-14.69c-3.94-.57-6.87-3.94-6.87-7.92v-18.84c0-4.72 4.06-8.41 8.76-7.97l112 10.67c4.1.39 7.24 3.84 7.24 7.96z" fill="#ccd1d9"/></g><g><path d="m408 56v22.11c0 6.06-3.42 11.6-8.84 14.31l-23.16 11.58v-64h16c8.84 0 16 7.16 16 16z" fill="#ccd1d9"/></g><g><path d="m408 160v136h-32v-96-56h16c8.84 0 16 7.16 16 16z" fill="#ecc19c"/></g><g><path d="m264 40h80v32h-80z" fill="#ccd1d9"/></g><g><path d="m344 104v32h-66.18-.01c-1.33-3.09-3.24-5.87-5.59-8.22s-5.13-4.26-8.22-5.59v-.01-18.18z" fill="#ccd1d9"/></g><g><path d="m376 200v96h-8-24v-96z" fill="#5cd6b3"/></g><g><path d="m200 296v104l-53.07-46.44c-6.95-6.07-10.93-14.85-10.93-24.08v-97.48-14.49c0-10.62 6.33-20.22 16.09-24.41l47.91-20.53v43.43 32h-16c-8.84 0-16 7.16-16 16v16c0 8.84 7.16 16 16 16z" fill="#dfb28b"/></g><g><path d="m376 456h32c0 17.67-14.33 32-32 32h-144c-17.67 0-32-14.33-32-32v-56-104h32v16 64 56 16c0 4.42 3.58 8 8 8h24 56z" fill="#ecc19c"/></g><g><path d="m312 296-20 20-28 28-32-32v-16c8.84 0 16-7.16 16-16v-48c0-8.84-7.16-16-16-16h-32v-43.43l42.99-18.42c3.31-1.42 6.86-2.15 10.46-2.15 7.33 0 13.97 2.97 18.77 7.78 4.81 4.8 7.78 11.44 7.78 18.77v117.45z" fill="#ecc19c"/></g><g><path d="m280 146.55v32c0-7.33-2.97-13.97-7.78-18.77-4.8-4.81-11.44-7.78-18.77-7.78-3.6 0-7.15.73-10.46 2.15l-42.99 18.42-47.91 20.53c-9.76 4.19-16.09 13.79-16.09 24.41v-32c0-10.62 6.33-20.22 16.09-24.41l29.9-12.81h.01l60.99-26.14c3.31-1.42 6.86-2.15 10.46-2.15 3.75 0 7.32.78 10.55 2.19 3.09 1.33 5.87 3.24 8.22 5.59s4.26 5.13 5.59 8.22c1.41 3.23 2.19 6.8 2.19 10.55z" fill="#cf9e76"/></g><g><path d="m248 232v48c0 8.84-7.16 16-16 16h-32-16c-8.84 0-16-7.16-16-16v-16c0-8.84 7.16-16 16-16h16v-32h32c8.84 0 16 7.16 16 16z" fill="#ccd1d9"/></g><g><path d="m408 432v24h-32l-28-28 28-28z" fill="#fcd770"/></g><g><path d="m356.201 352.201h39.598v39.598h-39.598z" fill="#fcd770" transform="matrix(.707 -.707 .707 .707 -152.916 374.828)"/></g><g><path d="m300.201 408.201h39.598v39.598h-39.598z" fill="#fcd770" transform="matrix(.707 -.707 .707 .707 -208.916 351.633)"/></g><g><path d="m292 428-28 28h-24c-4.42 0-8-3.58-8-8v-16l32-32z" fill="#fcd770"/></g><g><path d="m244.201 352.201h39.598v39.598h-39.598z" fill="#fcd770" transform="matrix(.707 -.707 .707 .707 -185.72 295.633)"/></g><g><path d="m300.201 352.201h39.598v39.598h-39.598z" fill="#fcd770" transform="matrix(.707 -.707 .707 .707 -169.318 335.23)"/></g><g><path d="m408 296v16l-32 32-28-28 20-20h8z" fill="#fcd770"/></g><g><path d="m368 296-20 20-28 28-28-28 20-20h32z" fill="#fcd770"/></g><g><path d="m376 456h-56l28-28z" fill="#ffeaa7"/></g><g><path d="m320 456h-56l28-28z" fill="#ffeaa7"/></g><g><path d="m264 400-32 32v-56l4-4z" fill="#ffeaa7"/></g><g><path d="m272.201 380.201h39.598v39.598h-39.598z" fill="#ffeaa7" transform="matrix(.707 -.707 .707 .707 -197.318 323.633)"/></g><g><path d="m328.201 380.201h39.598v39.598h-39.598z" fill="#ffeaa7" transform="matrix(.707 -.707 .707 .707 -180.916 363.23)"/></g><g><path d="m408 368v64l-32-32 28-28z" fill="#ffeaa7"/></g><g><path d="m408 312v56l-4 4-28-28z" fill="#ffeaa7"/></g><g><path d="m328.201 324.201h39.598v39.598h-39.598z" fill="#ffeaa7" transform="matrix(.707 -.707 .707 .707 -141.318 346.828)"/></g><g><path d="m272.201 324.201h39.598v39.598h-39.598z" fill="#ffeaa7" transform="matrix(.707 -.707 .707 .707 -157.72 307.23)"/></g><g><path d="m264 344-28 28-4 4v-64z" fill="#ffeaa7"/></g></g><g><path d="m402.733 99.578c8.184-4.092 13.267-12.317 13.267-21.467v-22.111c0-13.233-10.767-24-24-24h-8.805c-3.716-18.236-19.878-32-39.195-32h-66.745c-10.685 0-20.729 4.161-28.284 11.716l-27.963 27.963-163.526-15.574c-.731-.07-1.473-.105-2.208-.105-10.293 0-19.042 6.719-22.104 16h-9.17c-13.233 0-24 10.767-24 24v32c0 13.233 10.767 24 24 24h8.63c2.147 9.148 9.742 16.42 19.352 17.793l100.644 14.378-3.686 1.58c-12.72 5.451-20.94 17.916-20.94 31.756v32 14.493 97.479c0 11.535 4.979 22.507 13.66 30.103l50.34 44.048v52.37c0 22.056 17.944 40 40 40h144c22.056 0 40-17.944 40-40v-296c0-13.234-10.766-24-24-24h-8v-27.056zm-2.733-43.578v22.111c0 3.05-1.695 5.792-4.422 7.156l-11.578 5.789v-43.056h8c4.411 0 8 3.589 8 8zm0 252.686-24 24-16.686-16.686 12-12h28.686zm-20.686 139.314-20-20 16.686-16.686 24 24v12.686zm-195.314-160c-4.411 0-8-3.589-8-8v-16c0-4.411 3.589-8 8-8h24v-32h24c4.411 0 8 3.589 8 8v48c0 4.411-3.589 8-8 8zm62.141-126.5c2.323-.995 4.782-1.5 7.309-1.5 10.229 0 18.55 8.322 18.55 18.55v125.45h20.686l-28.686 28.686-24-24v-6.062c9.311-3.303 16-12.195 16-22.624v-48c0-13.233-10.766-24-24-24h-24v-30.154zm25.859-113.5h64v16h-64zm0 64h64v16h-53.425c-2.714-4.247-6.329-7.861-10.575-10.575zm96 112h-16v-16h16zm-16 16h16v16h-16zm-112 91.314 12.686 12.686-12.686 12.686zm0 56 12.686 12.686-12.686 12.686zm7.314-15.314 16.686-16.686 16.686 16.686-16.686 16.686zm44.686-44.686 16.686 16.686-16.686 16.686-16.686-16.686zm28 28 16.686 16.686-16.686 16.686-16.686-16.686zm-28 28 16.686 16.686-16.686 16.686-16.686-16.686zm28 28 16.686 16.686-16.686 16.686-16.686-16.686zm11.314-11.314 16.686-16.686 16.686 16.686-16.686 16.686zm28-28 16.686-16.686 16.686 16.686-16.686 16.686zm-11.314-11.314-16.686-16.686 16.686-16.686 16.686 16.686zm.686-56.686-28.686 28.686-16.686-16.686 12-12zm-108.686 131.314 24-24 16.686 16.686-20 20h-20.686zm52 4 8.686 8.686h-17.372zm56 0 8.686 8.686h-17.372zm39.314-39.314 12.686-12.686v25.372zm12.686-43.314-12.686-12.686 12.686-12.686zm-48-68.686v-16h16v16zm-8-272c13.233 0 24 10.767 24 24v152h-32v96h-48v-141.45c0-.859-.042-1.707-.104-2.55h64.104v-48h-80v-16h80v-48h-80v-15.419c1.706-.379 3.465-.581 5.255-.581zm-328 80v-32c0-4.411 3.589-8 8-8h8v48h-8c-4.411 0-8-3.589-8-8zm38.246 25.954c-3.561-.509-6.246-3.604-6.246-7.201v-67.479c0-4.011 3.263-7.274 7.274-7.274.229 0 .461.011.69.033l171.028 16.289 29.008-29.008v84.791c-.843-.062-1.692-.104-2.55-.104-4.705 0-9.284.939-13.61 2.793l-58.929 25.255zm100.997 46.503 90.898-38.957c2.323-.995 4.782-1.5 7.309-1.5 10.229 0 18.55 8.322 18.55 18.55v2.875c-5.364-3.428-11.726-5.425-18.55-5.425-4.705 0-9.284.939-13.61 2.793l-90.9 38.957c-1.737.744-3.381 1.63-4.94 2.622v-2.865c0-7.431 4.413-14.123 11.243-17.05zm-3.047 179.084c-5.209-4.558-8.196-11.141-8.196-18.062v-97.479-14.493c0-7.431 4.413-14.124 11.243-17.051l36.757-15.753v55.297h-8c-13.234 0-24 10.767-24 24v16c0 13.233 10.766 24 24 24h8v78.37zm223.804 132.459h-144c-13.234 0-24-10.767-24-24v-56-3.63-92.37h16v144c0 8.822 7.178 16 16 16h158.624c-3.303 9.311-12.195 16-22.624 16zm16-328c4.411 0 8 3.589 8 8v128h-16v-136z"/><path d="m193.517 69.206-112-10.667c-4.477-.425-8.953 1.064-12.28 4.09-3.328 3.025-5.237 7.34-5.237 11.838v18.841c0 7.91 5.905 14.72 13.737 15.839l102.869 14.695c1.133.162 2.269.242 3.399.242 5.739 0 11.326-2.059 15.72-5.87 5.259-4.561 8.275-11.169 8.275-18.131v-14.95c0-8.294-6.227-15.141-14.483-15.927zm-1.517 30.878c0 2.354-.979 4.501-2.758 6.044-1.779 1.542-4.042 2.207-6.373 1.876l-102.869-14.696v-18.842l112 10.667z"/></g></g></svg>