<svg xmlns="http://www.w3.org/2000/svg" xmlns:xlink="http://www.w3.org/1999/xlink" width="500" zoomAndPan="magnify" viewBox="0 0 375 374.999991" height="500" preserveAspectRatio="xMidYMid meet" version="1.0"><defs><g/><clipPath id="2b82328607"><path d="M 141.828125 262.640625 L 235.507812 262.640625 L 235.507812 285.335938 L 141.828125 285.335938 Z M 141.828125 262.640625 " clip-rule="nonzero"/></clipPath><clipPath id="c58eb3fd56"><path d="M 63.832031 53 L 311.246094 53 L 311.246094 267 L 63.832031 267 Z M 63.832031 53 " clip-rule="nonzero"/></clipPath></defs><path fill="#fcdd9d" d="M 300.382812 61.859375 C 299.835938 72.878906 284.246094 84.15625 261.527344 87.785156 C 259.53125 85.246094 257.539062 82.703125 255.542969 80.164062 C 254.378906 78.710938 253.238281 77.234375 252.097656 75.78125 C 258.132812 53.925781 271.316406 40.183594 282.25 41.117188 C 285.539062 41.402344 291.46875 43.242188 295.691406 48.300781 C 297.609375 50.582031 298.800781 53.097656 299.5 55.40625 C 300.277344 57.96875 300.457031 60.304688 300.382812 61.859375 " fill-opacity="1" fill-rule="nonzero"/><path fill="#fcdd9d" d="M 113.882812 84.855469 L 113.882812 103.339844 C 109.761719 102.796875 105.824219 102.125 102.121094 101.292969 C 79.742188 96.394531 65.105469 86.878906 64.667969 77.414062 C 64.484375 73.707031 66.402344 68.082031 70.289062 63.832031 C 75.132812 58.488281 81.738281 56.625 85.777344 56.699219 C 86.347656 56.699219 86.890625 56.753906 87.433594 56.832031 C 103.648438 58.800781 113.882812 84.855469 113.882812 84.855469 " fill-opacity="1" fill-rule="nonzero"/><path fill="#ffbdb1" d="M 257.578125 81.613281 C 262.765625 67.546875 270.664062 58.488281 277.070312 59.265625 C 278.800781 59.476562 283.179688 60.742188 284.839844 64.453125 C 284.957031 64.71875 286.128906 67.441406 285.03125 70.296875 C 284.066406 72.820312 281.777344 74.347656 276.957031 76.761719 C 275.476562 77.507812 273.949219 78.257812 272.382812 79.019531 C 268.933594 80.691406 265.777344 82.117188 263.042969 83.402344 " fill-opacity="1" fill-rule="nonzero"/><path fill="#ffbdb1" d="M 110.988281 89.054688 C 105.824219 78.226562 98.636719 71.378906 93.160156 72.230469 C 90.125 72.703125 87.980469 74.824219 87.980469 74.824219 C 86.140625 76.640625 84.492188 79.867188 85.386719 82.601562 C 86.003906 84.476562 87.660156 85.652344 93.160156 87.785156 C 96.722656 89.171875 101.644531 90.859375 107.757812 92.289062 " fill-opacity="1" fill-rule="nonzero"/><path fill="#f5c884" d="M 107.40625 94.269531 C 105.644531 96.601562 103.882812 98.960938 102.121094 101.292969 C 79.742188 96.394531 65.105469 86.878906 64.667969 77.414062 C 64.484375 73.707031 66.402344 68.082031 70.289062 63.832031 C 75.132812 58.488281 81.738281 56.625 85.777344 56.699219 C 86.347656 56.699219 86.890625 56.753906 87.433594 56.832031 C 76.964844 59.765625 69.789062 67.429688 69.847656 74.824219 C 69.9375 86.507812 88.046875 92.179688 90.570312 92.972656 C 97.414062 95.117188 103.515625 94.8125 107.40625 94.269531 " fill-opacity="1" fill-rule="nonzero"/><path fill="#f5c884" d="M 299.5 55.40625 C 298.621094 53.929688 295.417969 48.945312 288.921875 46.664062 C 287.53125 46.175781 282.601562 44.515625 277.070312 46.304688 C 271.726562 48.027344 268.964844 51.953125 265.414062 57 C 260.464844 64.027344 256.347656 71.390625 256.347656 77.414062 C 256.347656 79.203125 256.0625 80.058594 255.542969 80.164062 C 254.378906 78.710938 253.238281 77.234375 252.097656 75.78125 C 258.132812 53.925781 271.316406 40.183594 282.25 41.117188 C 285.539062 41.402344 291.46875 43.242188 295.691406 48.300781 C 297.609375 50.582031 298.800781 53.097656 299.5 55.40625 " fill-opacity="1" fill-rule="nonzero"/><g clip-path="url(#2b82328607)"><path fill="#f9dfb7" d="M 196.511719 285.363281 C 175.542969 285.359375 155.636719 281.773438 141.960938 278.539062 L 147.054688 262.761719 C 148.539062 262.992188 150.054688 263.214844 151.59375 263.4375 C 164.492188 265.238281 179.449219 266.671875 195.390625 266.671875 C 206.582031 266.671875 218.257812 265.964844 230.046875 264.183594 C 231.757812 269.453125 233.441406 274.859375 235.109375 280.40625 C 222.632812 284.011719 209.375 285.363281 196.511719 285.363281 " fill-opacity="1" fill-rule="nonzero"/></g><path fill="#9c6d4f" d="M 152.304688 62.886719 C 152.304688 62.886719 145.84375 56.421875 144.230469 46.722656 C 144.230469 46.722656 137.886719 45.929688 135.203125 41.007812 C 133.078125 37.121094 134.230469 33.230469 134.539062 32.175781 C 134.8125 31.242188 136.050781 27.082031 140.191406 24.902344 C 144.101562 22.84375 149.515625 23.125 153.113281 26.519531 C 157.285156 30.453125 156.40625 36.113281 156.316406 36.65625 C 155.582031 40.890625 153.917969 43.492188 149.074219 45.105469 C 149.074219 45.105469 150.6875 58.039062 158.765625 61.269531 C 156.960938 60.550781 153.113281 62.617188 151.496094 63.695312 " fill-opacity="1" fill-rule="nonzero"/><path fill="#9c6d4f" d="M 217.925781 62.886719 C 217.925781 62.886719 224.386719 56.421875 226 46.722656 C 226 46.722656 232.34375 45.929688 235.027344 41.007812 C 237.152344 37.121094 236 33.230469 235.691406 32.175781 C 235.417969 31.242188 234.179688 27.082031 230.039062 24.902344 C 226.128906 22.84375 220.71875 23.125 217.117188 26.519531 C 212.945312 30.453125 213.824219 36.113281 213.917969 36.65625 C 214.648438 40.890625 216.3125 43.492188 221.15625 45.105469 C 221.15625 45.105469 219.542969 58.039062 211.464844 61.269531 C 213.269531 60.550781 217.117188 62.617188 218.734375 63.695312 " fill-opacity="1" fill-rule="nonzero"/><g clip-path="url(#c58eb3fd56)"><path fill="#fcdd9d" d="M 307.0625 215.449219 L 305.355469 219.804688 C 303.488281 224.109375 301.132812 228.230469 298.179688 232.117188 C 291.054688 241.582031 280.488281 249.671875 265.359375 255.246094 C 225.523438 269.972656 182.601562 267.765625 151.59375 263.4375 C 149.265625 263.101562 146.984375 262.765625 144.808594 262.402344 C 142.246094 262.011719 139.785156 261.597656 137.425781 261.183594 C 135.976562 260.921875 134.578125 260.664062 133.207031 260.429688 C 133.050781 260.40625 132.921875 260.378906 132.765625 260.351562 C 131.574219 260.144531 130.433594 259.914062 129.320312 259.703125 C 128.386719 259.550781 127.507812 259.367188 126.652344 259.210938 C 125.046875 258.898438 123.542969 258.617188 122.144531 258.328125 C 120.359375 257.992188 118.699219 257.683594 117.222656 257.398438 C 117.066406 257.371094 116.9375 257.34375 116.78125 257.292969 C 115.074219 256.980469 113.390625 256.542969 111.757812 256.023438 C 110.667969 255.710938 109.605469 255.347656 108.546875 254.90625 L 108.519531 254.90625 C 106.914062 254.285156 105.332031 253.585938 103.804688 252.78125 C 102.953125 252.339844 102.121094 251.875 101.292969 251.382812 C 99.6875 250.449219 98.132812 249.386719 96.628906 248.246094 C 90.230469 243.34375 83.316406 238.367188 77.4375 229.601562 C 76.734375 228.566406 76.039062 227.476562 75.363281 226.363281 C 74.613281 225.117188 73.886719 223.875 73.242188 222.601562 C 49.097656 177.492188 78.523438 129.007812 82.851562 121.074219 C 92.539062 103.367188 107.226562 86.515625 125.070312 74.019531 C 129.371094 71.011719 133.851562 68.261719 138.515625 65.800781 C 145.171875 62.300781 152.167969 59.394531 159.394531 57.269531 C 168.507812 54.601562 178.042969 53.148438 187.832031 53.199219 C 189.75 53.199219 191.667969 53.277344 193.507812 53.410156 C 207.753906 54.316406 219.511719 58.203125 227.4375 61.496094 C 230.289062 62.714844 232.644531 63.832031 234.433594 64.6875 C 236.246094 65.566406 238.007812 66.472656 239.71875 67.433594 C 269.789062 84 285.070312 110.550781 292.792969 122.683594 C 300.5625 134.867188 319.652344 179.617188 307.0625 215.449219 " fill-opacity="1" fill-rule="nonzero"/></g><path fill="#f8d290" d="M 77.4375 229.601562 C 76.734375 228.566406 76.039062 227.476562 75.363281 226.363281 C 74.613281 225.117188 73.886719 223.875 73.242188 222.601562 C 75.546875 220.269531 78.238281 217.808594 82.097656 214.386719 C 82.894531 213.671875 83.832031 212.9375 84.890625 212.1875 C 85.851562 214.433594 86.964844 216.722656 88.25 219.019531 C 83.210938 223.492188 80.367188 226.207031 77.4375 229.601562 M 305.355469 219.804688 C 300.457031 216.457031 293.984375 212.363281 286.058594 208.242188 C 285.347656 207.875 284.625 207.5 283.890625 207.128906 C 284.417969 205.664062 284.886719 204.199219 285.308594 202.742188 C 286.066406 203.121094 286.8125 203.511719 287.558594 203.882812 C 295.460938 207.957031 301.988281 212.027344 307.0625 215.449219 L 305.355469 219.804688 " fill-opacity="1" fill-rule="nonzero"/><path fill="#feeecd" d="M 305.355469 219.804688 C 303.488281 224.109375 301.132812 228.230469 298.179688 232.117188 C 291.054688 241.582031 280.488281 249.671875 265.359375 255.246094 C 225.523438 269.972656 182.601562 267.765625 151.59375 263.4375 C 149.265625 263.101562 146.984375 262.765625 144.808594 262.402344 C 142.246094 262.011719 139.785156 261.597656 137.425781 261.183594 C 135.976562 260.921875 134.578125 260.664062 133.207031 260.429688 C 133.050781 260.40625 132.921875 260.378906 132.765625 260.351562 C 131.574219 260.144531 130.433594 259.914062 129.320312 259.703125 C 128.386719 259.550781 127.507812 259.367188 126.652344 259.210938 C 125.046875 258.898438 123.542969 258.617188 122.144531 258.328125 C 120.359375 257.992188 118.699219 257.683594 117.222656 257.398438 C 117.066406 257.371094 116.9375 257.34375 116.78125 257.292969 C 115.074219 256.980469 113.390625 256.566406 111.757812 256.023438 C 110.667969 255.710938 109.605469 255.347656 108.546875 254.90625 L 108.519531 254.90625 C 106.914062 254.285156 105.332031 253.585938 103.804688 252.78125 C 102.953125 252.339844 102.121094 251.875 101.292969 251.382812 C 99.6875 250.449219 98.132812 249.386719 96.628906 248.246094 C 90.230469 243.34375 83.316406 238.367188 77.4375 229.601562 C 80.570312 225.972656 83.601562 223.121094 89.324219 218.066406 C 89.53125 217.882812 89.765625 217.679688 90.027344 217.496094 C 96.941406 211.792969 112.40625 204.609375 129.707031 197.039062 C 155.300781 185.867188 177.757812 185.789062 192.679688 185.734375 C 218.011719 185.660156 237.074219 190.714844 247.902344 193.644531 C 266.65625 198.753906 279.347656 204.871094 283.105469 206.734375 C 284.113281 207.230469 285.097656 207.75 286.058594 208.242188 C 293.984375 212.363281 300.457031 216.457031 305.355469 219.804688 " fill-opacity="1" fill-rule="nonzero"/><path fill="#fce2ad" d="M 84.890625 212.1875 C 80.261719 201.367188 79.140625 191.570312 78.65625 187.351562 C 73.953125 146.316406 101.351562 116.414062 106.109375 111.378906 C 106.109375 111.378906 139.511719 77.945312 187.460938 77.945312 C 208.648438 77.945312 232.675781 84.476562 257.914062 103.296875 C 257.914062 103.296875 288.597656 130.777344 288.597656 167.957031 C 288.597656 173.867188 289.574219 187.925781 285.308594 202.742188 C 285.167969 202.671875 285.03125 202.605469 284.890625 202.539062 C 280.925781 200.59375 267.667969 194.1875 248.03125 188.820312 C 236.769531 185.757812 217.058594 180.550781 190.824219 180.550781 C 190.632812 180.550781 190.4375 180.550781 190.242188 180.550781 C 174.648438 180.601562 151.15625 180.679688 124.347656 192.398438 C 109.140625 199.035156 95.230469 205.414062 86.917969 210.832031 C 86.199219 211.289062 85.523438 211.742188 84.890625 212.1875 " fill-opacity="1" fill-rule="nonzero"/><path fill="#f9d9a2" d="M 88.25 219.019531 C 86.964844 216.722656 85.851562 214.433594 84.890625 212.1875 C 85.523438 211.742188 86.199219 211.289062 86.917969 210.832031 C 95.230469 205.414062 109.140625 199.035156 124.347656 192.398438 C 151.15625 180.679688 174.648438 180.601562 190.242188 180.550781 C 190.4375 180.550781 190.632812 180.550781 190.824219 180.550781 C 217.058594 180.550781 236.769531 185.757812 248.03125 188.820312 C 267.667969 194.1875 280.925781 200.59375 284.890625 202.539062 C 285.03125 202.605469 285.167969 202.671875 285.308594 202.742188 C 284.886719 204.199219 284.417969 205.664062 283.890625 207.128906 C 283.628906 206.996094 283.367188 206.863281 283.105469 206.734375 C 280.679688 205.53125 274.527344 202.554688 265.421875 199.21875 C 264.996094 198.789062 264.542969 198.367188 264.066406 197.953125 C 263.921875 197.78125 263.777344 197.617188 263.628906 197.449219 C 258.992188 192.257812 252.804688 189.316406 247.570312 189.316406 C 245.722656 189.316406 243.996094 189.683594 242.496094 190.449219 C 241.238281 190.609375 240.078125 190.910156 239.0625 191.351562 C 228.003906 188.671875 212.445312 185.734375 193.253906 185.734375 C 193.066406 185.734375 192.871094 185.734375 192.679688 185.734375 C 180.414062 185.777344 163.054688 185.839844 143.050781 192.066406 C 141.082031 190.699219 138.53125 190.03125 135.726562 190.03125 C 131.164062 190.03125 125.925781 191.800781 121.414062 195.230469 C 121.238281 195.359375 121.070312 195.492188 120.902344 195.625 C 120.285156 195.980469 119.699219 196.351562 119.140625 196.738281 C 116.40625 198.203125 114.367188 200.027344 113.335938 202.046875 C 112.878906 202.941406 112.621094 203.859375 112.566406 204.769531 C 102.664062 209.4375 94.53125 213.78125 90.027344 217.496094 C 89.765625 217.679688 89.53125 217.882812 89.324219 218.066406 C 88.957031 218.390625 88.597656 218.710938 88.25 219.019531 " fill-opacity="1" fill-rule="nonzero"/><path fill="#fef1d5" d="M 190.5 254.988281 C 181.105469 254.988281 172.726562 254.261719 165.863281 253.625 C 133.679688 250.644531 115.367188 248.949219 99.660156 233.84375 C 94.8125 229.175781 91.097656 224.089844 88.25 219.019531 C 88.597656 218.710938 88.957031 218.390625 89.324219 218.066406 C 89.53125 217.882812 89.765625 217.679688 90.027344 217.496094 C 94.53125 213.78125 102.664062 209.4375 112.566406 204.769531 C 112.535156 205.335938 112.582031 205.90625 112.707031 206.464844 C 112.726562 207.039062 112.828125 207.605469 113.011719 208.15625 C 112.996094 208.289062 112.980469 208.417969 112.972656 208.546875 C 112.714844 211.40625 113.511719 213.933594 115.273438 215.851562 C 117.347656 218.109375 120.523438 219.210938 124.125 219.210938 C 128.058594 219.210938 132.496094 217.894531 136.539062 215.332031 C 137.1875 215.257812 137.835938 215.164062 138.488281 215.054688 C 145.84375 213.84375 151.664062 210.644531 153.679688 206.710938 C 154.6875 204.742188 154.71875 202.683594 153.765625 200.757812 C 152.867188 198.945312 151.175781 197.398438 148.929688 196.179688 C 147.828125 194.476562 145.917969 193.195312 143.492188 192.390625 C 143.347656 192.277344 143.199219 192.171875 143.050781 192.066406 C 163.054688 185.839844 180.414062 185.777344 192.679688 185.734375 C 192.871094 185.734375 193.066406 185.734375 193.253906 185.734375 C 212.445312 185.734375 228.003906 188.671875 239.0625 191.351562 C 238.03125 191.800781 237.140625 192.390625 236.433594 193.128906 C 233.996094 193.894531 232.042969 195.089844 230.816406 196.699219 C 229.511719 198.40625 229.148438 200.433594 229.761719 202.554688 C 230.988281 206.804688 236.09375 211.054688 243.085938 213.652344 C 243.703125 213.882812 244.324219 214.097656 244.945312 214.292969 C 249.34375 218.453125 254.746094 220.773438 259.394531 220.773438 C 261.78125 220.773438 263.96875 220.164062 265.71875 218.871094 C 267.816406 217.320312 269.082031 214.992188 269.375 212.132812 C 269.386719 212.007812 269.398438 211.878906 269.40625 211.746094 C 269.691406 211.246094 269.894531 210.710938 270.027344 210.15625 C 270.628906 208.78125 270.707031 207.261719 270.253906 205.6875 C 269.625 203.507812 267.972656 201.328125 265.570312 199.367188 C 265.519531 199.316406 265.46875 199.269531 265.421875 199.21875 C 274.527344 202.554688 280.679688 205.53125 283.105469 206.734375 C 283.367188 206.863281 283.628906 206.996094 283.890625 207.128906 C 281.226562 214.53125 277.113281 221.9375 270.789062 228.441406 C 264.035156 235.394531 257.386719 238.671875 249.839844 242.308594 C 228.703125 252.496094 207.867188 254.988281 190.5 254.988281 M 259.335938 218.949219 C 256.1875 218.949219 252.585938 217.695312 249.265625 215.40625 C 251.679688 215.886719 254.058594 216.121094 256.296875 216.121094 C 257.644531 216.121094 258.949219 216.035156 260.175781 215.867188 C 262.859375 215.851562 265.226562 215.300781 266.992188 214.203125 C 266.5 215.496094 265.695312 216.570312 264.609375 217.371094 C 263.160156 218.441406 261.335938 218.949219 259.335938 218.949219 M 124.113281 217.390625 C 121.050781 217.390625 118.375 216.472656 116.644531 214.59375 C 115.734375 213.601562 115.152344 212.390625 114.910156 211.027344 C 116.4375 212.441406 118.648438 213.433594 121.28125 213.960938 C 124.359375 215.015625 128.03125 215.597656 131.929688 215.597656 C 131.984375 215.597656 132.035156 215.597656 132.085938 215.597656 C 129.367188 216.78125 126.609375 217.390625 124.113281 217.390625 M 132.386719 213.703125 C 133.695312 213.425781 135.011719 213.0625 136.324219 212.613281 C 136.894531 212.417969 137.449219 212.210938 137.988281 211.992188 C 137.765625 212.171875 137.539062 212.351562 137.304688 212.53125 C 136.847656 212.878906 136.382812 213.207031 135.910156 213.515625 C 134.730469 213.636719 133.550781 213.695312 132.386719 213.703125 M 249.34375 213.496094 C 248.199219 213.265625 247.054688 212.980469 245.914062 212.640625 C 245.507812 212.242188 245.113281 211.824219 244.730469 211.394531 C 244.535156 211.179688 244.347656 210.964844 244.167969 210.746094 C 244.652344 211.058594 245.152344 211.367188 245.671875 211.667969 C 246.878906 212.363281 248.109375 212.972656 249.34375 213.496094 M 139.785156 212.917969 C 141.113281 211.765625 142.289062 210.515625 143.28125 209.207031 C 147.683594 206.242188 150.207031 202.472656 149.921875 199.054688 C 150.894531 199.8125 151.636719 200.660156 152.097656 201.585938 C 152.789062 202.980469 152.761719 204.417969 152.019531 205.859375 C 150.410156 209.003906 145.792969 211.644531 139.785156 212.917969 M 242.21875 211.304688 C 236.5625 208.90625 232.535156 205.433594 231.554688 202.039062 C 231.105469 200.484375 231.355469 199.066406 232.296875 197.828125 C 232.921875 197.011719 233.8125 196.320312 234.910156 195.761719 C 233.980469 199.0625 235.742188 203.242188 239.492188 206.996094 C 240.21875 208.46875 241.132812 209.917969 242.21875 211.304688 " fill-opacity="1" fill-rule="nonzero"/><path fill="#986f53" d="M 203.246094 212.550781 C 203.1875 212.550781 203.128906 212.550781 203.070312 212.542969 C 202.183594 212.445312 201.542969 211.648438 201.640625 210.761719 C 201.816406 209.160156 201.816406 207.535156 201.640625 205.925781 C 201.425781 203.964844 200.949219 202.039062 200.226562 200.203125 C 199.898438 199.371094 200.304688 198.433594 201.136719 198.109375 C 201.96875 197.785156 202.902344 198.1875 203.230469 199.019531 C 204.058594 201.125 204.605469 203.328125 204.851562 205.574219 C 205.050781 207.417969 205.050781 209.28125 204.851562 211.113281 C 204.761719 211.941406 204.058594 212.550781 203.246094 212.550781 " fill-opacity="1" fill-rule="nonzero"/><path fill="#986f53" d="M 179.929688 212.554688 C 179.191406 212.554688 178.523438 212.042969 178.355469 211.289062 C 177.929688 209.363281 177.929688 207.328125 178.355469 205.398438 C 178.835938 203.246094 179.851562 201.207031 181.292969 199.515625 C 181.878906 198.839844 182.890625 198.761719 183.574219 199.335938 C 184.25 199.914062 184.328125 200.933594 183.753906 201.617188 C 182.984375 202.519531 181.96875 204.027344 181.507812 206.101562 C 181.097656 207.953125 181.28125 209.5625 181.507812 210.585938 C 181.703125 211.457031 181.15625 212.324219 180.285156 212.515625 C 180.167969 212.542969 180.046875 212.554688 179.929688 212.554688 " fill-opacity="1" fill-rule="nonzero"/><path fill="#f5c884" d="M 138.511719 65.8125 C 139.09375 68.109375 139.015625 70.886719 137.769531 74.203125 C 132.925781 87.132812 125.078125 74.023438 125.078125 74.023438 L 138.511719 65.8125 " fill-opacity="1" fill-rule="nonzero"/><path fill="#f5c884" d="M 193.5 53.398438 C 193.339844 62.921875 187.105469 79.632812 176.527344 82.285156 C 166.242188 84.855469 161.074219 65.910156 159.394531 57.277344 C 168.519531 54.59375 178.046875 53.140625 187.832031 53.191406 C 189.753906 53.207031 191.660156 53.269531 193.5 53.398438 " fill-opacity="1" fill-rule="nonzero"/><path fill="#f5c884" d="M 239.703125 67.429688 C 238.800781 70.292969 236.832031 73.652344 233.050781 77.4375 C 222.796875 87.699219 225.769531 69.464844 227.429688 61.496094 C 230.289062 62.710938 232.648438 63.824219 234.441406 64.699219 C 236.25 65.570312 238.007812 66.476562 239.703125 67.429688 " fill-opacity="1" fill-rule="nonzero"/><path fill="#f5c884" d="M 202.367188 77.4375 C 202.367188 77.4375 203.984375 54.804688 215.285156 69.351562 C 226.589844 83.902344 207.210938 95.214844 203.984375 88.75 C 200.753906 82.285156 202.367188 77.4375 202.367188 77.4375 " fill-opacity="1" fill-rule="nonzero"/><path fill="#f5c884" d="M 186.21875 103.296875 C 186.21875 103.296875 191.0625 79.050781 178.144531 93.601562 C 165.222656 108.148438 179.757812 109.761719 179.757812 109.761719 C 183.226562 108.992188 184.6875 107.738281 185.140625 106.410156 L 185.144531 106.402344 C 185.503906 105.367188 185.859375 104.332031 186.21875 103.296875 " fill-opacity="1" fill-rule="nonzero"/><path fill="#f5c884" d="M 142.613281 96.832031 C 142.929688 95.246094 147.460938 77.4375 153.917969 91.984375 C 160.378906 106.53125 149.074219 108.148438 149.074219 108.148438 C 149.074219 108.148438 141 104.914062 142.613281 96.832031 " fill-opacity="1" fill-rule="nonzero"/><path fill="#100a14" d="M 240.804688 163.09375 C 240.804688 167.808594 237.847656 171.628906 234.195312 171.628906 C 230.546875 171.628906 227.589844 167.808594 227.589844 163.09375 C 227.589844 158.382812 230.546875 154.558594 234.195312 154.558594 C 237.847656 154.558594 240.804688 158.382812 240.804688 163.09375 " fill-opacity="1" fill-rule="nonzero"/><path fill="#100a14" d="M 248.578125 150.941406 C 248.128906 150.941406 247.691406 150.699219 247.46875 150.273438 C 242.71875 141.332031 233.425781 141.1875 233.03125 141.1875 C 232.339844 141.179688 231.777344 140.621094 231.78125 139.925781 C 231.78125 139.230469 232.339844 138.671875 233.035156 138.671875 C 233.488281 138.671875 244.210938 138.789062 249.683594 149.09375 C 250.011719 149.707031 249.777344 150.46875 249.164062 150.792969 C 248.976562 150.894531 248.777344 150.941406 248.578125 150.941406 " fill-opacity="1" fill-rule="nonzero"/><path fill="#100a14" d="M 145.226562 163.09375 C 145.226562 167.808594 142.269531 171.628906 138.621094 171.628906 C 134.972656 171.628906 132.015625 167.808594 132.015625 163.09375 C 132.015625 158.382812 134.972656 154.558594 138.621094 154.558594 C 142.269531 154.558594 145.226562 158.382812 145.226562 163.09375 " fill-opacity="1" fill-rule="nonzero"/><path fill="#100a14" d="M 124.242188 150.941406 C 124.042969 150.941406 123.839844 150.894531 123.652344 150.792969 C 123.042969 150.46875 122.808594 149.707031 123.132812 149.09375 C 128.605469 138.789062 139.332031 138.671875 139.785156 138.671875 C 140.476562 138.671875 141.035156 139.230469 141.039062 139.925781 C 141.042969 140.621094 140.480469 141.179688 139.785156 141.1875 C 139.394531 141.1875 130.101562 141.332031 125.351562 150.273438 C 125.125 150.699219 124.691406 150.941406 124.242188 150.941406 " fill-opacity="1" fill-rule="nonzero"/><path fill="#fab3bb" d="M 134.871094 195.046875 C 132.878906 195.046875 130.847656 195.207031 128.828125 195.539062 C 122.042969 196.660156 116.746094 199.480469 114.996094 202.898438 C 114.257812 204.339844 114.230469 205.777344 114.921875 207.167969 L 114.921875 207.171875 C 117.371094 212.125 128.03125 214.882812 138.1875 213.21875 C 144.96875 212.097656 150.269531 209.277344 152.019531 205.859375 C 152.761719 204.417969 152.789062 202.980469 152.097656 201.585938 C 150.128906 197.617188 142.894531 195.046875 134.871094 195.046875 M 131.929688 215.597656 C 123.179688 215.597656 115.566406 212.675781 113.253906 208 C 112.296875 206.074219 112.328125 204.015625 113.335938 202.046875 C 115.347656 198.113281 121.167969 194.914062 128.527344 193.699219 C 139.804688 191.839844 150.886719 194.941406 153.765625 200.757812 C 154.71875 202.683594 154.6875 204.742188 153.679688 206.710938 C 151.664062 210.644531 145.84375 213.84375 138.488281 215.054688 C 136.277344 215.421875 134.070312 215.597656 131.929688 215.597656 " fill-opacity="1" fill-rule="nonzero"/><path fill="#fab3bb" d="M 135.734375 191.851562 C 131.597656 191.851562 126.746094 193.515625 122.539062 196.714844 C 118.078125 200.101562 115.195312 204.585938 114.824219 208.710938 C 114.617188 211.035156 115.246094 213.070312 116.644531 214.59375 C 120.710938 219.015625 129.980469 218.09375 137.304688 212.53125 C 141.765625 209.140625 144.648438 204.65625 145.019531 200.53125 C 145.226562 198.203125 144.59375 196.171875 143.195312 194.644531 C 141.46875 192.765625 138.796875 191.851562 135.734375 191.851562 M 124.125 219.210938 C 120.523438 219.210938 117.347656 218.109375 115.273438 215.851562 C 113.511719 213.933594 112.714844 211.40625 112.972656 208.546875 C 113.382812 203.90625 116.539062 198.929688 121.414062 195.230469 C 129.488281 189.101562 139.871094 188.273438 144.566406 193.386719 C 146.332031 195.304688 147.128906 197.832031 146.875 200.699219 C 146.460938 205.335938 143.304688 210.3125 138.433594 214.011719 C 133.921875 217.441406 128.683594 219.210938 124.125 219.210938 " fill-opacity="1" fill-rule="nonzero"/><path fill="#f6c7b1" d="M 116.964844 202.726562 C 118.046875 200.96875 119.507812 199.273438 121.265625 197.746094 C 123.429688 196.769531 126 196.003906 128.828125 195.539062 C 130.730469 195.226562 132.644531 195.070312 134.523438 195.050781 C 132.929688 195.671875 131.324219 196.335938 129.707031 197.039062 C 125.304688 198.96875 121.019531 200.867188 116.964844 202.726562 M 127.019531 193.980469 C 129.976562 192.574219 133.007812 191.851562 135.734375 191.851562 C 137.554688 191.851562 139.238281 192.175781 140.667969 192.832031 C 140.140625 193.007812 139.613281 193.1875 139.085938 193.371094 C 137.789062 193.234375 136.449219 193.160156 135.078125 193.160156 C 132.941406 193.160156 130.738281 193.335938 128.527344 193.699219 C 128.015625 193.785156 127.515625 193.878906 127.019531 193.980469 " fill-opacity="1" fill-rule="nonzero"/><path fill="#f8d1c6" d="M 121.28125 213.960938 C 118.648438 213.433594 116.4375 212.441406 114.910156 211.027344 C 114.859375 210.746094 114.824219 210.457031 114.804688 210.160156 C 116.34375 211.746094 118.585938 213.035156 121.28125 213.960938 M 132.15625 213.703125 C 124.269531 213.703125 117.140625 211.234375 115.027344 207.378906 C 115.359375 205.832031 116.019531 204.253906 116.964844 202.726562 C 121.019531 200.867188 125.304688 198.96875 129.707031 197.039062 C 131.324219 196.335938 132.929688 195.671875 134.523438 195.050781 C 134.640625 195.050781 134.757812 195.046875 134.871094 195.046875 C 138.289062 195.046875 141.5625 195.515625 144.347656 196.355469 C 144.925781 197.578125 145.15625 198.988281 145.019531 200.53125 C 144.667969 204.441406 142.058594 208.675781 137.988281 211.992188 C 137.449219 212.210938 136.894531 212.417969 136.324219 212.613281 C 135.011719 213.0625 133.695312 213.425781 132.386719 213.703125 C 132.3125 213.703125 132.234375 213.703125 132.15625 213.703125 M 142.382812 193.886719 C 141.324219 193.664062 140.21875 193.492188 139.085938 193.371094 C 139.613281 193.1875 140.140625 193.007812 140.667969 192.832031 C 141.289062 193.121094 141.863281 193.46875 142.382812 193.886719 " fill-opacity="1" fill-rule="nonzero"/><path fill="#f6b8bb" d="M 125.964844 214.402344 C 124.308594 214.402344 122.730469 214.25 121.28125 213.960938 C 118.585938 213.035156 116.34375 211.746094 114.804688 210.160156 C 114.773438 209.691406 114.78125 209.207031 114.824219 208.710938 C 114.867188 208.269531 114.933594 207.824219 115.027344 207.378906 C 117.140625 211.234375 124.269531 213.703125 132.15625 213.703125 C 132.234375 213.703125 132.3125 213.703125 132.386719 213.703125 C 130.183594 214.171875 128.015625 214.402344 125.964844 214.402344 M 121.265625 197.746094 C 121.671875 197.390625 122.097656 197.046875 122.539062 196.714844 C 123.976562 195.621094 125.488281 194.707031 127.019531 193.980469 C 127.515625 193.878906 128.015625 193.785156 128.527344 193.699219 C 130.738281 193.335938 132.941406 193.160156 135.078125 193.160156 C 136.449219 193.160156 137.789062 193.234375 139.085938 193.371094 C 140.21875 193.492188 141.324219 193.664062 142.382812 193.886719 C 142.671875 194.117188 142.945312 194.371094 143.195312 194.644531 C 143.667969 195.160156 144.054688 195.734375 144.347656 196.355469 C 141.5625 195.515625 138.289062 195.046875 134.871094 195.046875 C 134.757812 195.046875 134.640625 195.050781 134.523438 195.050781 C 132.644531 195.070312 130.730469 195.226562 128.828125 195.539062 C 126 196.003906 123.429688 196.769531 121.265625 197.746094 " fill-opacity="1" fill-rule="nonzero"/><path fill="#f8d1c6" d="M 143.28125 209.207031 C 145.347656 206.492188 146.621094 203.53125 146.875 200.699219 C 146.984375 199.453125 146.898438 198.269531 146.617188 197.171875 C 147.890625 197.710938 149.007812 198.34375 149.921875 199.054688 C 150.207031 202.472656 147.683594 206.242188 143.28125 209.207031 M 148.929688 196.179688 C 147.925781 195.636719 146.804688 195.15625 145.597656 194.75 C 145.304688 194.265625 144.960938 193.8125 144.566406 193.386719 C 144.234375 193.023438 143.875 192.695312 143.492188 192.390625 C 145.917969 193.195312 147.828125 194.476562 148.929688 196.179688 " fill-opacity="1" fill-rule="nonzero"/><path fill="#f6b8bb" d="M 149.921875 199.054688 C 149.007812 198.34375 147.890625 197.710938 146.617188 197.171875 C 146.398438 196.308594 146.054688 195.496094 145.597656 194.75 C 146.804688 195.15625 147.925781 195.636719 148.929688 196.179688 C 149.046875 196.363281 149.15625 196.550781 149.253906 196.738281 C 149.636719 197.484375 149.855469 198.261719 149.921875 199.054688 " fill-opacity="1" fill-rule="nonzero"/><path fill="#f6c7b1" d="M 119.140625 196.738281 C 119.699219 196.351562 120.285156 195.980469 120.902344 195.625 C 120.664062 195.816406 120.429688 196.007812 120.199219 196.207031 C 119.835938 196.375 119.484375 196.554688 119.140625 196.738281 " fill-opacity="1" fill-rule="nonzero"/><path fill="#f8d1c6" d="M 113.011719 208.15625 C 112.828125 207.605469 112.726562 207.039062 112.707031 206.464844 C 112.792969 206.859375 112.917969 207.253906 113.085938 207.640625 C 113.058594 207.8125 113.03125 207.984375 113.011719 208.15625 " fill-opacity="1" fill-rule="nonzero"/><path fill="#f6b8bb" d="M 113.085938 207.640625 C 112.917969 207.253906 112.792969 206.859375 112.707031 206.464844 C 112.574219 203.179688 114.992188 199.601562 119.140625 196.738281 C 119.484375 196.554688 119.835938 196.375 120.199219 196.207031 C 116.316406 199.523438 113.734375 203.667969 113.085938 207.640625 " fill-opacity="1" fill-rule="nonzero"/><path fill="#f6b8bb" d="M 137.988281 211.992188 C 142.058594 208.675781 144.667969 204.441406 145.019531 200.53125 C 145.15625 198.988281 144.925781 197.578125 144.347656 196.355469 C 144.054688 195.734375 143.667969 195.160156 143.195312 194.644531 C 142.945312 194.371094 142.671875 194.117188 142.382812 193.886719 C 141.863281 193.46875 141.289062 193.121094 140.667969 192.832031 C 139.238281 192.175781 137.554688 191.851562 135.734375 191.851562 C 133.007812 191.851562 129.976562 192.574219 127.019531 193.980469 C 125.488281 194.707031 123.976562 195.621094 122.539062 196.714844 C 122.097656 197.046875 121.671875 197.390625 121.265625 197.746094 C 119.507812 199.273438 118.046875 200.96875 116.964844 202.726562 C 116.019531 204.253906 115.359375 205.832031 115.027344 207.378906 C 114.933594 207.824219 114.867188 208.269531 114.824219 208.710938 C 114.78125 209.207031 114.773438 209.691406 114.804688 210.160156 C 114.824219 210.457031 114.859375 210.746094 114.910156 211.027344 C 114.28125 210.441406 113.765625 209.78125 113.390625 209.054688 C 113.238281 208.761719 113.113281 208.460938 113.011719 208.15625 C 113.03125 207.984375 113.058594 207.8125 113.085938 207.640625 C 113.734375 203.667969 116.316406 199.523438 120.199219 196.207031 C 120.429688 196.007812 120.664062 195.816406 120.902344 195.625 C 122.523438 194.691406 124.335938 193.863281 126.320312 193.179688 C 129.84375 191.96875 133.417969 191.394531 136.679688 191.394531 C 139.183594 191.394531 141.507812 191.734375 143.492188 192.390625 C 143.875 192.695312 144.234375 193.023438 144.566406 193.386719 C 144.960938 193.8125 145.304688 194.265625 145.597656 194.75 C 146.054688 195.496094 146.398438 196.308594 146.617188 197.171875 C 146.898438 198.269531 146.984375 199.453125 146.875 200.699219 C 146.621094 203.53125 145.347656 206.492188 143.28125 209.207031 C 141.734375 210.25 139.957031 211.195312 137.988281 211.992188 " fill-opacity="1" fill-rule="nonzero"/><path fill="#fab3bb" d="M 243.742188 194.035156 C 238.5625 194.035156 234.199219 195.335938 232.296875 197.828125 C 231.355469 199.066406 231.105469 200.484375 231.554688 202.039062 C 232.621094 205.726562 237.285156 209.511719 243.730469 211.90625 C 253.382812 215.488281 264.371094 214.8125 267.722656 210.414062 C 268.664062 209.179688 268.917969 207.761719 268.464844 206.203125 C 267.398438 202.515625 262.730469 198.734375 256.289062 196.339844 C 252.113281 194.789062 247.691406 194.035156 243.742188 194.035156 M 256.296875 216.121094 C 252.160156 216.121094 247.554688 215.316406 243.085938 213.652344 C 236.09375 211.054688 230.988281 206.804688 229.761719 202.554688 C 229.148438 200.433594 229.511719 198.40625 230.816406 196.699219 C 234.75 191.535156 246.222656 190.609375 256.9375 194.59375 C 263.921875 197.191406 269.027344 201.441406 270.253906 205.6875 C 270.867188 207.8125 270.507812 209.839844 269.203125 211.546875 L 269.203125 211.550781 C 266.910156 214.554688 262.0625 216.121094 256.296875 216.121094 " fill-opacity="1" fill-rule="nonzero"/><path fill="#fab3bb" d="M 247.632812 191.140625 C 245.628906 191.140625 243.808594 191.648438 242.355469 192.71875 C 240.691406 193.949219 239.683594 195.828125 239.445312 198.148438 C 239.019531 202.265625 240.992188 207.21875 244.730469 211.394531 C 250.851562 218.257812 259.777344 220.9375 264.609375 217.371094 C 266.273438 216.144531 267.28125 214.265625 267.519531 211.945312 C 267.945312 207.824219 265.972656 202.871094 262.238281 198.695312 C 257.949219 193.894531 252.296875 191.140625 247.632812 191.140625 M 259.394531 220.773438 C 254.160156 220.773438 247.976562 217.832031 243.335938 212.640625 C 239.257812 208.074219 237.113281 202.585938 237.589844 197.957031 C 237.886719 195.097656 239.148438 192.765625 241.246094 191.21875 C 246.835938 187.101562 256.875 189.890625 263.628906 197.449219 C 267.703125 202.015625 269.851562 207.503906 269.375 212.132812 C 269.082031 214.992188 267.816406 217.320312 265.71875 218.871094 C 263.96875 220.164062 261.78125 220.773438 259.394531 220.773438 " fill-opacity="1" fill-rule="nonzero"/><path fill="#f8d1c6" d="M 260.175781 215.867188 C 263 215.472656 265.445312 214.636719 267.261719 213.375 C 267.183594 213.660156 267.097656 213.9375 266.992188 214.203125 C 265.226562 215.300781 262.859375 215.851562 260.175781 215.867188 M 256.273438 214.210938 C 254.070312 214.210938 251.71875 213.972656 249.34375 213.496094 C 248.109375 212.972656 246.878906 212.363281 245.671875 211.667969 C 245.152344 211.367188 244.652344 211.058594 244.167969 210.746094 C 240.796875 206.710938 239.039062 202.054688 239.445312 198.148438 C 239.605469 196.609375 240.101562 195.265625 240.902344 194.175781 C 241.8125 194.082031 242.765625 194.035156 243.742188 194.035156 C 247.691406 194.035156 252.113281 194.789062 256.289062 196.339844 C 258.976562 197.339844 261.355469 198.582031 263.292969 199.953125 C 265.976562 203.382812 267.515625 207.199219 267.574219 210.601562 C 265.601562 212.976562 261.328125 214.210938 256.273438 214.210938 " fill-opacity="1" fill-rule="nonzero"/><path fill="#f6c7b1" d="M 258.363281 195.15625 C 257.898438 194.960938 257.421875 194.773438 256.9375 194.59375 C 252.460938 192.929688 247.855469 192.121094 243.71875 192.121094 C 243.582031 192.121094 243.441406 192.121094 243.304688 192.125 C 244.570312 191.460938 246.042969 191.140625 247.632812 191.140625 C 250.992188 191.140625 254.859375 192.566406 258.363281 195.15625 " fill-opacity="1" fill-rule="nonzero"/><path fill="#f6b8bb" d="M 260.074219 215.867188 C 256.796875 215.867188 253.050781 215.070312 249.34375 213.496094 C 251.71875 213.972656 254.070312 214.210938 256.273438 214.210938 C 261.328125 214.210938 265.601562 212.976562 267.574219 210.601562 C 267.582031 211.054688 267.566406 211.503906 267.519531 211.945312 C 267.46875 212.441406 267.382812 212.921875 267.261719 213.375 C 265.445312 214.636719 263 215.472656 260.175781 215.867188 C 260.144531 215.867188 260.109375 215.867188 260.074219 215.867188 M 263.292969 199.953125 C 261.355469 198.582031 258.976562 197.339844 256.289062 196.339844 C 252.113281 194.789062 247.691406 194.035156 243.742188 194.035156 C 242.765625 194.035156 241.8125 194.082031 240.902344 194.175781 C 241.308594 193.621094 241.792969 193.132812 242.355469 192.71875 C 242.65625 192.496094 242.972656 192.300781 243.304688 192.125 C 243.441406 192.121094 243.582031 192.121094 243.71875 192.121094 C 247.855469 192.121094 252.460938 192.929688 256.9375 194.59375 C 257.421875 194.773438 257.898438 194.960938 258.363281 195.15625 C 259.726562 196.167969 261.035156 197.351562 262.238281 198.695312 C 262.605469 199.105469 262.957031 199.527344 263.292969 199.953125 " fill-opacity="1" fill-rule="nonzero"/><path fill="#f8d1c6" d="M 269.40625 211.746094 C 269.421875 211.574219 269.429688 211.402344 269.433594 211.230469 C 269.671875 210.882812 269.867188 210.523438 270.027344 210.15625 C 269.894531 210.710938 269.691406 211.246094 269.40625 211.746094 " fill-opacity="1" fill-rule="nonzero"/><path fill="#f6c7b1" d="M 265.421875 199.21875 C 265.398438 199.210938 265.375 199.203125 265.351562 199.191406 C 265.121094 199.011719 264.882812 198.828125 264.640625 198.648438 C 264.453125 198.414062 264.261719 198.179688 264.066406 197.953125 C 264.542969 198.367188 264.996094 198.789062 265.421875 199.21875 " fill-opacity="1" fill-rule="nonzero"/><path fill="#f8d1c6" d="M 265.570312 199.367188 C 265.496094 199.308594 265.425781 199.25 265.351562 199.191406 C 265.375 199.203125 265.398438 199.210938 265.421875 199.21875 C 265.46875 199.269531 265.519531 199.316406 265.570312 199.367188 " fill-opacity="1" fill-rule="nonzero"/><path fill="#f6b8bb" d="M 269.433594 211.230469 C 269.554688 207.207031 267.8125 202.652344 264.640625 198.648438 C 264.882812 198.828125 265.121094 199.011719 265.351562 199.191406 C 265.425781 199.25 265.496094 199.308594 265.570312 199.367188 C 269.097656 202.976562 270.789062 206.953125 270.027344 210.15625 C 269.867188 210.523438 269.671875 210.882812 269.433594 211.230469 " fill-opacity="1" fill-rule="nonzero"/><path fill="#f8d1c6" d="M 239.492188 206.996094 C 235.742188 203.242188 233.980469 199.0625 234.910156 195.761719 C 235.945312 195.238281 237.164062 194.828125 238.515625 194.542969 C 238.03125 195.566406 237.71875 196.710938 237.589844 197.957031 C 237.296875 200.785156 237.984375 203.933594 239.492188 206.996094 " fill-opacity="1" fill-rule="nonzero"/><path fill="#f6c7b1" d="M 240.613281 191.734375 C 240.105469 191.605469 239.589844 191.480469 239.0625 191.351562 C 240.078125 190.910156 241.238281 190.609375 242.496094 190.449219 C 242.058594 190.671875 241.640625 190.929688 241.246094 191.21875 C 241.027344 191.382812 240.816406 191.554688 240.613281 191.734375 " fill-opacity="1" fill-rule="nonzero"/><path fill="#f8d1c6" d="M 236.433594 193.128906 C 237.140625 192.390625 238.03125 191.800781 239.0625 191.351562 C 239.589844 191.480469 240.105469 191.605469 240.613281 191.734375 C 240.390625 191.933594 240.175781 192.140625 239.976562 192.359375 C 238.714844 192.527344 237.527344 192.785156 236.433594 193.128906 " fill-opacity="1" fill-rule="nonzero"/><path fill="#f6b8bb" d="M 234.910156 195.761719 C 235.128906 194.992188 235.492188 194.273438 236.007812 193.617188 C 236.140625 193.445312 236.285156 193.285156 236.433594 193.128906 C 237.527344 192.785156 238.714844 192.527344 239.976562 192.359375 C 239.386719 193.007812 238.898438 193.734375 238.515625 194.542969 C 237.164062 194.828125 235.945312 195.238281 234.910156 195.761719 " fill-opacity="1" fill-rule="nonzero"/><path fill="#f6b8bb" d="M 266.992188 214.203125 C 267.097656 213.9375 267.183594 213.660156 267.261719 213.375 C 267.382812 212.921875 267.46875 212.441406 267.519531 211.945312 C 267.566406 211.503906 267.582031 211.054688 267.574219 210.601562 C 267.515625 207.199219 265.976562 203.382812 263.292969 199.953125 C 262.957031 199.527344 262.605469 199.105469 262.238281 198.695312 C 261.035156 197.351562 259.726562 196.167969 258.363281 195.15625 C 254.859375 192.566406 250.992188 191.140625 247.632812 191.140625 C 246.042969 191.140625 244.570312 191.460938 243.304688 192.125 C 242.972656 192.300781 242.65625 192.496094 242.355469 192.71875 C 241.792969 193.132812 241.308594 193.621094 240.902344 194.175781 C 240.101562 195.265625 239.605469 196.609375 239.445312 198.148438 C 239.039062 202.054688 240.796875 206.710938 244.167969 210.746094 C 242.382812 209.585938 240.816406 208.316406 239.492188 206.996094 C 237.984375 203.933594 237.296875 200.785156 237.589844 197.957031 C 237.71875 196.710938 238.03125 195.566406 238.515625 194.542969 C 238.898438 193.734375 239.386719 193.007812 239.976562 192.359375 C 240.175781 192.140625 240.390625 191.933594 240.613281 191.734375 C 240.816406 191.554688 241.027344 191.382812 241.246094 191.21875 C 241.640625 190.929688 242.058594 190.671875 242.496094 190.449219 C 243.230469 190.355469 244.003906 190.308594 244.800781 190.308594 C 249.171875 190.308594 254.371094 191.722656 259.199219 194.507812 C 261.023438 195.554688 262.65625 196.722656 264.066406 197.953125 C 264.261719 198.179688 264.453125 198.414062 264.640625 198.648438 C 267.8125 202.652344 269.554688 207.207031 269.433594 211.230469 C 269.429688 211.402344 269.421875 211.574219 269.40625 211.746094 C 269.25 212.027344 269.070312 212.296875 268.867188 212.554688 C 268.355469 213.199219 267.726562 213.75 266.992188 214.203125 " fill-opacity="1" fill-rule="nonzero"/><path fill="#100a14" d="M 192.625 247.558594 C 183.050781 247.558594 171.964844 245.308594 160.4375 238.421875 C 159.828125 238.054688 159.625 237.257812 159.992188 236.640625 C 160.355469 236.027344 161.152344 235.828125 161.769531 236.195312 C 193.449219 255.136719 221.613281 237.578125 221.894531 237.398438 C 222.496094 237.011719 223.296875 237.183594 223.683594 237.792969 C 224.070312 238.394531 223.890625 239.195312 223.289062 239.582031 C 223.097656 239.707031 210.511719 247.558594 192.625 247.558594 " fill-opacity="1" fill-rule="nonzero"/><g fill="#47351b" fill-opacity="1"><g transform="translate(53.366796, 322.612391)"><g><path d="M 7.5625 0 C 6.351562 -0.03125 5.378906 -0.222656 4.640625 -0.578125 C 3.910156 -0.929688 3.359375 -1.515625 2.984375 -2.328125 C 2.617188 -3.140625 2.4375 -4.226562 2.4375 -5.59375 L 2.4375 -22.25 C 2.4375 -23.644531 2.84375 -24.78125 3.65625 -25.65625 C 4.476562 -26.539062 5.554688 -26.984375 6.890625 -26.984375 C 8.460938 -26.984375 9.625 -26.691406 10.375 -26.109375 C 11.125 -25.535156 11.5 -24.367188 11.5 -22.609375 L 11.5 -6.8125 L 18.234375 -6.8125 C 19.753906 -6.8125 20.820312 -6.585938 21.4375 -6.140625 C 22.0625 -5.691406 22.375 -4.773438 22.375 -3.390625 C 22.375 -1.972656 22.019531 -1.050781 21.3125 -0.625 C 20.601562 -0.207031 19.445312 0 17.84375 0 Z M 7.5625 0 "/></g></g></g><g fill="#47351b" fill-opacity="1"><g transform="translate(77.315897, 322.612391)"><g><path d="M 10.234375 -4.21875 C 10.234375 -2.632812 9.90625 -1.535156 9.25 -0.921875 C 8.59375 -0.304688 7.441406 0 5.796875 0 C 4.242188 0 3.179688 -0.359375 2.609375 -1.078125 C 2.046875 -1.804688 1.765625 -2.992188 1.765625 -4.640625 L 1.765625 -14.34375 C 1.765625 -15.675781 2.125 -16.75 2.84375 -17.5625 C 3.570312 -18.382812 4.539062 -18.796875 5.75 -18.796875 C 7.164062 -18.796875 8.265625 -18.484375 9.046875 -17.859375 C 9.835938 -17.242188 10.234375 -16.109375 10.234375 -14.453125 Z M 1.6875 -24.265625 C 1.6875 -23.210938 2.09375 -22.445312 2.90625 -21.96875 C 3.726562 -21.5 4.753906 -21.265625 5.984375 -21.265625 C 7.378906 -21.265625 8.441406 -21.488281 9.171875 -21.9375 C 9.910156 -22.382812 10.28125 -23.160156 10.28125 -24.265625 C 10.28125 -26.265625 8.847656 -27.265625 5.984375 -27.265625 C 4.617188 -27.265625 3.5625 -26.988281 2.8125 -26.4375 C 2.0625 -25.882812 1.6875 -25.160156 1.6875 -24.265625 Z M 1.6875 -24.265625 "/></g></g></g><g fill="#47351b" fill-opacity="1"><g transform="translate(89.329829, 322.612391)"><g><path d="M 3.78125 -8.421875 L 3.78125 -13.078125 C 3.125 -13.097656 2.597656 -13.207031 2.203125 -13.40625 C 1.804688 -13.601562 1.523438 -13.859375 1.359375 -14.171875 C 1.191406 -14.492188 1.109375 -14.890625 1.109375 -15.359375 C 1.109375 -16.859375 2.015625 -17.671875 3.828125 -17.796875 L 3.828125 -21.46875 C 3.828125 -22.46875 4.546875 -23.367188 5.984375 -24.171875 C 7.429688 -24.972656 8.863281 -25.375 10.28125 -25.375 C 11.144531 -25.375 11.707031 -25.125 11.96875 -24.625 C 12.238281 -24.125 12.375 -23.375 12.375 -22.375 L 12.40625 -17.84375 L 13.46875 -17.84375 C 14.914062 -17.84375 15.90625 -17.648438 16.4375 -17.265625 C 16.976562 -16.890625 17.25 -16.203125 17.25 -15.203125 C 17.25 -14.785156 17.171875 -14.429688 17.015625 -14.140625 C 16.859375 -13.847656 16.601562 -13.625 16.25 -13.46875 C 15.894531 -13.3125 15.46875 -13.195312 14.96875 -13.125 C 14.46875 -13.0625 13.847656 -13.03125 13.109375 -13.03125 L 12.40625 -13.03125 L 12.40625 -8.703125 C 12.40625 -8.285156 12.425781 -7.9375 12.46875 -7.65625 C 12.507812 -7.382812 12.566406 -7.171875 12.640625 -7.015625 C 12.722656 -6.859375 12.835938 -6.753906 12.984375 -6.703125 C 13.128906 -6.648438 13.304688 -6.625 13.515625 -6.625 C 13.828125 -6.625 14.085938 -6.734375 14.296875 -6.953125 C 14.503906 -7.171875 14.664062 -7.414062 14.78125 -7.6875 C 14.90625 -7.96875 15.066406 -8.21875 15.265625 -8.4375 C 15.460938 -8.664062 15.691406 -8.78125 15.953125 -8.78125 C 16.554688 -8.78125 17.019531 -8.632812 17.34375 -8.34375 C 17.675781 -8.0625 17.84375 -7.707031 17.84375 -7.28125 C 17.84375 -6.570312 17.703125 -5.8125 17.421875 -5 C 17.148438 -4.1875 16.75 -3.398438 16.21875 -2.640625 C 15.695312 -1.878906 14.96875 -1.25 14.03125 -0.75 C 13.101562 -0.25 12.0625 0 10.90625 0 C 8.3125 0 6.472656 -0.65625 5.390625 -1.96875 C 4.316406 -3.28125 3.78125 -5.429688 3.78125 -8.421875 Z M 3.78125 -8.421875 "/></g></g></g><g fill="#47351b" fill-opacity="1"><g transform="translate(109.064193, 322.612391)"><g><path d="M 3.78125 -8.421875 L 3.78125 -13.078125 C 3.125 -13.097656 2.597656 -13.207031 2.203125 -13.40625 C 1.804688 -13.601562 1.523438 -13.859375 1.359375 -14.171875 C 1.191406 -14.492188 1.109375 -14.890625 1.109375 -15.359375 C 1.109375 -16.859375 2.015625 -17.671875 3.828125 -17.796875 L 3.828125 -21.46875 C 3.828125 -22.46875 4.546875 -23.367188 5.984375 -24.171875 C 7.429688 -24.972656 8.863281 -25.375 10.28125 -25.375 C 11.144531 -25.375 11.707031 -25.125 11.96875 -24.625 C 12.238281 -24.125 12.375 -23.375 12.375 -22.375 L 12.40625 -17.84375 L 13.46875 -17.84375 C 14.914062 -17.84375 15.90625 -17.648438 16.4375 -17.265625 C 16.976562 -16.890625 17.25 -16.203125 17.25 -15.203125 C 17.25 -14.785156 17.171875 -14.429688 17.015625 -14.140625 C 16.859375 -13.847656 16.601562 -13.625 16.25 -13.46875 C 15.894531 -13.3125 15.46875 -13.195312 14.96875 -13.125 C 14.46875 -13.0625 13.847656 -13.03125 13.109375 -13.03125 L 12.40625 -13.03125 L 12.40625 -8.703125 C 12.40625 -8.285156 12.425781 -7.9375 12.46875 -7.65625 C 12.507812 -7.382812 12.566406 -7.171875 12.640625 -7.015625 C 12.722656 -6.859375 12.835938 -6.753906 12.984375 -6.703125 C 13.128906 -6.648438 13.304688 -6.625 13.515625 -6.625 C 13.828125 -6.625 14.085938 -6.734375 14.296875 -6.953125 C 14.503906 -7.171875 14.664062 -7.414062 14.78125 -7.6875 C 14.90625 -7.96875 15.066406 -8.21875 15.265625 -8.4375 C 15.460938 -8.664062 15.691406 -8.78125 15.953125 -8.78125 C 16.554688 -8.78125 17.019531 -8.632812 17.34375 -8.34375 C 17.675781 -8.0625 17.84375 -7.707031 17.84375 -7.28125 C 17.84375 -6.570312 17.703125 -5.8125 17.421875 -5 C 17.148438 -4.1875 16.75 -3.398438 16.21875 -2.640625 C 15.695312 -1.878906 14.96875 -1.25 14.03125 -0.75 C 13.101562 -0.25 12.0625 0 10.90625 0 C 8.3125 0 6.472656 -0.65625 5.390625 -1.96875 C 4.316406 -3.28125 3.78125 -5.429688 3.78125 -8.421875 Z M 3.78125 -8.421875 "/></g></g></g><g fill="#47351b" fill-opacity="1"><g transform="translate(128.798556, 322.612391)"><g><path d="M 10.4375 -5.953125 C 10.4375 -3.816406 10.078125 -2.289062 9.359375 -1.375 C 8.648438 -0.457031 7.5625 0 6.09375 0 C 4.625 0 3.546875 -0.410156 2.859375 -1.234375 C 2.179688 -2.066406 1.84375 -3.535156 1.84375 -5.640625 L 1.765625 -22.25 C 1.765625 -22.9375 1.835938 -23.539062 1.984375 -24.0625 C 2.128906 -24.59375 2.328125 -25.039062 2.578125 -25.40625 C 2.828125 -25.769531 3.132812 -26.070312 3.5 -26.3125 C 3.863281 -26.550781 4.257812 -26.722656 4.6875 -26.828125 C 5.125 -26.929688 5.59375 -26.984375 6.09375 -26.984375 C 7.539062 -26.984375 8.625 -26.691406 9.34375 -26.109375 C 10.070312 -25.535156 10.4375 -24.367188 10.4375 -22.609375 Z M 10.4375 -5.953125 "/></g></g></g><g fill="#47351b" fill-opacity="1"><g transform="translate(141.088224, 322.612391)"><g><path d="M 9.921875 -11.03125 C 11.734375 -11.050781 12.71875 -11.0625 12.875 -11.0625 C 13.269531 -11.0625 13.554688 -11.300781 13.734375 -11.78125 C 13.867188 -12.125 13.9375 -12.597656 13.9375 -13.203125 C 13.9375 -14.847656 13.4375 -15.671875 12.4375 -15.671875 C 12.070312 -15.671875 11.710938 -15.472656 11.359375 -15.078125 C 11.003906 -14.691406 10.691406 -14.132812 10.421875 -13.40625 C 10.160156 -12.6875 9.992188 -11.894531 9.921875 -11.03125 Z M 12.59375 0.234375 C 9.394531 0.234375 6.75 -0.59375 4.65625 -2.25 C 2.570312 -3.90625 1.53125 -6.160156 1.53125 -9.015625 C 1.53125 -12.117188 2.5625 -14.566406 4.625 -16.359375 C 6.6875 -18.160156 9.34375 -19.0625 12.59375 -19.0625 C 15.664062 -19.0625 17.914062 -18.515625 19.34375 -17.421875 C 20.78125 -16.335938 21.5 -14.847656 21.5 -12.953125 C 21.5 -12.585938 21.453125 -12.234375 21.359375 -11.890625 C 21.265625 -11.554688 21.117188 -11.222656 20.921875 -10.890625 C 20.734375 -10.566406 20.472656 -10.265625 20.140625 -9.984375 C 19.804688 -9.710938 19.429688 -9.460938 19.015625 -9.234375 C 18.597656 -9.015625 18.097656 -8.84375 17.515625 -8.71875 C 16.941406 -8.601562 16.328125 -8.546875 15.671875 -8.546875 L 10.109375 -8.515625 C 10.378906 -7.671875 10.851562 -7.003906 11.53125 -6.515625 C 12.21875 -6.035156 13.085938 -5.796875 14.140625 -5.796875 C 15.265625 -5.796875 16.414062 -5.9375 17.59375 -6.21875 C 18.09375 -6.351562 18.640625 -6.5625 19.234375 -6.84375 C 19.828125 -7.132812 20.253906 -7.28125 20.515625 -7.28125 C 20.960938 -7.28125 21.3125 -7.148438 21.5625 -6.890625 C 21.8125 -6.628906 21.9375 -6.300781 21.9375 -5.90625 C 21.9375 -5.4375 21.722656 -4.863281 21.296875 -4.1875 C 20.878906 -3.519531 20.296875 -2.851562 19.546875 -2.1875 C 18.796875 -1.519531 17.800781 -0.945312 16.5625 -0.46875 C 15.332031 0 14.007812 0.234375 12.59375 0.234375 Z M 12.59375 0.234375 "/></g></g></g><g fill="#47351b" fill-opacity="1"><g transform="translate(164.52525, 322.612391)"><g/></g></g><g fill="#47351b" fill-opacity="1"><g transform="translate(175.160535, 322.612391)"><g><path d="M 17.796875 -20.359375 C 17.796875 -21.179688 17.257812 -21.59375 16.1875 -21.59375 C 15.082031 -21.59375 14.132812 -20.972656 13.34375 -19.734375 C 12.5625 -18.503906 12.171875 -16.441406 12.171875 -13.546875 C 12.171875 -10.867188 12.625 -8.921875 13.53125 -7.703125 C 14.4375 -6.484375 15.503906 -5.875 16.734375 -5.875 C 17.128906 -5.875 17.488281 -5.953125 17.8125 -6.109375 C 18.144531 -6.265625 18.414062 -6.5 18.625 -6.8125 C 18.84375 -7.125 18.953125 -7.503906 18.953125 -7.953125 C 18.316406 -7.953125 17.769531 -8.070312 17.3125 -8.3125 C 16.851562 -8.550781 16.519531 -8.847656 16.3125 -9.203125 C 16.101562 -9.554688 16 -9.941406 16 -10.359375 C 16 -11.304688 16.242188 -12.015625 16.734375 -12.484375 C 17.234375 -12.960938 18.085938 -13.203125 19.296875 -13.203125 L 24.0625 -13.203125 C 25.59375 -13.203125 26.773438 -12.867188 27.609375 -12.203125 C 28.453125 -11.546875 28.875 -10.394531 28.875 -8.75 C 28.875 -6.332031 27.71875 -4.222656 25.40625 -2.421875 C 23.09375 -0.617188 20.347656 0.28125 17.171875 0.28125 C 14.253906 0.28125 11.660156 -0.242188 9.390625 -1.296875 C 7.117188 -2.347656 5.320312 -3.914062 4 -6 C 2.675781 -8.09375 2.015625 -10.570312 2.015625 -13.4375 C 2.015625 -17.6875 3.300781 -21.046875 5.875 -23.515625 C 8.445312 -25.984375 11.859375 -27.21875 16.109375 -27.21875 C 17.785156 -27.21875 19.296875 -27.09375 20.640625 -26.84375 C 21.984375 -26.59375 23.09375 -26.253906 23.96875 -25.828125 C 24.84375 -25.410156 25.578125 -24.90625 26.171875 -24.3125 C 26.765625 -23.726562 27.1875 -23.109375 27.4375 -22.453125 C 27.6875 -21.796875 27.8125 -21.113281 27.8125 -20.40625 C 27.8125 -19.90625 27.734375 -19.425781 27.578125 -18.96875 C 27.421875 -18.507812 27.132812 -18.050781 26.71875 -17.59375 C 26.3125 -17.132812 25.6875 -16.757812 24.84375 -16.46875 C 24.007812 -16.175781 23.003906 -16.03125 21.828125 -16.03125 C 20.085938 -16.03125 18.976562 -16.285156 18.5 -16.796875 C 18.03125 -17.304688 17.796875 -18.492188 17.796875 -20.359375 Z M 17.796875 -20.359375 "/></g></g></g><g fill="#47351b" fill-opacity="1"><g transform="translate(205.963478, 322.612391)"><g><path d="M 10.234375 -4.21875 C 10.234375 -2.632812 9.90625 -1.535156 9.25 -0.921875 C 8.59375 -0.304688 7.441406 0 5.796875 0 C 4.242188 0 3.179688 -0.359375 2.609375 -1.078125 C 2.046875 -1.804688 1.765625 -2.992188 1.765625 -4.640625 L 1.765625 -14.34375 C 1.765625 -15.675781 2.125 -16.75 2.84375 -17.5625 C 3.570312 -18.382812 4.539062 -18.796875 5.75 -18.796875 C 7.164062 -18.796875 8.265625 -18.484375 9.046875 -17.859375 C 9.835938 -17.242188 10.234375 -16.109375 10.234375 -14.453125 Z M 1.6875 -24.265625 C 1.6875 -23.210938 2.09375 -22.445312 2.90625 -21.96875 C 3.726562 -21.5 4.753906 -21.265625 5.984375 -21.265625 C 7.378906 -21.265625 8.441406 -21.488281 9.171875 -21.9375 C 9.910156 -22.382812 10.28125 -23.160156 10.28125 -24.265625 C 10.28125 -26.265625 8.847656 -27.265625 5.984375 -27.265625 C 4.617188 -27.265625 3.5625 -26.988281 2.8125 -26.4375 C 2.0625 -25.882812 1.6875 -25.160156 1.6875 -24.265625 Z M 1.6875 -24.265625 "/></g></g></g><g fill="#47351b" fill-opacity="1"><g transform="translate(217.97741, 322.612391)"><g><path d="M 10.234375 -4.21875 C 10.234375 -2.632812 9.90625 -1.535156 9.25 -0.921875 C 8.59375 -0.304688 7.425781 0 5.75 0 C 4.195312 0 3.144531 -0.359375 2.59375 -1.078125 C 2.039062 -1.804688 1.765625 -2.992188 1.765625 -4.640625 L 1.765625 -14.34375 C 1.765625 -15.226562 1.921875 -16.003906 2.234375 -16.671875 C 2.546875 -17.347656 3.003906 -17.867188 3.609375 -18.234375 C 4.210938 -18.609375 4.925781 -18.796875 5.75 -18.796875 C 7.738281 -18.796875 9.050781 -18.21875 9.6875 -17.0625 C 11.207031 -18.21875 12.675781 -18.796875 14.09375 -18.796875 C 16.851562 -18.796875 18.234375 -17.476562 18.234375 -14.84375 C 18.234375 -13.800781 17.929688 -12.953125 17.328125 -12.296875 C 16.722656 -11.640625 15.929688 -11.3125 14.953125 -11.3125 C 14.378906 -11.3125 13.914062 -11.425781 13.5625 -11.65625 C 13.207031 -11.894531 12.878906 -12.128906 12.578125 -12.359375 C 12.273438 -12.597656 11.925781 -12.71875 11.53125 -12.71875 C 10.957031 -12.71875 10.523438 -12.519531 10.234375 -12.125 Z M 10.234375 -4.21875 "/></g></g></g><g fill="#47351b" fill-opacity="1"><g transform="translate(236.569464, 322.612391)"><g><path d="M 14.21875 -13.03125 C 13.769531 -13.800781 13.191406 -14.1875 12.484375 -14.1875 C 11.804688 -14.1875 11.253906 -13.6875 10.828125 -12.6875 C 10.410156 -11.6875 10.203125 -10.539062 10.203125 -9.25 C 10.203125 -8.039062 10.398438 -6.960938 10.796875 -6.015625 C 11.191406 -5.078125 11.742188 -4.609375 12.453125 -4.609375 C 13.179688 -4.609375 13.769531 -4.960938 14.21875 -5.671875 Z M 8.859375 0.234375 C 6.785156 0.234375 5.066406 -0.609375 3.703125 -2.296875 C 2.335938 -3.992188 1.65625 -6.3125 1.65625 -9.25 C 1.65625 -12.25 2.332031 -14.632812 3.6875 -16.40625 C 5.039062 -18.175781 6.765625 -19.0625 8.859375 -19.0625 C 10.984375 -19.0625 12.953125 -18.3125 14.765625 -16.8125 C 15.472656 -18.132812 16.617188 -18.796875 18.203125 -18.796875 C 19.617188 -18.796875 20.71875 -18.484375 21.5 -17.859375 C 22.289062 -17.242188 22.6875 -16.109375 22.6875 -14.453125 L 22.6875 -4.21875 C 22.6875 -2.632812 22.359375 -1.535156 21.703125 -0.921875 C 21.046875 -0.304688 19.890625 0 18.234375 0 C 16.503906 0 15.363281 -0.484375 14.8125 -1.453125 C 13.132812 -0.328125 11.148438 0.234375 8.859375 0.234375 Z M 8.859375 0.234375 "/></g></g></g><g fill="#47351b" fill-opacity="1"><g transform="translate(261.1488, 322.612391)"><g><path d="M 12.53125 -17.609375 C 12.53125 -19.234375 12.796875 -20.269531 13.328125 -20.71875 C 13.867188 -21.164062 14.785156 -21.390625 16.078125 -21.390625 C 16.679688 -21.390625 17.144531 -21.53125 17.46875 -21.8125 C 17.800781 -22.101562 17.96875 -22.460938 17.96875 -22.890625 C 17.96875 -23.804688 17.363281 -24.707031 16.15625 -25.59375 C 14.945312 -26.488281 13.238281 -26.9375 11.03125 -26.9375 C 9.613281 -26.9375 8.453125 -26.753906 7.546875 -26.390625 C 6.640625 -26.023438 5.921875 -25.429688 5.390625 -24.609375 C 4.867188 -23.796875 4.507812 -22.84375 4.3125 -21.75 C 4.113281 -20.664062 4.015625 -19.269531 4.015625 -17.5625 C 2.046875 -17.457031 1.0625 -16.632812 1.0625 -15.09375 C 1.0625 -14.351562 1.285156 -13.789062 1.734375 -13.40625 C 2.179688 -13.03125 2.929688 -12.828125 3.984375 -12.796875 L 3.9375 -5.640625 C 3.9375 -3.535156 4.273438 -2.066406 4.953125 -1.234375 C 5.640625 -0.410156 6.71875 0 8.1875 0 C 9.6875 0 10.785156 -0.425781 11.484375 -1.28125 C 12.179688 -2.132812 12.53125 -3.675781 12.53125 -5.90625 L 12.53125 -12.796875 C 14.175781 -12.796875 15.367188 -12.929688 16.109375 -13.203125 C 16.847656 -13.484375 17.21875 -14.070312 17.21875 -14.96875 C 17.21875 -16.070312 16.875 -16.785156 16.1875 -17.109375 C 15.507812 -17.441406 14.289062 -17.609375 12.53125 -17.609375 Z M 12.53125 -17.609375 "/></g></g></g><g fill="#47351b" fill-opacity="1"><g transform="translate(279.662075, 322.612391)"><g><path d="M 12.53125 -17.609375 C 12.53125 -19.234375 12.796875 -20.269531 13.328125 -20.71875 C 13.867188 -21.164062 14.785156 -21.390625 16.078125 -21.390625 C 16.679688 -21.390625 17.144531 -21.53125 17.46875 -21.8125 C 17.800781 -22.101562 17.96875 -22.460938 17.96875 -22.890625 C 17.96875 -23.804688 17.363281 -24.707031 16.15625 -25.59375 C 14.945312 -26.488281 13.238281 -26.9375 11.03125 -26.9375 C 9.613281 -26.9375 8.453125 -26.753906 7.546875 -26.390625 C 6.640625 -26.023438 5.921875 -25.429688 5.390625 -24.609375 C 4.867188 -23.796875 4.507812 -22.84375 4.3125 -21.75 C 4.113281 -20.664062 4.015625 -19.269531 4.015625 -17.5625 C 2.046875 -17.457031 1.0625 -16.632812 1.0625 -15.09375 C 1.0625 -14.351562 1.285156 -13.789062 1.734375 -13.40625 C 2.179688 -13.03125 2.929688 -12.828125 3.984375 -12.796875 L 3.9375 -5.640625 C 3.9375 -3.535156 4.273438 -2.066406 4.953125 -1.234375 C 5.640625 -0.410156 6.71875 0 8.1875 0 C 9.6875 0 10.785156 -0.425781 11.484375 -1.28125 C 12.179688 -2.132812 12.53125 -3.675781 12.53125 -5.90625 L 12.53125 -12.796875 C 14.175781 -12.796875 15.367188 -12.929688 16.109375 -13.203125 C 16.847656 -13.484375 17.21875 -14.070312 17.21875 -14.96875 C 17.21875 -16.070312 16.875 -16.785156 16.1875 -17.109375 C 15.507812 -17.441406 14.289062 -17.609375 12.53125 -17.609375 Z M 12.53125 -17.609375 "/></g></g></g><g fill="#47351b" fill-opacity="1"><g transform="translate(298.175349, 322.612391)"><g><path d="M 9.921875 -11.03125 C 11.734375 -11.050781 12.71875 -11.0625 12.875 -11.0625 C 13.269531 -11.0625 13.554688 -11.300781 13.734375 -11.78125 C 13.867188 -12.125 13.9375 -12.597656 13.9375 -13.203125 C 13.9375 -14.847656 13.4375 -15.671875 12.4375 -15.671875 C 12.070312 -15.671875 11.710938 -15.472656 11.359375 -15.078125 C 11.003906 -14.691406 10.691406 -14.132812 10.421875 -13.40625 C 10.160156 -12.6875 9.992188 -11.894531 9.921875 -11.03125 Z M 12.59375 0.234375 C 9.394531 0.234375 6.75 -0.59375 4.65625 -2.25 C 2.570312 -3.90625 1.53125 -6.160156 1.53125 -9.015625 C 1.53125 -12.117188 2.5625 -14.566406 4.625 -16.359375 C 6.6875 -18.160156 9.34375 -19.0625 12.59375 -19.0625 C 15.664062 -19.0625 17.914062 -18.515625 19.34375 -17.421875 C 20.78125 -16.335938 21.5 -14.847656 21.5 -12.953125 C 21.5 -12.585938 21.453125 -12.234375 21.359375 -11.890625 C 21.265625 -11.554688 21.117188 -11.222656 20.921875 -10.890625 C 20.734375 -10.566406 20.472656 -10.265625 20.140625 -9.984375 C 19.804688 -9.710938 19.429688 -9.460938 19.015625 -9.234375 C 18.597656 -9.015625 18.097656 -8.84375 17.515625 -8.71875 C 16.941406 -8.601562 16.328125 -8.546875 15.671875 -8.546875 L 10.109375 -8.515625 C 10.378906 -7.671875 10.851562 -7.003906 11.53125 -6.515625 C 12.21875 -6.035156 13.085938 -5.796875 14.140625 -5.796875 C 15.265625 -5.796875 16.414062 -5.9375 17.59375 -6.21875 C 18.09375 -6.351562 18.640625 -6.5625 19.234375 -6.84375 C 19.828125 -7.132812 20.253906 -7.28125 20.515625 -7.28125 C 20.960938 -7.28125 21.3125 -7.148438 21.5625 -6.890625 C 21.8125 -6.628906 21.9375 -6.300781 21.9375 -5.90625 C 21.9375 -5.4375 21.722656 -4.863281 21.296875 -4.1875 C 20.878906 -3.519531 20.296875 -2.851562 19.546875 -2.1875 C 18.796875 -1.519531 17.800781 -0.945312 16.5625 -0.46875 C 15.332031 0 14.007812 0.234375 12.59375 0.234375 Z M 12.59375 0.234375 "/></g></g></g><g fill="#47351b" fill-opacity="1"><g transform="translate(140.742764, 348.345277)"><g><path d="M 6.921875 -12.109375 C 7.773438 -12.109375 8.609375 -11.945312 9.421875 -11.625 C 10.234375 -11.300781 10.929688 -10.84375 11.515625 -10.25 L 10.328125 -8.765625 C 9.890625 -9.242188 9.367188 -9.617188 8.765625 -9.890625 C 8.171875 -10.171875 7.570312 -10.3125 6.96875 -10.3125 C 5.757812 -10.3125 4.738281 -9.898438 3.90625 -9.078125 C 3.070312 -8.253906 2.65625 -7.25 2.65625 -6.0625 C 2.65625 -4.875 3.070312 -3.867188 3.90625 -3.046875 C 4.738281 -2.222656 5.757812 -1.8125 6.96875 -1.8125 C 8.21875 -1.8125 9.335938 -2.285156 10.328125 -3.234375 L 11.53125 -1.890625 C 10.90625 -1.285156 10.179688 -0.800781 9.359375 -0.4375 C 8.535156 -0.0820312 7.703125 0.09375 6.859375 0.09375 C 5.085938 0.09375 3.597656 -0.492188 2.390625 -1.671875 C 1.191406 -2.859375 0.59375 -4.316406 0.59375 -6.046875 C 0.59375 -7.753906 1.203125 -9.191406 2.421875 -10.359375 C 3.640625 -11.523438 5.140625 -12.109375 6.921875 -12.109375 Z M 6.921875 -12.109375 "/></g></g></g><g fill="#47351b" fill-opacity="1"><g transform="translate(159.955667, 348.345277)"><g><path d="M 5.234375 -9.234375 C 6.804688 -9.234375 7.945312 -8.757812 8.65625 -7.8125 C 9.363281 -6.863281 9.65625 -5.535156 9.53125 -3.828125 L 2.609375 -3.828125 C 2.765625 -3.109375 3.09375 -2.546875 3.59375 -2.140625 C 4.101562 -1.734375 4.722656 -1.53125 5.453125 -1.53125 C 6.484375 -1.53125 7.34375 -1.890625 8.03125 -2.609375 L 9.078125 -1.484375 C 8.140625 -0.453125 6.878906 0.0625 5.296875 0.0625 C 3.878906 0.0625 2.742188 -0.363281 1.890625 -1.21875 C 1.035156 -2.070312 0.609375 -3.1875 0.609375 -4.5625 C 0.609375 -5.945312 1.035156 -7.066406 1.890625 -7.921875 C 2.753906 -8.785156 3.867188 -9.222656 5.234375 -9.234375 Z M 2.5625 -5.28125 L 7.8125 -5.28125 C 7.769531 -6.007812 7.519531 -6.585938 7.0625 -7.015625 C 6.601562 -7.441406 6 -7.65625 5.25 -7.65625 C 4.53125 -7.65625 3.929688 -7.441406 3.453125 -7.015625 C 2.972656 -6.585938 2.675781 -6.007812 2.5625 -5.28125 Z M 2.5625 -5.28125 "/></g></g></g><g fill="#47351b" fill-opacity="1"><g transform="translate(177.290754, 348.345277)"><g><path d="M 6.828125 -9.234375 C 7.890625 -9.234375 8.722656 -8.921875 9.328125 -8.296875 C 9.929688 -7.671875 10.234375 -6.804688 10.234375 -5.703125 L 10.234375 0 L 8.25 0 L 8.25 -5.15625 C 8.25 -5.84375 8.050781 -6.382812 7.65625 -6.78125 C 7.269531 -7.175781 6.734375 -7.375 6.046875 -7.375 C 5.316406 -7.363281 4.71875 -7.128906 4.25 -6.671875 C 3.78125 -6.210938 3.515625 -5.613281 3.453125 -4.875 L 3.453125 0 L 1.46875 0 L 1.46875 -9.171875 L 3.453125 -9.171875 L 3.453125 -7.40625 C 4.066406 -8.625 5.191406 -9.234375 6.828125 -9.234375 Z M 6.828125 -9.234375 "/></g></g></g><g fill="#47351b" fill-opacity="1"><g transform="translate(195.917917, 348.345277)"><g><path d="M 6.15625 -2.109375 L 6.65625 -0.59375 C 5.894531 -0.132812 5.140625 0.09375 4.390625 0.09375 C 3.648438 0.09375 3.035156 -0.128906 2.546875 -0.578125 C 2.066406 -1.035156 1.828125 -1.703125 1.828125 -2.578125 L 1.828125 -7.34375 L 0.53125 -7.34375 L 0.53125 -8.828125 L 1.828125 -8.828125 L 1.828125 -11.34375 L 3.796875 -11.34375 L 3.796875 -8.828125 L 6.5 -8.828125 L 6.5 -7.34375 L 3.796875 -7.34375 L 3.796875 -2.953125 C 3.796875 -2.484375 3.875 -2.15625 4.03125 -1.96875 C 4.195312 -1.789062 4.445312 -1.703125 4.78125 -1.703125 C 5.144531 -1.703125 5.601562 -1.835938 6.15625 -2.109375 Z M 6.15625 -2.109375 "/></g></g></g><g fill="#47351b" fill-opacity="1"><g transform="translate(210.134783, 348.345277)"><g><path d="M 5.234375 -9.234375 C 6.804688 -9.234375 7.945312 -8.757812 8.65625 -7.8125 C 9.363281 -6.863281 9.65625 -5.535156 9.53125 -3.828125 L 2.609375 -3.828125 C 2.765625 -3.109375 3.09375 -2.546875 3.59375 -2.140625 C 4.101562 -1.734375 4.722656 -1.53125 5.453125 -1.53125 C 6.484375 -1.53125 7.34375 -1.890625 8.03125 -2.609375 L 9.078125 -1.484375 C 8.140625 -0.453125 6.878906 0.0625 5.296875 0.0625 C 3.878906 0.0625 2.742188 -0.363281 1.890625 -1.21875 C 1.035156 -2.070312 0.609375 -3.1875 0.609375 -4.5625 C 0.609375 -5.945312 1.035156 -7.066406 1.890625 -7.921875 C 2.753906 -8.785156 3.867188 -9.222656 5.234375 -9.234375 Z M 2.5625 -5.28125 L 7.8125 -5.28125 C 7.769531 -6.007812 7.519531 -6.585938 7.0625 -7.015625 C 6.601562 -7.441406 6 -7.65625 5.25 -7.65625 C 4.53125 -7.65625 3.929688 -7.441406 3.453125 -7.015625 C 2.972656 -6.585938 2.675781 -6.007812 2.5625 -5.28125 Z M 2.5625 -5.28125 "/></g></g></g><g fill="#47351b" fill-opacity="1"><g transform="translate(227.469874, 348.345277)"><g><path d="M 3.453125 -9.171875 L 3.453125 -7.34375 C 4.078125 -8.601562 5.132812 -9.234375 6.625 -9.234375 L 6.625 -7.34375 C 5.707031 -7.382812 4.96875 -7.171875 4.40625 -6.703125 C 3.84375 -6.234375 3.523438 -5.597656 3.453125 -4.796875 L 3.453125 0 L 1.46875 0 L 1.46875 -9.171875 Z M 3.453125 -9.171875 "/></g></g></g></svg>