<svg height="512" viewBox="0 0 64 64" width="512" xmlns="http://www.w3.org/2000/svg"><g id="Avatar-Man-Men-Profile-Long_Hair-Part" data-name="Avatar-Man-Men-Profile-Long Hair-Part"><path d="m47 11.9v23.1l-4.04-4.04a11 11 0 0 1 -21.92 0l-4.04 4.04v-23.1a8.9 8.9 0 0 1 12.88-7.96l2.12 1.06 2.12-1.06a8.888 8.888 0 0 1 12.88 7.96z" fill="#57565c"/><path d="m41.9 38.85c-.68 2.91-4.86 5.15-9.9 5.15s-9.22-2.24-9.9-5.15l2.44-.76 2.06-.65a2.008 2.008 0 0 0 1.4-1.91v-3.53h8v3.53a2.008 2.008 0 0 0 1.4 1.91l2.06.65z" fill="#ffc477"/><g fill="#ffb655"><path d="m32 33a9.881 9.881 0 0 0 4-.84v2.62a39.056 39.056 0 0 1 -4 .22 39.056 39.056 0 0 1 -4-.22v-2.62a9.881 9.881 0 0 0 4 .84z"/><path d="m46 21a3 3 0 0 1 -3 3h-2v-6h2a3 3 0 0 1 3 3z"/><path d="m23 18v6h-2a3 3 0 0 1 0-6z"/></g><path d="m44 61h-32v-13.12a7.985 7.985 0 0 1 5.61-7.63l4.49-1.4c.68 2.91 4.86 5.15 9.9 5.15s9.22-2.24 9.9-5.15l4.49 1.4a7.985 7.985 0 0 1 5.61 7.63v13.12z" fill="#3d9ae2"/><path d="m36 32v2.16a9.944 9.944 0 0 1 -8 0v-2.16z" fill="#ffa733"/><path d="m33.96 22.39 7.99 1.6a10 10 0 0 1 -19.9 0l7.99-1.6a9.948 9.948 0 0 1 3.92 0z" fill="#44ffe8"/><path d="m42 17.15v5.85c0 .33-.02.67-.05.99l-7.99-1.6a9.948 9.948 0 0 0 -3.92 0l-7.99 1.6c-.03-.32-.05-.66-.05-.99v-5.85c5.19-1.99 8.98-5.45 10-8.76 1.02 3.31 4.81 6.77 10 8.76z" fill="#ffc477"/><g fill="#3e3d42"><path d="m47 12v9h-1a3 3 0 0 0 -3-3h-1v-.85a20.409 20.409 0 0 1 -7.84-5.15z"/><path d="m17 21v-9h12.84a20.409 20.409 0 0 1 -7.84 5.15v.85h-1a3 3 0 0 0 -3 3z"/><path d="m17 32.8v-11.8h1a3 3 0 0 0 3 3h1.05a9.954 9.954 0 0 0 5.95 8.16v2.62c-2.17-.2-4.35-.55-6.32-.93a11.457 11.457 0 0 1 -.64-2.89l-2.27 2.27c-.64-.15-1.24-.29-1.77-.43z"/></g><path d="m17 21v11.8c-.47-.11-.9-.22-1.27-.32a2 2 0 0 1 -1.47-2.23l2.74-18.25z" fill="#c2dff6"/><path d="m21.04 30.96a11.457 11.457 0 0 0 .64 2.89c-1.04-.21-2.02-.42-2.91-.62z" fill="#c2dff6"/><path d="m49.74 30.25a2 2 0 0 1 -1.47 2.23c-.37.1-.8.21-1.27.32v-20.8z" fill="#c2dff6"/><path d="m42.32 33.85c-1.97.38-4.15.73-6.32.93v-2.62a9.836 9.836 0 0 0 3.07-2.09 9.906 9.906 0 0 0 2.88-6.07h1.05a3 3 0 0 0 3-3h1v11.8c-.53.14-1.13.28-1.77.43l-2.27-2.27a11.457 11.457 0 0 1 -.64 2.89z" fill="#3e3d42"/><path d="m42.96 30.96 2.27 2.27c-.89.2-1.87.41-2.91.62a11.457 11.457 0 0 0 .64-2.89z" fill="#c2dff6"/><path d="m47 8a1 1 0 0 1 1 1v2a1 1 0 0 1 -1 1h-30a1 1 0 0 1 -1-1v-2a1 1 0 0 1 1-1z" fill="#3d9ae2"/><path d="m46.68 39.29-5.39-1.69a11.926 11.926 0 0 0 1.75-2.88c.65-.13 1.27-.26 1.87-.39l1.38 1.38a1 1 0 0 0 1.09.21.987.987 0 0 0 .62-.92v-1.42c.18-.04.36-.09.52-.13a3 3 0 0 0 2.21-3.35l-2.62-17.44a1.99 1.99 0 0 0 .89-1.66v-2a2.006 2.006 0 0 0 -2-2h-.31a9.662 9.662 0 0 0 -1.59-2.11 9.9 9.9 0 0 0 -11.43-1.84l-1.67.83-1.67-.83a9.864 9.864 0 0 0 -13.01 3.95h-.32a2.006 2.006 0 0 0 -2 2v2a1.99 1.99 0 0 0 .89 1.66l-2.62 17.44a3 3 0 0 0 2.21 3.35c.16.04.34.09.52.13v1.42a.987.987 0 0 0 .62.92 1 1 0 0 0 1.09-.21l1.38-1.38c.6.13 1.22.26 1.87.39a11.926 11.926 0 0 0 1.75 2.88l-5.39 1.69a8.959 8.959 0 0 0 -6.32 8.59v13.12a1 1 0 0 0 1 1h40a1 1 0 0 0 1-1v-13.12a8.959 8.959 0 0 0 -6.32-8.59zm1.32-13.88.75 4.99a1 1 0 0 1 -.74 1.11l-.01.01zm-32 6.11-.01-.01a1 1 0 0 1 -.74-1.11l.75-4.99zm30 .5c-.15.03-.31.07-.46.11l-1.87-1.88a1.007 1.007 0 0 0 -1.71.63 9.913 9.913 0 0 1 -.41 2.09c-1.44.27-2.99.51-4.55.7v-.88a11.064 11.064 0 0 0 2.78-2.01 10.943 10.943 0 0 0 3.03-5.78h.19a4 4 0 0 0 2.83-1.17c.06-.07.11-.14.17-.21zm-19.11 6.37a2.964 2.964 0 0 0 2.08-2.51c1.03.07 2.04.12 3.03.12s2-.05 3.03-.12a2.964 2.964 0 0 0 2.08 2.51l3.47 1.09c-1.18 2.03-4.68 3.52-8.58 3.52s-7.4-1.49-8.58-3.52zm-3.45-3.21c1.15.2 2.34.37 3.54.5a.971.971 0 0 1 -.68.8l-1.48.47a10.161 10.161 0 0 1 -1.38-1.77zm6.45-9.17-6.09.68a8.89 8.89 0 0 1 -.62-1.91l7.06-1.41a9.065 9.065 0 0 1 3.52 0l7.06 1.41a8.531 8.531 0 0 1 -.62 1.91l-6.09-.68-.22 1.98 5.17.58a8.777 8.777 0 0 1 -.7.79 8.97 8.97 0 0 1 -13.41-.79l5.16-.58zm-11.89-7.63v-5.38h9.32a21.158 21.158 0 0 1 -5.68 3.22 1 1 0 0 0 -.62.78h-.02a3.967 3.967 0 0 0 -3 1.38zm3 .62v4a2.015 2.015 0 0 1 -2-2 2.006 2.006 0 0 1 2-2zm2-1.17a21.6 21.6 0 0 0 7.27-4.83h3.47a21.451 21.451 0 0 0 7.26 4.83v4.95l-6.84-1.37a11.214 11.214 0 0 0 -4.32 0l-6.84 1.37zm12 15.75v.29c-1.02.08-2.03.13-3 .13s-1.98-.05-3-.13v-.3a10.665 10.665 0 0 0 3 .43 11.09 11.09 0 0 0 3-.42zm2.02 2.1c1.2-.13 2.39-.3 3.54-.5a10.161 10.161 0 0 1 -1.38 1.77l-1.48-.47a.971.971 0 0 1 -.68-.8zm5.98-12.68v-4a2.006 2.006 0 0 1 2 2 2.015 2.015 0 0 1 -2 2zm3-4.62a3.967 3.967 0 0 0 -3-1.38h-.02a1 1 0 0 0 -.62-.78 21.158 21.158 0 0 1 -5.68-3.22h9.32zm-20.1-14.38a8 8 0 0 1 3.53.83l2.12 1.06a.956.956 0 0 0 .9 0l2.12-1.06a7.935 7.935 0 0 1 9.12 1.47 6.331 6.331 0 0 1 .58.7h-24.55a7.835 7.835 0 0 1 6.18-3zm-8.9 7v-2h30v2zm5.45 21.97a9.913 9.913 0 0 1 -.41-2.09 1.007 1.007 0 0 0 -1.71-.63l-1.87 1.88c-.15-.04-.31-.08-.46-.11v-8.4c.06.07.11.14.17.21a4 4 0 0 0 2.83 1.17h.19a11.043 11.043 0 0 0 5.81 7.79v.88c-1.56-.19-3.11-.43-4.55-.7zm28.55 27.03h-6v-13h-2v13h-22v-13h-2v13h-6v-12.12a6.964 6.964 0 0 1 4.91-6.68l3.58-1.12c1.38 2.9 5.57 4.92 10.51 4.92s9.13-2.02 10.51-4.92l3.58 1.12a6.964 6.964 0 0 1 4.91 6.68z"/><circle cx="28" cy="19" r="2"/><circle cx="36" cy="19" r="2"/></g></svg>