<svg height="512" viewBox="0 0 512 512" width="512" xmlns="http://www.w3.org/2000/svg"><g id="filled_outline" data-name="filled outline"><path d="m320 248-62.845 5-65.155-5v-33.027a6.973 6.973 0 0 1 6.973-6.973h114.054a6.973 6.973 0 0 1 6.973 6.973z" fill="#4d4d4d"/><path d="m280 248-25.268 8-22.732-8v-72h48z" fill="#e6e6e6"/><path d="m140 456a12 12 0 0 1 -12-12v-76l13.47-5 10.53 5v76a12 12 0 0 1 -12 12z" fill="#4d4d4d"/><path d="m372 456a12 12 0 0 1 -12-12v-76l13.234-5 10.766 5v76a12 12 0 0 1 -12 12z" fill="#4d4d4d"/><g fill="#333"><path d="m157.023 368h-34.046a2.977 2.977 0 0 1 -2.977-2.977v-21.023l18.883-3 21.117 3v21.023a2.977 2.977 0 0 1 -2.977 2.977z"/><path d="m389.023 368h-34.046a2.977 2.977 0 0 1 -2.977-2.979v-21.021l18.647-3 21.353 3v21.023a2.977 2.977 0 0 1 -2.977 2.977z"/><path d="m282.7 368h-53.4a5.3 5.3 0 0 1 -5.3-5.3v-18.7l32.834-4 31.166 4v18.7a5.3 5.3 0 0 1 -5.3 5.3z"/></g><path d="m32 32h192v88h-192z" fill="#b3b3b3"/><path d="m352 72h128v72h-128z" fill="#f5b85f"/><circle cx="56" cy="56" fill="#fbb03b" r="8"/><path d="m430.032 120h-28.064a24.929 24.929 0 0 1 -23.65-17.046l-2.318-6.954h80l-2.318 6.954a24.929 24.929 0 0 1 -23.65 17.046z" fill="#0071bc"/><rect fill="#736357" height="32" rx="16" width="144" x="184" y="392"/><path d="m224 120h-192v-40l9.537 2.384a102.965 102.965 0 0 0 45.168 1.075 102.976 102.976 0 0 1 34.756-.965l18.571 2.653a102.959 102.959 0 0 0 39.536-2.039l.134-.034a103.018 103.018 0 0 1 24.974-3.074h19.324z" fill="#0071bc"/><path d="m224 125h-192a5 5 0 0 1 -5-5v-88a5 5 0 0 1 5-5h192a5 5 0 0 1 5 5v88a5 5 0 0 1 -5 5zm-187-10h182v-78h-182z" fill="#333"/><path d="m480 149h-128a5 5 0 0 1 -5-5v-72a5 5 0 0 1 5-5h128a5 5 0 0 1 5 5v72a5 5 0 0 1 -5 5zm-123-10h118v-62h-118z" fill="#333"/><path d="m408 296-147.211 6-156.789-6v-48h304z" fill="#333"/><path d="m424 344h-336v-48h39.79l128.097 7 128.379-7h39.734z" fill="#4d4d4d"/><path d="m128 296h256v24h-256z" fill="#f2f2f2"/><path d="m424 288h-8v-40a8 8 0 0 0 -8-8h-80v-32a8 8 0 0 0 -8-8h-32v-24a8 8 0 0 0 -8-8h-48a8 8 0 0 0 -8 8v24h-32a8 8 0 0 0 -8 8v32h-80a8 8 0 0 0 -8 8v40h-8a8 8 0 0 0 -8 8v48a8 8 0 0 0 8 8h24v16a8 8 0 0 0 8 8v68a20 20 0 0 0 40 0v-68a8 8 0 0 0 8-8v-16h48v16a8 8 0 0 0 8 8h24v8h-48a24 24 0 0 0 -8 46.624v49.376a8 8 0 0 0 16 0v-48h40v8h-16a8 8 0 0 0 -8 8v16a8 8 0 0 0 16 0v-8h8v8a8 8 0 0 0 16 0v-8h8v8a8 8 0 0 0 16 0v-16a8 8 0 0 0 -8-8h-16v-8h40v48a8 8 0 0 0 16 0v-49.376a24 24 0 0 0 -8-46.624h-48v-8h24a8 8 0 0 0 8-8v-16h48v16a8 8 0 0 0 8 8v68a20 20 0 0 0 40 0v-68a8 8 0 0 0 8-8v-16h24a8 8 0 0 0 8-8v-48a8 8 0 0 0 -8-8zm-104 120a8.009 8.009 0 0 1 -8 8h-112a8 8 0 0 1 0-16h112a8.009 8.009 0 0 1 8 8zm-8-192v24h-24v-24zm-40-32v56h-32v-56zm-72 32h24v24h-24zm-88 40h288v32h-288zm24 48h16v8h-16zm32 0h8v8h-8zm24 0h8v8h-8zm24 0h8v8h-8zm24 0h8v8h-8zm24 0h8v8h-8zm24 0h8v8h-8zm24 0h8v8h-8zm24 0h8v8h-8zm24 0h16v8h-16zm-216 140a4 4 0 0 1 -8 0v-68h8zm8-84h-24v-8h24zm128 0h-48v-8h48zm96 84a4 4 0 0 1 -8 0v-68h8zm8-84h-24v-8h24zm32-24h-320v-32h24v16a8 8 0 0 0 8 8h256a8 8 0 0 0 8-8v-16h24z"/><path d="m232 120v-88a8 8 0 0 0 -8-8h-192a8 8 0 0 0 -8 8v88a8 8 0 0 0 8 8h192a8 8 0 0 0 8-8zm-16-80v32h-11.324c-1.559 0-3.118.045-4.676.111v-13.701a2.4 2.4 0 0 0 -4.106-1.7l-18.746 18.745a94.436 94.436 0 0 1 -25.148 2.671v-11.716a2.4 2.4 0 0 0 -4.106-1.7l-11.794 11.79-13.508-1.93c-3.523-.5-7.057-.817-10.591-.98v-11.784a2.4 2.4 0 0 0 -4.106-1.7l-14.148 14.147c-2.88.344-5.752.79-8.611 1.361a95.547 95.547 0 0 1 -41.659-.992l-3.477-.869v-33.753zm-176 72v-21.761a111.652 111.652 0 0 0 48.273 1.061 94.744 94.744 0 0 1 32.056-.89l18.571 2.657a111.26 111.26 0 0 0 15.74 1.123 110.7 110.7 0 0 0 26.894-3.327l.108-.028a95.063 95.063 0 0 1 23.034-2.835h11.324v24z"/><path d="m480 64h-128a8 8 0 0 0 -8 8v72a8 8 0 0 0 8 8h128a8 8 0 0 0 8-8v-72a8 8 0 0 0 -8-8zm-8 72h-112v-56h112z"/></g></svg>