<svg id="LinealColor" height="512" viewBox="0 0 512 512" width="512" xmlns="http://www.w3.org/2000/svg"><path d="m102.106 289.767c3.664 17.138 17.791 33.789 41.505 33v-72.46c-31.518-6.465-46.203 17.481-41.505 39.46z" fill="#f88"/><path d="m368.389 250.309v72.46c23.714.787 37.841-15.864 41.505-33 4.698-21.981-9.987-45.927-41.505-39.46z" fill="#f88"/><path d="m256 412.522c29.814 0 75.7-12.634 102.009-51.563 23.766-35.16 9.793-93.218 10.38-116.278 1.192-46.769-32.553-107.511-112.389-107.511s-113.581 60.742-112.389 107.511c.587 23.06-13.386 81.118 10.38 116.278 26.309 38.929 72.195 51.563 102.009 51.563z" fill="#ff9f9f"/><g fill="#462e4c"><path d="m296.2 279.41a6 6 0 0 1 -5.305-8.794c4.968-9.444 20.128-13.943 30.04-8.921a6 6 0 0 1 -5.427 10.7c-3.98-2.017-12.089.187-13.993 3.8a6 6 0 0 1 -5.315 3.215z"/><path d="m215.805 279.41a6 6 0 0 1 -5.315-3.208c-1.9-3.619-10.012-5.821-13.993-3.8a6 6 0 0 1 -5.427-10.7c9.913-5.025 25.073-.522 30.04 8.921a6 6 0 0 1 -5.305 8.794z"/><path d="m405.865 253.953c-7.821-7.886-18.816-11.507-31.461-10.53a112.724 112.724 0 0 0 -31.457-78.494c-21.529-22.085-51.6-33.759-86.947-33.759s-65.418 11.674-86.948 33.76a112.727 112.727 0 0 0 -31.452 78.492c-12.645-.976-23.64 2.646-31.461 10.531-9.043 9.118-12.835 23.321-9.9 37.068 3.733 17.464 17.3 34.726 39.669 37.4 2.015 12.885 5.965 25.326 13.112 35.9 27.042 40.008 74.531 54.2 106.98 54.2s79.938-14.195 106.979-54.2c7.148-10.573 11.1-23.014 13.113-35.9 22.369-2.674 35.936-19.937 39.669-37.4 2.939-13.747-.853-27.95-9.896-37.068zm-270.527 22.424a18.9 18.9 0 0 0 -11-1.919 6 6 0 0 0 1.662 11.883c2.624-.365 6.2.928 8.332 5.516a216.169 216.169 0 0 0 .208 24.229c-15.74-3.128-24.11-16.086-26.566-27.573-2.1-9.83.459-19.835 6.681-26.11 5.441-5.485 13.167-7.851 22.534-6.984-.25 3.271-1.553 17.368-1.851 20.958zm217.7 81.222c-24.408 36.111-67.529 48.923-97.038 48.923s-72.63-12.812-97.038-48.922c-16.835-24.907-13.322-62.758-10.758-90.4.835-8.994 1.556-16.762 1.405-22.676a100.41 100.41 0 0 1 28.036-71.221c19.219-19.712 46.313-30.133 78.355-30.133s59.136 10.421 78.355 30.136a100.416 100.416 0 0 1 28.036 71.222c-.151 5.913.57 13.681 1.4 22.675 2.569 27.638 6.082 65.489-10.753 90.397zm50.988-69.086c-2.455 11.487-10.826 24.436-26.565 27.562a216.208 216.208 0 0 0 .207-24.218c2.13-4.588 5.708-5.881 8.332-5.516a6 6 0 0 0 1.667-11.883 18.945 18.945 0 0 0 -11 1.926c-.3-3.593-1.6-17.7-1.852-20.967 9.367-.867 17.093 1.5 22.534 6.986 6.218 6.275 8.779 16.28 6.677 26.11z"/><path d="m262 302.982a6 6 0 0 1 -5.823-4.548 2.614 2.614 0 0 0 -.354 0 6 6 0 0 1 -11.823-1.452c0-6.016 5.159-10.554 12-10.554s12 4.538 12 10.554a6 6 0 0 1 -6 6z"/><path d="m253.746 161.7a6 6 0 0 1 -3.124-11.127c.313-.192 23.07-14.425 23.869-37.672.553-16.1-8.22-23.367-16.616-24.794-7.412-1.261-16.812 1.927-19.924 11.9a7.719 7.719 0 0 0 3.915 9.68c2.259 1.156 5.584 1.593 7.515-.983a6 6 0 0 1 9.6 7.2c-5.113 6.818-14.4 8.654-22.582 4.467a19.6 19.6 0 0 1 -9.9-23.937 29.378 29.378 0 0 1 33.39-20.161c13.792 2.345 27.365 14.706 26.6 37.037-1.026 29.862-28.469 46.812-29.637 47.519a5.973 5.973 0 0 1 -3.106.871z"/><path d="m288.467 349.6c-5.518 0-8.45-3.517-10.026-5.407-.29-.347-.7-.842-.961-1.088-.683.011-.833.116-1.823.809a14.629 14.629 0 0 1 -17.717 0c-1.066-.748-1.153-.809-1.961-.809s-.9.061-1.96.808a14.611 14.611 0 0 1 -17.71 0c-.991-.695-1.135-.8-1.8-.807-.257.247-.667.739-.955 1.086-1.574 1.89-4.5 5.41-10.02 5.41a6 6 0 0 1 -.162-12c.256-.245.669-.742.959-1.089 1.574-1.891 4.5-5.41 10.02-5.41a14.238 14.238 0 0 1 8.855 2.988c1.065.747 1.151.809 1.959.809s.894-.062 1.959-.809a14.618 14.618 0 0 1 17.711 0c1.066.748 1.153.81 1.962.81s.9-.062 1.975-.812a14.262 14.262 0 0 1 8.861-2.985c5.518 0 8.45 3.516 10.026 5.406.291.349.707.849.964 1.093a6 6 0 0 1 -.155 12z"/><path d="m256.155 64.426a6 6 0 0 1 -4.515-9.948c.713-.835 6.989-8.51 1.526-13.685-4.548-4.308-9.43-12.336-8.221-20.785.608-4.246 3.028-10.178 11.1-14.319a6 6 0 1 1 5.476 10.678c-4.245 2.177-4.586 4.559-4.7 5.342-.493 3.443 2 7.914 4.593 10.371 11.138 10.549 4.385 24.429-.742 30.294a5.987 5.987 0 0 1 -4.517 2.052z"/><path d="m258.779 507.165a5.979 5.979 0 0 1 -2.733-.662c-8.074-4.141-10.493-10.073-11.1-14.319-1.209-8.449 3.673-16.477 8.221-20.785 5.644-5.345-1.231-13.347-1.526-13.685a6 6 0 1 1 9.035-7.9c5.127 5.866 11.88 19.746.742 30.3-2.594 2.457-5.086 6.927-4.593 10.37.112.784.453 3.165 4.7 5.343a6 6 0 0 1 -2.743 11.34z"/><path d="m36.069 254a18.682 18.682 0 0 1 -2.646-.187c-4.247-.608-10.178-3.027-14.319-11.1a6 6 0 0 1 10.678-5.477c2.177 4.245 4.559 4.586 5.342 4.7 3.437.492 7.913-2 10.371-4.594 10.549-11.137 24.428-4.384 30.3.743a6 6 0 0 1 -7.9 9.035c-.834-.712-8.511-6.99-13.684-1.526-3.858 4.07-10.694 8.406-18.142 8.406z"/><path d="m453.063 254.029c-6.873 0-13.318-3.679-16.853-6.769a6 6 0 0 1 7.9-9.035c.834.713 8.51 6.991 13.684 1.526 4.309-4.549 12.337-9.425 20.785-8.221 4.247.609 10.178 3.028 14.319 11.1a6 6 0 0 1 -10.678 5.476c-2.177-4.245-4.559-4.586-5.342-4.7-3.438-.482-7.914 2-10.371 4.594a18 18 0 0 1 -13.444 6.029z"/><path d="m386.325 118.476a6 6 0 0 1 -.4-11.987c1.094-.086 10.96-1.074 10.756-8.6-.17-6.263 2.054-15.391 8.883-20.51 3.432-2.573 9.337-5.059 17.975-2.276a6 6 0 1 1 -3.678 11.422c-4.543-1.462-6.466-.018-7.1.455-2.784 2.087-4.183 7.01-4.086 10.582.417 15.335-14.174 20.374-21.947 20.9-.128.01-.268.014-.403.014z"/><path d="m125.762 118.377a6 6 0 0 1 -5.981-5.6c-.085-1.094-1.062-10.932-8.6-10.755-6.283.158-15.392-2.056-20.51-8.885-2.571-3.431-5.053-9.337-2.271-17.972a6 6 0 0 1 11.423 3.678c-1.462 4.541-.019 6.467.455 7.1 2.086 2.784 7 4.163 10.582 4.086 15.326-.371 20.374 14.174 20.9 21.947a6 6 0 0 1 -5.584 6.388c-.143.009-.276.013-.414.013z"/><path d="m427.042 439.09a6 6 0 0 1 -5.98-5.6c-.085-1.083-1.055-10.759-8.369-10.759h-.229c-6.252.173-15.39-2.054-20.509-8.883-2.573-3.433-5.057-9.338-2.276-17.975a6 6 0 0 1 11.423 3.678c-1.462 4.542-.019 6.466.455 7.1 2.087 2.784 7.015 4.224 10.581 4.085.215-.006.429-.009.639-.009 14.838 0 19.743 14.292 20.258 21.957a6 6 0 0 1 -5.584 6.388c-.137.014-.274.018-.409.018z"/><path d="m87.287 444.037a23.7 23.7 0 0 1 -7.293-1.223 6 6 0 1 1 3.677-11.421c4.543 1.462 6.467.019 7.1-.455 2.784-2.087 4.182-7.009 4.085-10.582-.416-15.334 14.174-20.374 21.947-20.9a6 6 0 0 1 .8 11.973c-1.093.086-10.96 1.075-10.755 8.6.17 6.262-2.055 15.39-8.884 20.509a17.508 17.508 0 0 1 -10.677 3.499z"/><path d="m295.656 236.246a5.986 5.986 0 0 1 -3.032-.826 4.177 4.177 0 0 0 -2.154-.54 6 6 0 0 1 -2.5-11.736 15.63 15.63 0 0 1 10.73 1.926 6 6 0 0 1 -3.043 11.176z"/><path d="m216.344 236.246a6 6 0 0 1 -3.044-11.176 18.29 18.29 0 0 1 11.44-1.981 6 6 0 0 1 -1.921 11.846 6.549 6.549 0 0 0 -3.444.485 5.986 5.986 0 0 1 -3.031.826z"/></g></svg>