<svg id="Layer_1" height="512" viewBox="0 0 256 256" width="512" xmlns="http://www.w3.org/2000/svg"><g><path d="m150.918 239.235v-27.28c0-16.62-13.46-30.08-30.1-30.08h-19.9v-16.857h-33.44v16.857h-19.89c-16.64 0-30.13 13.46-30.13 30.08v27.28z" fill="#f6e2c6"/><path d="m150.918 240.734h-133.46c-.829 0-1.5-.672-1.5-1.5v-27.279c0-17.413 14.189-31.58 31.63-31.58h18.39v-15.356c0-.828.671-1.5 1.5-1.5h33.44c.829 0 1.5.672 1.5 1.5v15.356h18.4c17.424 0 31.6 14.167 31.6 31.58v27.279c0 .829-.672 1.5-1.5 1.5zm-131.96-3h130.46v-25.779c0-15.759-12.83-28.58-28.6-28.58h-19.9c-.829 0-1.5-.672-1.5-1.5v-15.356h-30.44v15.356c0 .828-.671 1.5-1.5 1.5h-19.89c-15.787 0-28.63 12.821-28.63 28.58z" fill="#3a312a"/><path d="m150.918 211.955v27.28h-133.46v-27.28c0-16.62 13.49-30.08 30.13-30.08h22l14.59 19.37 14.6-19.37h22.04c16.64 0 30.1 13.46 30.1 30.08z" fill="#8ac5dc"/><path d="m150.918 240.734h-133.46c-.829 0-1.5-.672-1.5-1.5v-27.279c0-17.413 14.189-31.58 31.63-31.58h22c.471 0 .914.222 1.198.598l13.392 17.78 13.402-17.781c.283-.376.727-.597 1.198-.597h22.04c17.424 0 31.6 14.167 31.6 31.58v27.279c0 .829-.672 1.5-1.5 1.5zm-131.96-3h130.46v-25.779c0-15.759-12.83-28.58-28.6-28.58h-21.292l-14.15 18.773c-.283.376-.727.597-1.198.597 0 0 0 0-.001 0-.471 0-.914-.222-1.198-.598l-14.14-18.773h-21.251c-15.787 0-28.63 12.821-28.63 28.58z" fill="#3a312a"/><path d="m62.274 209.396-9.486-27.521h-5.2c-16.64 0-30.13 13.46-30.13 30.08v27.28h55.1l-4.256-12.348z" fill="#87796f"/><path d="m72.558 240.734h-55.1c-.829 0-1.5-.672-1.5-1.5v-27.279c0-17.413 14.189-31.58 31.63-31.58h5.2c.64 0 1.209.406 1.418 1.011l9.486 27.521c.27.783-.146 1.638-.929 1.907-.783.27-1.637-.146-1.907-.929l-9.138-26.511h-4.13c-15.787 0-28.63 12.821-28.63 28.58v25.779h51.497l-3.57-10.358c-.27-.783.146-1.638.929-1.907.781-.271 1.637.146 1.907.929l4.256 12.348c.158.459.085.966-.197 1.36-.282.395-.737.629-1.222.629z" fill="#3a312a"/><path d="m101.174 223.695-5.356 15.54h55.1v-27.28c0-16.62-13.46-30.08-30.1-30.08h-5.23l-9.562 27.743z" fill="#87796f"/><path d="m150.918 240.735h-55.1c-.485 0-.94-.234-1.221-.629-.282-.395-.355-.901-.197-1.359l5.356-15.54c.27-.784 1.123-1.2 1.907-.93.783.27 1.199 1.123.929 1.906l-4.67 13.552h51.496v-25.78c0-15.759-12.83-28.58-28.6-28.58h-4.16l-9.214 26.732c-.27.783-1.122 1.198-1.907.929-.783-.27-1.199-1.123-.929-1.907l9.562-27.743c.209-.604.778-1.011 1.418-1.011h5.23c17.424 0 31.6 14.167 31.6 31.58v27.28c0 .829-.672 1.5-1.5 1.5z" fill="#3a312a"/><path d="m41.848 240.741c-.829 0-1.5-.672-1.5-1.5v-21.557c0-.828.671-1.5 1.5-1.5s1.5.672 1.5 1.5v21.557c0 .828-.671 1.5-1.5 1.5z" fill="#3a312a"/><path d="m149.452 211.955v25.78h-15v-25.78c0-12.17-7.66-22.59-18.41-26.69l.65-1.89h4.16c15.77 0 28.6 12.82 28.6 28.58z" fill="#695b51"/><path d="m89.327 219.057 3.483-17.795h-17.247l3.484 17.795z" fill="#87796f"/><path d="m89.327 220.557h-10.28c-.717 0-1.335-.508-1.472-1.212l-3.483-17.795c-.086-.439.029-.896.314-1.241.285-.347.71-.547 1.158-.547h17.246c.448 0 .873.2 1.158.547.285.346.4.802.314 1.241l-3.483 17.795c-.138.704-.755 1.212-1.472 1.212zm-9.046-3h7.811l2.896-14.795h-13.603z" fill="#3a312a"/><path d="m92.638 239.232h-16.9l3.31-20.171h10.28z" fill="#87796f"/><path d="m92.638 240.731h-16.9c-.44 0-.858-.193-1.144-.529-.285-.335-.408-.779-.336-1.214l3.31-20.17c.119-.725.745-1.257 1.48-1.257h10.28c.735 0 1.361.532 1.48 1.257l3.31 20.17c.071.435-.052.879-.337 1.214-.284.336-.702.529-1.143.529zm-15.134-3h13.368l-2.818-17.17h-7.732z" fill="#3a312a"/><path d="m84.178 201.249-10.72 8.065-20.673-27.439 10.72-8.085z" fill="#8ac5dc"/><path d="m73.459 210.814c-.455 0-.904-.206-1.199-.598l-20.673-27.439c-.498-.661-.366-1.602.295-2.1l10.72-8.085c.317-.24.715-.346 1.112-.288.394.056.75.266.989.583l20.673 27.459c.239.318.343.718.287 1.112-.056.393-.266.749-.583.988l-10.72 8.065c-.27.206-.587.303-.901.303zm-18.574-28.644 18.869 25.045 8.323-6.263-18.867-25.06z" fill="#3a312a"/><path d="m115.591 181.875-20.673 27.439-10.74-8.065 20.693-27.459z" fill="#8ac5dc"/><path d="m94.917 210.814c-.314 0-.63-.098-.9-.301l-10.74-8.066c-.318-.239-.529-.595-.584-.989-.056-.395.048-.795.288-1.112l20.693-27.459c.239-.318.595-.527.989-.583.393-.059.794.048 1.112.288l10.72 8.085c.661.498.793 1.438.295 2.1l-20.673 27.439c-.296.392-.745.598-1.2.598zm-8.637-9.862 8.341 6.264 18.87-25.046-8.325-6.278z" fill="#3a312a"/><path d="m197.914 203.09s3.408 12.659 13.222 13.246c0 0-13.1 4.525-13.321 14.202 0 0-2.579-13.572-12.925-14.059-.001.001 12.05-1.825 13.024-13.389z" fill="#d5de58"/><path d="m197.813 232.038c-.713 0-1.335-.506-1.473-1.218-.023-.124-2.494-12.417-11.521-12.843-.77-.036-1.388-.65-1.428-1.421-.04-.77.511-1.444 1.273-1.561.441-.068 10.895-1.816 11.754-12.031.062-.725.635-1.301 1.359-1.367.737-.064 1.394.399 1.584 1.102.031.116 3.259 11.626 11.863 12.141.714.042 1.297.583 1.395 1.292.098.708-.318 1.388-.994 1.622-.121.042-12.119 4.311-12.313 12.819-.018.767-.61 1.396-1.375 1.46-.04.003-.082.005-.124.005zm-7.74-15.729c3.878 1.969 6.23 5.746 7.586 8.876 2.026-4.021 5.941-6.786 8.949-8.426-4.135-1.843-6.783-5.651-8.334-8.723-1.793 4.359-5.27 6.868-8.201 8.273z" fill="#3a312a"/><path d="m176.215 220.071s2.411 8.954 9.352 9.369c0 0-9.266 3.201-9.422 10.046 0 0-1.824-9.6-9.142-9.944 0 0 8.523-1.292 9.212-9.471z" fill="#d5de58"/><path d="m176.144 240.985c-.714 0-1.337-.507-1.473-1.22-.016-.082-1.704-8.441-7.738-8.726-.771-.036-1.388-.65-1.428-1.421-.04-.77.511-1.444 1.273-1.561.296-.047 7.363-1.243 7.941-8.114.062-.726.636-1.303 1.361-1.368.718-.058 1.393.4 1.582 1.102.038.139 2.25 7.921 7.993 8.265.714.042 1.299.584 1.396 1.293s-.32 1.389-.997 1.622c-.08.028-8.281 2.952-8.411 8.661-.017.768-.611 1.398-1.376 1.461-.04.004-.082.006-.123.006zm-4.519-11.527c2.106 1.333 3.522 3.395 4.446 5.279 1.376-2.232 3.515-3.871 5.365-4.972-2.287-1.27-3.884-3.351-4.941-5.224-1.173 2.287-3.015 3.876-4.87 4.917z" fill="#3a312a"/><path d="m176.215 193.413s2.411 8.954 9.352 9.369c0 0-9.266 3.201-9.422 10.045 0 0-1.824-9.6-9.142-9.944 0 .001 8.523-1.29 9.212-9.47z" fill="#d5de58"/><path d="m176.144 214.328c-.714 0-1.337-.507-1.473-1.22-.016-.082-1.704-8.442-7.738-8.727-.771-.036-1.388-.65-1.428-1.421-.04-.77.511-1.444 1.273-1.561.296-.047 7.363-1.242 7.941-8.113.062-.726.636-1.303 1.361-1.368.719-.064 1.392.4 1.581 1.102.023.079 2.229 7.92 7.994 8.266.714.043 1.299.584 1.396 1.293s-.32 1.389-.997 1.622c-.08.028-8.281 2.952-8.411 8.661-.017.768-.611 1.397-1.376 1.461-.04.003-.082.005-.123.005zm-4.519-11.527c2.106 1.333 3.522 3.395 4.446 5.279 1.376-2.232 3.516-3.871 5.365-4.972-2.287-1.27-3.884-3.351-4.941-5.225-1.173 2.288-3.015 3.877-4.87 4.918z" fill="#3a312a"/><path clip-rule="evenodd" d="m223.119 17.63c-8.378-2.887-21.079-.106-26.521 7.577-.013 0-.017 0-.029 0-5.442-7.684-18.142-10.464-26.521-7.577-10.665 3.675-16.348 14.921-15.298 25.797 1.642 17.01 18.148 33.938 30.731 43.44 1.69 1.276 5.223 3.893 7.852 5.831 1.928 1.421 4.553 1.421 6.482.002 2.633-1.938 6.181-4.556 7.872-5.833 12.584-9.502 29.089-26.43 30.731-43.44 1.05-10.876-4.634-22.122-15.299-25.797z" fill="#e96c7a" fill-rule="evenodd"/><path d="m196.575 95.272c-1.448 0-2.896-.456-4.132-1.367-2.634-1.94-6.172-4.563-7.866-5.841-27.049-20.424-30.812-39.219-31.32-44.492-1.195-12.39 5.508-23.641 16.303-27.36 8.014-2.761 20.553-.635 27.024 6.611 6.472-7.247 19.013-9.376 27.023-6.611 10.795 3.72 17.499 14.971 16.304 27.36-.509 5.273-4.271 24.068-31.32 44.492-1.694 1.278-5.249 3.902-7.886 5.844-1.235.909-2.683 1.364-4.13 1.364zm-19.213-77.328c-2.3 0-4.613.342-6.826 1.104-9.327 3.215-15.338 13.407-14.293 24.235 1.506 15.608 16.559 32.13 30.143 42.387 1.687 1.274 5.213 3.887 7.837 5.821 1.408 1.037 3.297 1.036 4.703.001 2.627-1.934 6.17-4.548 7.856-5.822 13.584-10.257 28.637-26.778 30.143-42.387 1.045-10.828-4.967-21.021-14.294-24.235-9.399-3.235-20.615 1.105-24.808 7.026-.563.793-1.915.793-2.477 0-3.206-4.526-10.52-8.13-17.984-8.13z" fill="#3a312a"/><path clip-rule="evenodd" d="m44.946 109.783c0 6.424-5.21 11.632-11.638 11.632s-11.637-5.207-11.637-11.632c0-6.424 5.21-11.631 11.637-11.631s11.638 5.207 11.638 11.631z" fill="#f8e4c8" fill-rule="evenodd"/><path d="m33.309 122.914c-7.244 0-13.137-5.891-13.137-13.131 0-7.241 5.894-13.132 13.137-13.132 7.244 0 13.138 5.891 13.138 13.132-.001 7.24-5.894 13.131-13.138 13.131zm0-23.263c-5.59 0-10.137 4.545-10.137 10.132 0 5.586 4.547 10.131 10.137 10.131s10.138-4.545 10.138-10.131c-.001-5.587-4.549-10.132-10.138-10.132z" fill="#3a312a"/><ellipse clip-rule="evenodd" cx="134.883" cy="109.783" fill="#f8e4c8" fill-rule="evenodd" rx="11.637" ry="11.631" transform="matrix(1 -.002 .002 1 -.229 .281)"/><path d="m134.883 122.914c-7.244 0-13.137-5.891-13.137-13.131 0-7.241 5.894-13.132 13.137-13.132 7.244 0 13.138 5.891 13.138 13.132-.001 7.24-5.894 13.131-13.138 13.131zm0-23.263c-5.59 0-10.137 4.545-10.137 10.132 0 5.586 4.547 10.131 10.137 10.131s10.138-4.545 10.138-10.131c-.001-5.587-4.548-10.132-10.138-10.132z" fill="#3a312a"/><path d="m135.686 104.137c0 28.478-27.441 72.189-51.59 72.189-23.052 0-51.59-43.711-51.59-72.189s23.098-51.563 51.59-51.563 51.59 23.085 51.59 51.563z" fill="#f8e4c8"/><path d="m84.096 177.825c-11.055 0-24.391-9.743-35.673-26.063-10.743-15.539-17.417-33.788-17.417-47.626 0-29.26 23.816-53.064 53.09-53.064s53.09 23.804 53.09 53.064c0 13.994-6.514 32.241-16.999 47.618-11.298 16.569-24.453 26.071-36.091 26.071zm0-123.752c-27.62 0-50.09 22.458-50.09 50.064 0 13.261 6.47 30.856 16.885 45.92 10.722 15.51 23.135 24.769 33.205 24.769 10.475 0 23.04-9.256 33.612-24.76 10.164-14.906 16.478-32.505 16.478-45.929-.001-27.606-22.471-50.064-50.09-50.064z" fill="#3a312a"/><path d="m64.492 118.517c0 3.58-3.884 6.481-8.674 6.481s-8.674-2.902-8.674-6.481 3.884-6.481 8.674-6.481 8.674 2.902 8.674 6.481z" fill="#f59689"/><path d="m121.048 118.517c0 3.58-3.883 6.481-8.674 6.481s-8.674-2.902-8.674-6.481 3.884-6.481 8.674-6.481 8.674 2.902 8.674 6.481z" fill="#f59689"/><path d="m84.691 41.193c-29.491 0-53.397 22.845-53.397 51.026 0 2.982.54 5.205 1.543 7.981.473 1.309 8.119-2.871 8.77-3.329 3.256-2.291 5.917-5.396 7.905-8.829.822-1.428 1.508-2.88 2.06-4.333 1.76-4.635 6.542-17.533 11.398-16.521 6.512 1.357 13.892 2.123 21.722 2.123s15.21-.766 21.722-2.123c4.856-1.012 9.639 11.886 11.398 16.521.552 1.453 1.237 2.906 2.06 4.333 3.285 5.679 8.833 11.086 15.582 12.069.017-.326.429-.437.736-.548 2.209-.802 1.899-5.574 1.899-7.344 0-28.181-23.907-51.026-53.398-51.026z" fill="#87796f"/><path d="m33.277 101.932c-.241 0-.458-.027-.645-.087-.571-.18-1.011-.594-1.207-1.136-1.007-2.785-1.632-5.178-1.632-8.49 0-28.963 24.627-52.525 54.897-52.525 30.271 0 54.898 23.563 54.898 52.524l.006.575c.036 2.479.104 7.092-2.893 8.18-.002 0-.013.004-.026.01-.076.106-.168.204-.271.289-.326.269-.75.387-1.167.324-6.331-.924-12.561-5.71-16.663-12.803-.848-1.472-1.576-3.002-2.164-4.552l-.11-.289c-5.287-13.942-8.276-15.561-9.58-15.296-6.858 1.43-14.27 2.154-22.028 2.154s-15.169-.725-22.027-2.154c-1.314-.271-4.294 1.351-9.58 15.296l-.11.289c-.586 1.546-1.314 3.077-2.162 4.55-2.2 3.797-5.083 7.015-8.341 9.307-.064.044-6.34 3.834-9.195 3.834zm103.674-1.74v.003c0-.001 0-.002 0-.003zm-52.26-57.499c-28.616 0-51.897 22.217-51.897 49.525 0 2.547.437 4.498 1.161 6.636 1.766-.482 5.897-2.605 6.793-3.213 2.901-2.042 5.485-4.931 7.466-8.352.767-1.331 1.425-2.716 1.955-4.113l.109-.288c3.454-9.11 7.7-18.271 12.998-17.17 6.657 1.388 13.862 2.092 21.415 2.092s14.758-.704 21.415-2.092c5.296-1.097 9.544 8.059 12.998 17.17l.109.288c.532 1.4 1.19 2.785 1.957 4.116 3.476 6.01 8.565 10.143 13.739 11.201.277-.169.544-.263.694-.315.443-.16 1.054-1.029.991-5.343l-.007-.618c.002-27.307-23.279-49.524-51.896-49.524z" fill="#3a312a"/><path d="m84.094 147.462c-7.284 0-12.536-3.271-15.609-9.723-.356-.748-.039-1.644.709-2 .749-.353 1.644-.037 1.999.709 2.569 5.393 6.789 8.014 12.901 8.014 7.824 0 11.827-5.164 12.85-7.895.292-.776 1.158-1.169 1.931-.878.776.29 1.169 1.155.878 1.931-1.776 4.74-7.434 9.842-15.659 9.842z" fill="#3a312a"/><path d="m124.596 48.014c0 14.64-18.13 26.5-40.5 26.5s-40.5-11.86-40.5-26.5c0-5.64 5.8-11.61 13.01-16.83 2.64 5.78 7.71 10.22 13.89 12.03-3.58-3.93-5.79-9.14-5.79-14.88 0-.84.05-1.67.14-2.49 9.41-5.54 18.54-9.33 19.25-9.33.17 0 5.21 2.07 11.68 5.41-.11 1.01-.17 2.04-.17 3.09 0 10.05 5.16 18.52 12.21 21.2-2.76-3.93-4.45-9.14-4.45-14.88 0-1.72.15-3.39.44-4.99.29.17.57.34.86.51 10.02 6.04 19.93 13.88 19.93 21.16z" fill="#87796f"/><g fill="#3a312a"><path d="m84.096 76.015c-23.159 0-42-12.561-42-28 0-5.426 4.586-11.497 13.631-18.045.364-.265.828-.351 1.262-.235.435.114.795.418.982.827 1.753 3.838 4.615 7.001 8.163 9.123-1.909-3.459-2.927-7.352-2.927-11.351 0-.858.05-1.751.149-2.652.052-.471.322-.89.73-1.13 8.354-4.918 18.578-9.537 20.011-9.537.908 0 8.018 3.331 12.368 5.576.551.284.87.879.803 1.495-.107.983-.161 1.969-.161 2.929 0 6.892 2.628 13.216 6.759 16.988-1.306-3.28-1.999-6.929-1.999-10.669 0-1.79.156-3.559.464-5.257.087-.482.405-.891.85-1.096.444-.203.961-.179 1.385.069l.86.51c13.722 8.272 20.672 15.823 20.672 22.454-.002 15.44-18.843 28.001-42.002 28.001zm-28.026-42.566c-7.188 5.462-10.974 10.479-10.974 14.565 0 13.785 17.495 25 39 25s39.001-11.215 39.001-25c0-5.192-6.421-11.992-18.114-19.21-.078.832-.117 1.678-.117 2.529 0 5.204 1.484 10.183 4.178 14.018.379.539.361 1.263-.043 1.783-.404.521-1.099.715-1.717.481-7.882-2.996-13.177-12.079-13.177-22.602 0-.73.028-1.473.084-2.218-5.036-2.562-8.995-4.257-10.171-4.72-1.73.571-9.449 3.851-17.751 8.674-.041.538-.062 1.068-.062 1.583 0 5.122 1.917 10.048 5.399 13.87.453.497.52 1.234.163 1.805-.355.569-1.047.836-1.693.645-5.989-1.752-11.005-5.788-14.006-11.203zm28.221-15.451s0 0 0 0z"/><path d="m102.612 105.12c-3.952 0-6.803-1.777-8.474-5.283-.357-.748-.039-1.644.709-2 .748-.353 1.643-.037 1.999.709 1.162 2.438 2.994 3.574 5.766 3.574 3.243 0 5.195-2.066 5.715-3.455.292-.776 1.157-1.17 1.931-.878.776.29 1.169 1.155.878 1.931-.974 2.601-4.058 5.402-8.524 5.402z"/><path d="m65.612 105.12c-3.952 0-6.803-1.777-8.474-5.283-.356-.748-.039-1.644.709-2 .749-.353 1.644-.037 1.999.709 1.162 2.438 2.994 3.574 5.766 3.574 3.243 0 5.195-2.066 5.715-3.455.291-.776 1.158-1.17 1.931-.878.776.29 1.169 1.155.878 1.931-.974 2.601-4.058 5.402-8.524 5.402z"/></g><path d="m193.645 105.058c-1.927 0-3.489 1.562-3.489 3.488v1.757c-4.096.914-7.931 2.52-11.375 4.689l-1.227-1.227c-1.362-1.362-3.571-1.362-4.933 0l-6.281 6.281c-1.362 1.362-1.362 3.571 0 4.933l1.182 1.182c-2.212 3.451-3.853 7.302-4.795 11.42h-1.607c-1.927 0-3.488 1.562-3.488 3.489v8.883c0 1.927 1.562 3.488 3.488 3.488h1.524c.906 4.169 2.528 8.069 4.731 11.567l-1.035 1.035c-1.362 1.362-1.362 3.571 0 4.934l6.281 6.281c1.362 1.362 3.571 1.362 4.933 0l.99-.99c3.505 2.245 7.422 3.903 11.612 4.837v1.374c0 1.927 1.562 3.489 3.489 3.489h8.883c1.927 0 3.488-1.562 3.488-3.489v-1.374c4.19-.934 8.107-2.591 11.612-4.837l.991.99c1.362 1.362 3.571 1.362 4.934 0l6.281-6.281c1.362-1.362 1.362-3.571 0-4.934l-1.035-1.035c2.204-3.498 3.825-7.399 4.731-11.567h1.523c1.927 0 3.488-1.562 3.488-3.488v-8.883c0-1.927-1.562-3.489-3.488-3.489h-1.607c-.942-4.118-2.584-7.968-4.795-11.42l1.183-1.182c1.362-1.362 1.362-3.571 0-4.933l-6.281-6.281c-1.363-1.362-3.571-1.362-4.934 0l-1.227 1.227c-3.445-2.17-7.279-3.776-11.375-4.689v-1.757c0-1.927-1.562-3.488-3.488-3.488zm4.441 58.592c-10.017 0-18.137-8.12-18.137-18.137s8.12-18.137 18.137-18.137 18.137 8.12 18.137 18.137-8.12 18.137-18.137 18.137z" fill="#8bc0d7"/><path d="m202.528 187.469h-8.884c-2.751 0-4.988-2.238-4.988-4.989v-.19c-3.482-.895-6.8-2.275-9.891-4.119l-.15.15c-1.945 1.945-5.109 1.945-7.055 0l-6.281-6.281c-1.945-1.945-1.945-5.109 0-7.055l.201-.201c-1.808-3.083-3.158-6.383-4.026-9.84h-.335c-2.751 0-4.988-2.238-4.988-4.989v-8.883c0-2.751 2.237-4.988 4.988-4.988h.432c.896-3.412 2.261-6.666 4.071-9.699l-.343-.343c-1.944-1.944-1.944-5.108 0-7.055l6.281-6.281c1.945-1.945 5.109-1.945 7.055 0l.394.395c3.024-1.774 6.26-3.108 9.647-3.979v-.575c0-2.751 2.237-4.988 4.988-4.988h8.884c2.751 0 4.988 2.237 4.988 4.988v.575c3.388.87 6.624 2.204 9.647 3.979l.395-.395c1.945-1.946 5.108-1.944 7.054 0l6.281 6.281c1.944 1.946 1.944 5.11 0 7.055l-.342.343c1.81 3.034 3.175 6.287 4.07 9.699h.432c2.751 0 4.988 2.237 4.988 4.988v8.883c0 2.751-2.237 4.989-4.988 4.989h-.335c-.868 3.457-2.219 6.757-4.026 9.84l.201.201c1.945 1.945 1.945 5.109 0 7.055l-6.281 6.281c-1.945 1.944-5.108 1.946-7.054 0l-.151-.151c-3.091 1.844-6.408 3.226-9.891 4.12v.19c.001 2.75-2.237 4.989-4.988 4.989zm-23.982-12.699c.278 0 .56.078.809.237 3.422 2.192 7.166 3.752 11.128 4.636.687.152 1.174.762 1.174 1.464v1.373c0 1.097.892 1.989 1.988 1.989h8.884c1.097 0 1.988-.893 1.988-1.989v-1.373c0-.702.487-1.311 1.174-1.464 3.962-.884 7.706-2.443 11.128-4.636.597-.38 1.372-.294 1.87.201l.991.99c.774.775 2.035.776 2.811.001l6.281-6.281c.775-.775.775-2.037 0-2.813l-1.034-1.034c-.495-.495-.582-1.268-.209-1.859 2.154-3.421 3.68-7.15 4.534-11.087.149-.689.76-1.182 1.466-1.182h1.524c1.097 0 1.988-.893 1.988-1.989v-8.883c0-1.097-.892-1.988-1.988-1.988h-1.607c-.699 0-1.307-.483-1.462-1.165-.892-3.894-2.438-7.576-4.596-10.945-.381-.594-.296-1.371.201-1.87l1.182-1.183c.776-.775.775-2.037 0-2.813l-6.28-6.281c-.776-.776-2.037-.774-2.811 0l-1.228 1.228c-.494.496-1.268.581-1.86.209-3.364-2.12-7.032-3.633-10.901-4.495-.687-.152-1.174-.761-1.174-1.464v-1.758c0-1.097-.892-1.988-1.988-1.988h-8.884c-1.097 0-1.988.892-1.988 1.988v1.758c0 .703-.487 1.311-1.174 1.464-3.869.862-7.537 2.375-10.901 4.495-.594.372-1.365.285-1.861-.209l-1.227-1.228c-.773-.775-2.036-.775-2.812 0l-6.281 6.281c-.774.775-.775 2.037 0 2.813l1.183 1.183c.498.498.583 1.276.202 1.87-2.159 3.368-3.705 7.051-4.597 10.945-.155.682-.763 1.165-1.462 1.165h-1.607c-1.097 0-1.988.892-1.988 1.988v8.883c0 1.097.892 1.989 1.988 1.989h1.525c.706 0 1.316.492 1.466 1.182.855 3.936 2.38 7.666 4.534 11.087.373.592.286 1.364-.209 1.859l-1.034 1.034c-.775.775-.775 2.037 0 2.813l6.281 6.281c.775.775 2.037.775 2.813 0l.99-.99c.287-.29.672-.439 1.06-.439zm11.61-64.466h.01zm7.931 54.845c-10.828 0-19.637-8.809-19.637-19.637s8.809-19.637 19.637-19.637c10.827 0 19.636 8.809 19.636 19.637 0 10.829-8.809 19.637-19.636 19.637zm0-36.273c-9.174 0-16.637 7.463-16.637 16.637s7.463 16.637 16.637 16.637c9.173 0 16.636-7.463 16.636-16.637s-7.463-16.637-16.636-16.637z" fill="#3a312a"/></g></svg>