<?xml version="1.0" encoding="UTF-8"?>
<svg xmlns="http://www.w3.org/2000/svg" xmlns:xlink="http://www.w3.org/1999/xlink" version="1.1" id="Layer_1" x="0px" y="0px" viewBox="0 0 512 512" style="enable-background:new 0 0 512 512;" xml:space="preserve" width="512" height="512">
<g>
	<g>
		<path style="fill:#7A6D79;" d="M201.451,82.468C153.582,246.125,70.828,184.508,70.828,184.508&#10;&#9;&#9;&#9;c40.709-32.478,4.684-97.887,12.541-130.492s40.66-52.669,73.267-44.812S210.866,50.277,201.451,82.468z"/>
		<path style="fill:#FD9468;" d="M142.792,60.588L142.792,60.588c-9.13-11.81-6.957-28.785,4.853-37.914l11.386-8.802&#10;&#9;&#9;&#9;c11.809-9.129,28.783-6.956,37.913,4.853l0,0c9.13,11.81,6.957,28.785-4.853,37.914l-11.386,8.802&#10;&#9;&#9;&#9;C168.896,74.57,151.922,72.397,142.792,60.588z"/>
		<g>
			<path style="fill:#FFB09E;" d="M389.29,504.5l20.56-64.127c0-44.746-36.275-81.019-81.022-81.019h-18.081&#10;&#9;&#9;&#9;&#9;c-8.293,0-15.016-6.722-15.016-15.015v-44.044H237.67v44.044c0,8.293-6.723,15.015-15.016,15.015h-18.081&#10;&#9;&#9;&#9;&#9;c-44.747,0-81.022,36.273-81.022,81.019l20.516,64.127H389.29z"/>
			<path style="fill:#FFB09E;" d="M266.702,322.317h-0.004c-49.757,0-90.092-40.336-90.092-90.092V110.103h180.189v122.121&#10;&#9;&#9;&#9;&#9;C356.794,281.981,316.459,322.317,266.702,322.317z"/>
			<path style="fill:#7A6D79;" d="M417.483,158.231v63.601c0,21.946-7.403,43.251-21.012,60.468l-7.893,9.986v-23.524v52.303h0&#10;&#9;&#9;&#9;&#9;c-19.892-13.626-31.783-46.195-31.783-70.306v-82.393c0-10.953-7.02-20.807-17.494-24.012c-27.352-8.37-38.8-32.569-38.8-32.569&#10;&#9;&#9;&#9;&#9;s-27.104,42.154-97.596,38.58c-14.313-0.726-26.298,10.737-26.298,25.067v75.12c0,24.228-11.995,56.894-32.034,70.513l0-51.802&#10;&#9;&#9;&#9;&#9;v25.025l0,0c-18.289-18.288-28.563-43.092-28.563-68.955v-67.103C116.009,74.984,183.496,7.5,266.746,7.5h0&#10;&#9;&#9;&#9;&#9;C349.996,7.5,417.483,74.984,417.483,158.231z"/>
			<g>
				<path style="fill:#685E68;" d="M266.746,7.5L266.746,7.5c-5.063,0-10.066,0.254-15,0.742&#10;&#9;&#9;&#9;&#9;&#9;c76.207,7.529,135.737,71.805,135.737,149.989v63.602c0,21.946-7.403,43.25-21.012,60.468l-2.827,3.577&#10;&#9;&#9;&#9;&#9;&#9;c5.452,14.424,13.975,27.682,24.934,35.189v-28.779l7.893-9.987c13.609-17.218,21.012-38.522,21.012-60.468V158.23&#10;&#9;&#9;&#9;&#9;&#9;C417.483,74.984,349.996,7.5,266.746,7.5z"/>
			</g>
			<g>
				<path style="fill:#FFB09E;" d="M157.782,166.16c-11.597,1.765-14.897,17.607-13.365,35.509&#10;&#9;&#9;&#9;&#9;&#9;c1.532,17.902,9.861,29.056,20.122,29.056c5.662,0,9.543-3.203,12.066-8.469l10.772-23.91l-10.772-20.618&#10;&#9;&#9;&#9;&#9;&#9;C172.319,168.766,165.104,165.045,157.782,166.16z"/>
				<path style="fill:#FFB09E;" d="M375.618,166.16c-7.322-1.114-14.537,2.606-18.823,11.568L350.304,201l6.49,21.256&#10;&#9;&#9;&#9;&#9;&#9;c2.523,5.266,6.404,8.469,12.066,8.469c10.261,0,18.59-11.155,20.122-29.056C390.515,183.766,387.215,167.924,375.618,166.16z"/>
			</g>
		</g>
		<g>
			<path style="fill:#FD6930;" d="M266.699,417.609c39.303,0,69.785-25.809,83.605-55.356c-6.842-1.877-14.038-2.899-21.477-2.899&#10;&#9;&#9;&#9;&#9;h-14.507c-10.003,15.745-27.585,26.202-47.621,26.202s-37.618-10.457-47.621-26.202h-14.507c-7.433,0-14.624,1.021-21.462,2.895&#10;&#9;&#9;&#9;&#9;C198.196,393.09,227.38,417.609,266.699,417.609z"/>
			<path style="fill:#FD9468;" d="M389.29,504.5l20.56-64.127c0-37.308-25.226-68.705-59.546-78.12&#10;&#9;&#9;&#9;&#9;c-13.82,29.547-44.302,55.356-83.605,55.356c-39.319,0-68.503-24.52-83.588-55.36c-34.328,9.409-59.561,40.811-59.561,78.124&#10;&#9;&#9;&#9;&#9;l20.516,64.127H389.29z"/>
		</g>
		<path style="fill:#FD6930;" d="M92.184,504.5c0,0,3.337-67.38,51.882-118.002V504.5H92.184z"/>
		<path style="fill:#FD6930;" d="M441.172,504.5c0,0-3.337-67.38-51.882-118.002V504.5H441.172z"/>
	</g>
	<g>
		<path style="fill:none;stroke:#000000;stroke-width:15;stroke-linecap:round;stroke-linejoin:round;stroke-miterlimit:10;" d="&#10;&#9;&#9;&#9;M115.915,195.244c-25.565,3.8-45.087-10.735-45.087-10.735c40.709-32.478,4.684-97.887,12.541-130.492s40.66-52.669,73.267-44.812&#10;&#9;&#9;&#9;l6.485,2.061"/>
		<path style="fill:none;stroke:#000000;stroke-width:15;stroke-linecap:round;stroke-linejoin:round;stroke-miterlimit:10;" d="&#10;&#9;&#9;&#9;M147.833,65.593c-1.852-1.407-3.551-3.078-5.041-5.005l0,0c-9.13-11.81-6.957-28.785,4.853-37.914l11.386-8.802&#10;&#9;&#9;&#9;c11.809-9.129,28.783-6.956,37.913,4.853l0,0c1.097,1.419,2.031,2.912,2.804,4.458"/>
		<g>
			<path style="fill:none;stroke:#000000;stroke-width:15;stroke-linecap:round;stroke-linejoin:round;stroke-miterlimit:10;" d="&#10;&#9;&#9;&#9;&#9;M237.67,319.295v25.044c0,8.293-6.723,15.015-15.016,15.015"/>
			<path style="fill:none;stroke:#000000;stroke-width:15;stroke-linecap:round;stroke-linejoin:round;stroke-miterlimit:10;" d="&#10;&#9;&#9;&#9;&#9;M310.746,359.354c-8.293,0-15.016-6.722-15.016-15.015v-25.044"/>
			<path style="fill:none;stroke:#000000;stroke-width:15;stroke-linecap:round;stroke-linejoin:round;stroke-miterlimit:10;" d="&#10;&#9;&#9;&#9;&#9;M356.794,232.224c0,49.757-40.336,90.092-90.092,90.092h-0.004c-49.757,0-90.092-40.336-90.092-90.092"/>
			<path style="fill:none;stroke:#000000;stroke-width:15;stroke-linecap:round;stroke-linejoin:round;stroke-miterlimit:10;" d="&#10;&#9;&#9;&#9;&#9;M185.786,31.064C209.172,16.145,236.949,7.5,266.746,7.5h0c83.25,0,150.737,67.484,150.737,150.731v63.601&#10;&#9;&#9;&#9;&#9;c0,21.946-7.403,43.251-21.012,60.468l-7.893,9.986v-23.524v52.303h0c-19.892-13.626-31.783-46.195-31.783-70.306v-82.393&#10;&#9;&#9;&#9;&#9;c0-10.953-7.02-20.807-17.494-24.012c-27.352-8.37-38.8-32.569-38.8-32.569s-27.104,42.154-97.596,38.58&#10;&#9;&#9;&#9;&#9;c-14.313-0.726-26.298,10.737-26.298,25.067v75.12c0,24.228-11.995,56.894-32.034,70.513l0-51.802v25.025l0,0&#10;&#9;&#9;&#9;&#9;c-18.289-18.288-28.563-43.092-28.563-68.955v-67.103c0-44.181,19.009-83.922,49.295-111.492"/>
			<g>
				<path style="fill:none;stroke:#000000;stroke-width:15;stroke-linecap:round;stroke-linejoin:round;stroke-miterlimit:10;" d="&#10;&#9;&#9;&#9;&#9;&#9;M157.782,166.16c-11.597,1.765-14.897,17.607-13.365,35.509c1.532,17.902,9.861,29.056,20.122,29.056&#10;&#9;&#9;&#9;&#9;&#9;c5.662,0,9.543-3.203,12.066-8.469v-44.528C172.319,168.766,165.104,165.045,157.782,166.16z"/>
				<path style="fill:none;stroke:#000000;stroke-width:15;stroke-linecap:round;stroke-linejoin:round;stroke-miterlimit:10;" d="&#10;&#9;&#9;&#9;&#9;&#9;M375.618,166.16c-7.322-1.114-14.537,2.606-18.823,11.568v44.528c2.523,5.266,6.404,8.469,12.066,8.469&#10;&#9;&#9;&#9;&#9;&#9;c10.261,0,18.59-11.155,20.122-29.056C390.515,183.766,387.215,167.924,375.618,166.16z"/>
			</g>
			<path style="fill:none;stroke:#000000;stroke-width:15;stroke-linecap:round;stroke-linejoin:round;stroke-miterlimit:10;" d="&#10;&#9;&#9;&#9;&#9;M260.757,217.378c-1.001,6.673,4.004,13.347,12.013,13.347"/>
			<path style="fill:none;stroke:#000000;stroke-width:15;stroke-linecap:round;stroke-linejoin:round;stroke-miterlimit:10;" d="&#10;&#9;&#9;&#9;&#9;M249.025,261.229c10.819,6.62,24.53,6.62,35.35,0.001"/>
			<g>
				
					<line style="fill:none;stroke:#000000;stroke-width:15;stroke-linecap:round;stroke-linejoin:round;stroke-miterlimit:10;" x1="227.003" y1="177.331" x2="227.003" y2="185.625"/>
				
					<line style="fill:none;stroke:#000000;stroke-width:15;stroke-linecap:round;stroke-linejoin:round;stroke-miterlimit:10;" x1="306.397" y1="177.331" x2="306.397" y2="185.625"/>
			</g>
		</g>
		<g>
			<path style="fill:none;stroke:#000000;stroke-width:15;stroke-linecap:round;stroke-linejoin:round;stroke-miterlimit:10;" d="&#10;&#9;&#9;&#9;&#9;M326.941,393.859c10.02-9.087,17.963-20.061,23.363-31.606c-6.842-1.877-14.038-2.899-21.477-2.899h-14.507&#10;&#9;&#9;&#9;&#9;c-10.003,15.745-27.585,26.202-47.621,26.202s-37.618-10.457-47.621-26.202h-14.507c-7.433,0-14.624,1.021-21.462,2.895&#10;&#9;&#9;&#9;&#9;c15.085,30.841,44.269,55.36,83.588,55.36c14.581,0,27.948-3.552,39.701-9.53"/>
			<path style="fill:none;stroke:#000000;stroke-width:15;stroke-linecap:round;stroke-linejoin:round;stroke-miterlimit:10;" d="&#10;&#9;&#9;&#9;&#9;M183.111,362.249c-15.295,4.192-28.784,12.751-39.041,24.252"/>
			<path style="fill:none;stroke:#000000;stroke-width:15;stroke-linecap:round;stroke-linejoin:round;stroke-miterlimit:10;" d="&#10;&#9;&#9;&#9;&#9;M389.31,386.479c-10.251-11.487-23.727-20.035-39.006-24.226"/>
		</g>
		<path style="fill:none;stroke:#000000;stroke-width:15;stroke-linecap:round;stroke-linejoin:round;stroke-miterlimit:10;" d="&#10;&#9;&#9;&#9;M92.184,504.5c0,0,3.337-67.38,51.882-118.002V504.5"/>
		<path style="fill:none;stroke:#000000;stroke-width:15;stroke-linecap:round;stroke-linejoin:round;stroke-miterlimit:10;" d="&#10;&#9;&#9;&#9;M441.172,504.5c0,0-3.337-67.38-51.882-118.002V504.5"/>
	</g>
</g>















</svg>
