<svg id="Layer_1" enable-background="new 0 0 468 468" height="512" viewBox="0 0 468 468" width="512" xmlns="http://www.w3.org/2000/svg" xmlns:xlink="http://www.w3.org/1999/xlink"><defs><path id="SVGID_1_" d="m248.887 467.584c-120.178 7.561-214.46-89.163-240.914-189.005-2.535-9.567-28.506-113.822 29.5-200.36 10.595-15.807 39.252-57.291 90.957-72.26 53.657-15.534 123.959-.148 140.124 39.759 11.362 28.052-10.049 53.351 1.639 65.002 20.069 20.005 83.117-54.659 133.568-37.695 48.421 16.282 72.895 112.816 61.458 187.263-15.229 99.127-100.409 200.002-216.332 207.296z"/><clipPath id="SVGID_2_"><use xlink:href="#SVGID_1_"/></clipPath></defs><g><g><use fill="#e6edff" xlink:href="#SVGID_1_"/><g clip-path="url(#SVGID_2_)"><g><path d="m.199 225.334 116.902-.8c77.922-.4 155.885-1.524 233.804-1 38.967.365 77.935.654 116.902 1.8.11.003.197.095.194.206-.003.106-.089.191-.194.194-38.967 1.146-77.935 1.435-116.902 1.8-77.919.524-155.882-.6-233.804-1l-116.902-.8c-.11-.001-.199-.091-.199-.201.001-.11.09-.198.199-.199z" fill="#fff"/></g><g><path d="m.199 236.057 116.902-.8c77.922-.4 155.885-1.524 233.804-1 38.967.365 77.935.654 116.902 1.8.11.003.197.095.194.206-.003.106-.089.191-.194.194-38.967 1.146-77.935 1.435-116.902 1.8-77.919.524-155.882-.6-233.804-1l-116.902-.8c-.11-.001-.199-.091-.199-.201.001-.11.09-.198.199-.199z" fill="#fff"/></g><g><path d="m.199 246.779 116.902-.8c77.922-.4 155.885-1.524 233.804-1 38.967.365 77.935.654 116.902 1.8.11.003.197.095.194.206-.003.106-.089.191-.194.194-38.967 1.146-77.935 1.435-116.902 1.8-77.919.524-155.882-.6-233.804-1l-116.902-.8c-.11-.001-.199-.091-.199-.201.001-.109.09-.198.199-.199z" fill="#fff"/></g><g><path d="m.199 257.502 116.902-.8c77.922-.4 155.885-1.524 233.804-1 38.967.365 77.935.654 116.902 1.8.11.003.197.095.194.206-.003.106-.089.191-.194.194-38.967 1.146-77.935 1.435-116.902 1.8-77.919.524-155.882-.6-233.804-1l-116.902-.8c-.11-.001-.199-.091-.199-.201.001-.11.09-.198.199-.199z" fill="#fff"/></g><g><path d="m.199 268.225 116.902-.8c77.922-.4 155.885-1.524 233.804-1 38.967.365 77.935.654 116.902 1.8.11.003.197.095.194.206-.003.106-.089.191-.194.194-38.967 1.146-77.935 1.435-116.902 1.8-77.919.524-155.882-.6-233.804-1l-116.902-.8c-.11-.001-.199-.091-.199-.201.001-.11.09-.198.199-.199z" fill="#fff"/></g><g><path d="m.199 278.948 116.902-.8c77.922-.4 155.885-1.524 233.804-1 38.967.365 77.935.654 116.902 1.8.11.003.197.095.194.206-.003.106-.089.191-.194.194-38.967 1.146-77.935 1.435-116.902 1.8-77.919.524-155.882-.6-233.804-1l-116.902-.8c-.11-.001-.199-.091-.199-.201.001-.11.09-.199.199-.199z" fill="#fff"/></g><g><path d="m.199 289.67 116.902-.8c77.922-.4 155.885-1.524 233.804-1 38.967.365 77.935.654 116.902 1.8.11.003.197.095.194.206-.003.106-.089.191-.194.194-38.967 1.146-77.935 1.435-116.902 1.8-77.919.524-155.882-.6-233.804-1l-116.902-.8c-.11-.001-.199-.091-.199-.201.001-.11.09-.198.199-.199z" fill="#fff"/></g><g><path d="m.199 300.393 116.902-.8c77.922-.4 155.885-1.524 233.804-1 38.967.365 77.935.654 116.902 1.8.11.003.197.095.194.206-.003.106-.089.191-.194.194-38.967 1.146-77.935 1.435-116.902 1.8-77.919.524-155.882-.6-233.804-1l-116.902-.8c-.11-.001-.199-.091-.199-.201.001-.11.09-.198.199-.199z" fill="#fff"/></g><g><path d="m.199 311.116 116.902-.8c77.922-.4 155.885-1.524 233.804-1 38.967.365 77.935.654 116.902 1.8.11.003.197.095.194.206-.003.106-.089.191-.194.194-38.967 1.146-77.935 1.435-116.902 1.8-77.919.524-155.882-.6-233.804-1l-116.902-.8c-.11-.001-.199-.091-.199-.201.001-.11.09-.199.199-.199z" fill="#fff"/></g><g><path d="m.199 321.838 116.902-.8c77.922-.4 155.885-1.524 233.804-1 38.967.365 77.935.654 116.902 1.8.11.003.197.095.194.206-.003.106-.089.191-.194.194-38.967 1.146-77.935 1.435-116.902 1.8-77.919.524-155.882-.6-233.804-1l-116.902-.8c-.11-.001-.199-.091-.199-.201.001-.11.09-.198.199-.199z" fill="#fff"/></g><g><path d="m.199 332.561 116.902-.8c77.922-.4 155.885-1.524 233.804-1 38.967.365 77.935.654 116.902 1.8.11.003.197.095.194.206-.003.106-.089.191-.194.194-38.967 1.146-77.935 1.435-116.902 1.8-77.919.524-155.882-.6-233.804-1l-116.902-.8c-.111-.001-.2-.091-.199-.201s.09-.198.199-.199z" fill="#fff"/></g><g><path d="m.199 343.284 116.902-.8c77.922-.4 155.885-1.524 233.804-1 38.967.365 77.935.654 116.902 1.8.11.003.197.095.194.206-.003.106-.089.191-.194.194-38.967 1.146-77.935 1.435-116.902 1.8-77.919.524-155.882-.6-233.804-1l-116.902-.8c-.11-.001-.199-.091-.199-.201.001-.11.09-.198.199-.199z" fill="#fff"/></g><g><path d="m.199 354.006 116.902-.8c77.922-.4 155.885-1.524 233.804-1 38.967.365 77.935.654 116.902 1.8.11.003.197.095.194.206-.003.106-.089.191-.194.194-38.967 1.146-77.935 1.435-116.902 1.8-77.919.524-155.882-.6-233.804-1l-116.902-.8c-.11-.001-.199-.091-.199-.201.001-.109.09-.198.199-.199z" fill="#fff"/></g><g><path d="m.199 364.729 116.902-.8c77.922-.4 155.885-1.524 233.804-1 38.967.365 77.935.654 116.902 1.8.11.003.197.095.194.206-.003.106-.089.191-.194.194-38.967 1.146-77.935 1.435-116.902 1.8-77.919.524-155.882-.6-233.804-1l-116.902-.8c-.11-.001-.199-.091-.199-.201.001-.11.09-.198.199-.199z" fill="#fff"/></g><g><path d="m.199 375.452 116.902-.8c77.922-.4 155.885-1.524 233.804-1 38.967.365 77.935.654 116.902 1.8.11.003.197.095.194.206-.003.106-.089.191-.194.194-38.967 1.146-77.935 1.435-116.902 1.8-77.919.524-155.882-.6-233.804-1l-116.902-.8c-.11-.001-.199-.091-.199-.201.001-.11.09-.198.199-.199z" fill="#fff"/></g><g><path d="m.199 386.174 116.902-.8c77.922-.4 155.885-1.524 233.804-1 38.967.365 77.935.654 116.902 1.8.11.003.197.095.194.206-.003.106-.089.191-.194.194-38.967 1.146-77.935 1.435-116.902 1.8-77.919.524-155.882-.6-233.804-1l-116.902-.8c-.11-.001-.199-.091-.199-.201.001-.109.09-.198.199-.199z" fill="#fff"/></g><g><path d="m.199 396.398 116.902-.8c77.922-.4 155.885-1.524 233.804-1 38.967.365 77.935.654 116.902 1.8.11.003.197.095.194.206-.003.106-.089.191-.194.194-38.967 1.146-77.935 1.435-116.902 1.8-77.919.524-155.882-.6-233.804-1l-116.902-.8c-.11-.001-.199-.091-.199-.201.001-.109.09-.198.199-.199z" fill="#fff"/></g><g><path d="m.199 406.622 116.902-.8c77.922-.4 155.885-1.524 233.804-1 38.967.365 77.935.654 116.902 1.8.11.003.197.095.194.206-.003.106-.089.191-.194.194-38.967 1.146-77.935 1.435-116.902 1.8-77.919.524-155.882-.6-233.804-1l-116.902-.8c-.11-.001-.199-.091-.199-.201.001-.109.09-.198.199-.199z" fill="#fff"/></g><g><path d="m.199 416.846 116.902-.8c77.922-.4 155.885-1.524 233.804-1 38.967.365 77.935.654 116.902 1.8.11.003.197.095.194.206-.003.106-.089.191-.194.194-38.967 1.146-77.935 1.435-116.902 1.8-77.919.524-155.882-.6-233.804-1l-116.902-.8c-.11-.001-.199-.091-.199-.201.001-.109.09-.198.199-.199z" fill="#fff"/></g><g><path d="m.199 427.07 116.902-.8c77.922-.4 155.885-1.524 233.804-1 38.967.365 77.935.654 116.902 1.8.11.003.197.095.194.206-.003.106-.089.191-.194.194-38.967 1.146-77.935 1.435-116.902 1.8-77.919.524-155.882-.6-233.804-1l-116.902-.8c-.11-.001-.199-.091-.199-.201.001-.11.09-.198.199-.199z" fill="#fff"/></g><g><path d="m.199 437.294 116.902-.8c77.922-.4 155.885-1.524 233.804-1 38.967.365 77.935.654 116.902 1.8.11.003.197.095.194.206-.003.106-.089.191-.194.194-38.967 1.146-77.935 1.435-116.902 1.8-77.919.524-155.882-.6-233.804-1l-116.902-.8c-.11-.001-.199-.091-.199-.201.001-.11.09-.198.199-.199z" fill="#fff"/></g><g><path d="m.199 446.496 116.902-.8c77.922-.4 155.885-1.524 233.804-1 38.967.365 77.935.654 116.902 1.8.11.003.197.095.194.206-.003.106-.089.191-.194.194-38.967 1.146-77.935 1.435-116.902 1.8-77.919.524-155.882-.6-233.804-1l-116.902-.8c-.11-.001-.199-.091-.199-.201.001-.11.09-.198.199-.199z" fill="#fff"/></g><g><path d="m.199 456.72 116.902-.8c77.922-.4 155.885-1.524 233.804-1 38.967.365 77.935.654 116.902 1.8.11.003.197.095.194.206-.003.106-.089.191-.194.194-38.967 1.146-77.935 1.435-116.902 1.8-38.967.262-77.935-.184-116.902-.4l-116.902-.6-116.902-.8c-.11-.001-.199-.091-.199-.201.001-.11.09-.198.199-.199z" fill="#fff"/></g><g><path d="m.199 214.611 116.902-.8c77.922-.4 155.885-1.524 233.804-1 38.967.365 77.935.654 116.902 1.8.11.003.197.095.194.206-.003.106-.089.191-.194.194-38.967 1.146-77.935 1.435-116.902 1.8-77.919.524-155.882-.6-233.804-1l-116.902-.8c-.11-.001-.199-.091-.199-.201.001-.109.09-.198.199-.199z" fill="#fff"/></g><g><path d="m.199 203.889 116.902-.8c77.922-.4 155.885-1.524 233.804-1 38.967.365 77.935.654 116.902 1.8.11.003.197.095.194.206-.003.106-.089.191-.194.194-38.967 1.146-77.935 1.435-116.902 1.8-77.919.524-155.882-.6-233.804-1l-116.902-.8c-.11-.001-.199-.091-.199-.201.001-.11.09-.199.199-.199z" fill="#fff"/></g><g><path d="m.199 193.166 116.902-.8c77.922-.4 155.885-1.524 233.804-1 38.967.365 77.935.654 116.902 1.8.11.003.197.095.194.206-.003.106-.089.191-.194.194-38.967 1.146-77.935 1.435-116.902 1.8-77.919.524-155.882-.6-233.804-1l-116.902-.8c-.11-.001-.199-.091-.199-.201.001-.11.09-.198.199-.199z" fill="#fff"/></g><g><path d="m.199 182.443 116.902-.8c77.922-.4 155.885-1.524 233.804-1 38.967.365 77.935.654 116.902 1.8.11.003.197.095.194.206-.003.106-.089.191-.194.194-38.967 1.146-77.935 1.435-116.902 1.8-77.919.524-155.882-.6-233.804-1l-116.902-.8c-.11-.001-.199-.091-.199-.201.001-.11.09-.198.199-.199z" fill="#fff"/></g><g><path d="m.199 171.721 116.902-.8c77.922-.4 155.885-1.524 233.804-1 38.967.365 77.935.654 116.902 1.8.11.003.197.095.194.206-.003.106-.089.191-.194.194-38.967 1.146-77.935 1.435-116.902 1.8-77.919.524-155.882-.6-233.804-1l-116.902-.8c-.11-.001-.199-.091-.199-.201.001-.11.09-.199.199-.199z" fill="#fff"/></g><g><path d="m.199 160.998 116.902-.8c77.922-.4 155.885-1.524 233.804-1 38.967.365 77.935.654 116.902 1.8.11.003.197.095.194.206-.003.106-.089.191-.194.194-38.967 1.146-77.935 1.435-116.902 1.8-77.919.524-155.882-.6-233.804-1l-116.902-.8c-.11-.001-.199-.091-.199-.201.001-.11.09-.198.199-.199z" fill="#fff"/></g><g><path d="m.199 150.275 116.902-.8c77.922-.4 155.885-1.524 233.804-1 38.967.365 77.935.654 116.902 1.8.11.003.197.095.194.206-.003.106-.089.191-.194.194-38.967 1.146-77.935 1.435-116.902 1.8-77.919.524-155.882-.6-233.804-1l-116.902-.8c-.11-.001-.199-.091-.199-.201.001-.11.09-.198.199-.199z" fill="#fff"/></g><g><path d="m.199 139.552 116.902-.8c77.922-.4 155.885-1.524 233.804-1 38.967.365 77.935.654 116.902 1.8.11.003.197.095.194.206-.003.106-.089.191-.194.194-38.967 1.146-77.935 1.435-116.902 1.8-77.919.524-155.882-.6-233.804-1l-116.902-.8c-.11-.001-.199-.091-.199-.201.001-.109.09-.198.199-.199z" fill="#fff"/></g><g><path d="m.199 128.83 116.902-.8c77.922-.4 155.885-1.524 233.804-1 38.967.365 77.935.654 116.902 1.8.11.003.197.095.194.206-.003.106-.089.191-.194.194-38.967 1.146-77.935 1.435-116.902 1.8-77.919.524-155.882-.6-233.804-1l-116.902-.8c-.11-.001-.199-.091-.199-.201.001-.11.09-.198.199-.199z" fill="#fff"/></g><g><path d="m.199 118.107 116.902-.8c77.922-.4 155.885-1.524 233.804-1 38.967.365 77.935.654 116.902 1.8.11.003.197.095.194.206-.003.106-.089.191-.194.194-38.967 1.146-77.935 1.435-116.902 1.8-77.919.524-155.882-.6-233.804-1l-116.902-.8c-.11-.001-.199-.091-.199-.201.001-.11.09-.198.199-.199z" fill="#fff"/></g><g><path d="m.199 107.384 116.902-.8c77.922-.4 155.885-1.524 233.804-1 38.967.365 77.935.654 116.902 1.8.11.003.197.095.194.206-.003.106-.089.191-.194.194-38.967 1.146-77.935 1.435-116.902 1.8-77.919.524-155.882-.6-233.804-1l-116.902-.8c-.11-.001-.199-.091-.199-.201.001-.109.09-.198.199-.199z" fill="#fff"/></g><g><path d="m.199 96.662 116.902-.8c77.922-.4 155.885-1.524 233.804-1 38.967.365 77.935.654 116.902 1.8.11.003.197.095.194.206-.003.106-.089.191-.194.194-38.967 1.146-77.935 1.435-116.902 1.8-77.919.524-155.882-.6-233.804-1l-116.902-.8c-.111-.001-.2-.091-.199-.202.001-.109.09-.197.199-.198z" fill="#fff"/></g><g><path d="m.199 85.939 116.902-.8c77.922-.4 155.885-1.524 233.804-1 38.967.365 77.935.654 116.902 1.8.11.003.197.095.194.206-.003.106-.089.191-.194.194-38.967 1.146-77.935 1.435-116.902 1.8-77.919.524-155.882-.6-233.804-1l-116.902-.8c-.111-.001-.2-.091-.199-.201s.09-.198.199-.199z" fill="#fff"/></g><g><path d="m.199 75.216 116.902-.8c77.922-.4 155.885-1.524 233.804-1 38.967.365 77.935.654 116.902 1.8.11.003.197.095.194.206-.003.106-.089.191-.194.194-38.967 1.146-77.935 1.435-116.902 1.8-77.919.524-155.882-.6-233.804-1l-116.902-.8c-.111 0-.2-.091-.199-.201s.09-.198.199-.199z" fill="#fff"/></g><g><path d="m.199 64.494 116.902-.8c77.922-.4 155.885-1.524 233.804-1 38.967.365 77.935.654 116.902 1.8.11.003.197.095.194.206-.003.106-.089.191-.194.194-38.967 1.146-77.935 1.435-116.902 1.8-77.919.524-155.882-.6-233.804-1l-116.902-.8c-.111-.001-.2-.091-.199-.202.001-.109.09-.198.199-.198z" fill="#fff"/></g><g><path d="m.199 53.771 116.902-.8c77.922-.4 155.885-1.524 233.804-1 38.967.365 77.935.654 116.902 1.8.11.003.197.095.194.206-.003.106-.089.191-.194.194-38.967 1.146-77.935 1.435-116.902 1.8-77.919.524-155.882-.6-233.804-1l-116.902-.8c-.111-.001-.2-.091-.199-.201s.09-.198.199-.199z" fill="#fff"/></g><g><path d="m.199 43.048 116.902-.8c77.922-.4 155.885-1.524 233.804-1 38.967.365 77.935.654 116.902 1.8.11.003.197.095.194.206-.003.106-.089.191-.194.194-38.967 1.146-77.935 1.435-116.902 1.8-77.919.524-155.882-.6-233.804-1l-116.902-.8c-.111-.001-.2-.091-.199-.201s.09-.198.199-.199z" fill="#fff"/></g><g><path d="m.199 32.326 116.902-.8c77.922-.4 155.885-1.524 233.804-1 38.967.365 77.935.654 116.902 1.8.11.003.197.095.194.206-.003.106-.089.191-.194.194-38.967 1.146-77.935 1.435-116.902 1.8-77.919.524-155.882-.6-233.804-1l-116.902-.8c-.111-.001-.2-.091-.199-.202.001-.109.09-.198.199-.198z" fill="#fff"/></g><g><path d="m.199 21.603 116.902-.8c77.922-.4 155.885-1.524 233.804-1 38.967.365 77.935.654 116.902 1.8.11.003.197.095.194.206-.003.106-.089.191-.194.194-38.967 1.146-77.935 1.435-116.902 1.8-77.919.524-155.882-.6-233.804-1l-116.902-.8c-.111-.001-.2-.091-.199-.202.001-.109.09-.197.199-.198z" fill="#fff"/></g><g><path d="m.199 10.88 116.902-.8c77.922-.4 155.885-1.524 233.804-1 38.967.365 77.935.654 116.902 1.8.11.003.197.095.194.206-.003.106-.089.191-.194.194-38.967 1.146-77.935 1.435-116.902 1.8-77.919.524-155.882-.6-233.804-1l-116.902-.8c-.111-.001-.2-.091-.199-.201s.09-.198.199-.199z" fill="#fff"/></g></g></g><g><g><g><path d="m367.359 466h-128.718c-5.523 0-10-4.477-10-10v-18c0-5.523 4.477-10 10-10h128.718z" fill="#16dba2"/></g><g><path d="m238.641 456v-18c0-5.523 4.477-10 10-10h-10c-5.523 0-10 4.477-10 10v18c0 5.523 4.477 10 10 10h10c-5.523 0-10-4.477-10-10z" fill="#14c679"/></g><g><path d="m346 456h-68c-1.105 0-2-.895-2-2v-14c0-1.105.895-2 2-2h68z" fill="#fff"/></g><g><circle cx="250" cy="447.399" fill="#fff" r="7"/></g></g><g><g><path d="m347.359 428h-128.718c-5.523 0-10-4.477-10-10v-18c0-5.523 4.477-10 10-10h128.718z" fill="#ffd54f"/></g><g><path d="m326 418h-68c-1.105 0-2-.895-2-2v-14c0-1.105.895-2 2-2h68z" fill="#fff"/></g><g><circle cx="230" cy="409.399" fill="#fff" r="7"/></g></g><g><g><g><path d="m454 310.811h-420v-256c0-11.046 8.954-20 20-20h380c11.046 0 20 8.954 20 20z" fill="#b0bec5"/></g><g><path d="m48 310.811v-256c0-3.309 2.691-6 6-6h380c3.309 0 6 2.691 6 6v256z" fill="#fff"/></g><g><g><path d="m446 351.811h-404c-11.046 0-20-8.954-20-20v-21h444v21c0 11.045-8.954 20-20 20z" fill="#78909c"/></g></g></g><g><g><path d="m411.833 260.508 13.167 50.303h-39l-9-39.303z" fill="#ffc1b0"/></g><g><path d="m432 263.008s-5.935-76.242-24.561-100.24c-12.446-11.858-29.172-17.609-46.272-17.427l-27.604-2.76c-29.065-2.906-68.377 7.673-85.676 33.255l-36.054 53.319 34 41.02 24.099-34.787c.836 4.502 1.695 9.011 2.568 13.454 7.667 39-9 61.969-9 61.969h124.333c-1.552-4.969-2.565-10.502-3.149-16.416z" fill="#f66"/></g><g><path d="m318 142.286c-26.24 1.431-55.756 12.319-70.112 33.551l-36.054 53.319 5.733 6.916 35.321-52.235c13.451-19.892 40.209-30.708 65.112-33.172z" fill="#e55c5c"/></g><g><circle cx="329.5" cy="113.008" fill="#4c4c4c" r="43"/></g><g><path d="m389.23 243.082c.167-1.092-.582-2.112-1.674-2.279-1.09-.163-2.112.582-2.28 1.674-4.56 29.759-4.525 52.354.465 68.334h4.3c-4.807-15.393-5.278-38.577-.811-67.729z" fill="#e55c5c"/></g><g><path d="m361.167 144.341-4.355-.435c-11.236-11.276-14.59-30.157-13.645-47.731l-34.667 9.333s8.515 19.273 3.224 35.657c-6.987.883-12.933 1.522-21.624 4.973 2.016 12.659 7.141 29.544 34.733 26.704 21.435-2.207 36.986-13.828 48.914-27.091-7.811-1.342-12.58-1.41-12.58-1.41z" fill="#ffc1b0"/></g><g><path d="m308.5 105.508s8.515 19.273 3.224 35.657c-6.987.883-12.933 1.522-21.624 4.973 1.522 9.556 4.822 21.515 18.215 25.584-6.083-5.532-8.116-13.683-9.215-20.584 8.69-3.451 14.636-4.09 21.624-4.973 5.292-16.383-3.224-35.657-3.224-35.657l25.543-6.877c-.047-2.495-.009-4.988.123-7.456z" fill="#ffac99"/></g><g><path d="m332.833 127.175s-26.667 7.333-36-26.667-1.201-51.188 4-55.667c12-10.333 48.333-8.667 54.333 36 5.961 44.369-22.333 46.334-22.333 46.334z" fill="#ffd7cc"/></g><g><path d="m300.833 44.841s47.167.667 46.167 29.667-.57 62.887 12 77c9.059 10.171-1.431 52.164-7.998 74.831-2.336 8.063 4.093 15.953 12.463 15.316 15.403-1.171 36.373-7.803 40.824-34.459 7.211-43.188-28.789-61.688-29.289-96.188s-21-88.5-56.5-89-17.667 22.833-17.667 22.833z" fill="#4c4c4c"/></g><g><path d="m300.5 30.508s-26.667-9-23.333 63c3.333 72-38.667 98.097-10.167 139.548 6.583 7.234 16.757 11.637 25.111 14.211 7.374 2.272 14.953-2.905 15.5-10.602 1.569-22.111 2.901-66.396-7.61-100.658-3.525-11.489-3.167-35.5-4-43.5-1.966-18.874 19.44-16.5 8-44.5z" fill="#4c4c4c"/></g><g><path d="m277 233.056c-28.5-41.452 13.5-67.548 10.167-139.548-1.957-42.268 6.425-56.615 13.681-61.261l-.348-1.739s-26.667-9-23.333 63c3.333 72-38.667 98.097-10.167 139.548 6.583 7.234 16.757 11.637 25.111 14.211 2.918.899 5.861.617 8.395-.511-8.022-2.631-17.339-6.923-23.506-13.7z" fill="#3f3f3f"/></g><g><g><circle cx="320.1" cy="294.439" fill="#fff" r="5"/></g><g><circle cx="360.1" cy="274.439" fill="#fff" r="5"/></g><g><circle cx="330.1" cy="234.439" fill="#fff" r="5"/></g><g><circle cx="290.1" cy="264.439" fill="#fff" r="5"/></g><g><circle cx="245.1" cy="229.439" fill="#fff" r="5"/></g><g><circle cx="335.1" cy="189.439" fill="#fff" r="5"/></g><g><circle cx="405.1" cy="249.439" fill="#fff" r="5"/></g></g><g><path d="m226.313 127.5c2.701 4.557 4.811 10.831 4.687 19.258l1.128-2.35c1.764-3.673 6.928-3.852 8.941-.309.79 1.39.875 3.071.229 4.534-2.123 4.802-6.798 15.375-6.798 15.375l-7 11.833c1.227 25.289 3.207 50.683 3.173 76.01l15.159 18.289s-29.805 35.034-46.332 16.701c-13.897-15.416 2.333-113.333 2.333-113.333-6.585-13.812-7.314-32.023.185-45.548 5.245-9.459 18.78-9.765 24.295-.46z" fill="#ffc1b0"/></g></g></g><g><g><path d="m100.341 258.494s-20.643-28.989-30.657-15.96c-10.493 13.654 30.657 31.919 30.657 31.919z" fill="#ffd7cc"/></g><g><path d="m145.971 258.494s20.643-28.989 30.657-15.96c10.493 13.654-30.657 31.919-30.657 31.919z" fill="#ffd7cc"/></g><g><path d="m203.663 422.338-19.108-41.596 31.008-7.835s7.084 15 9.415 19.706c28.759 58.048-5.328 58.721-17.463 56.589-8.643-1.518-47.826-14.833-47.826-14.833v-17.786z" fill="#ffc1b0"/></g><g><path d="m19.23 257.511s1.359 34.124 4.097 63.043l24.573 1.165c-.446-3.073.817-9.196-.469-15.954l-5.005-49.391 4.762-11.437 4.138-14.57c.394-1.387.107-2.878-.772-4.02-2.241-2.909-6.827-2.102-7.94 1.397l-.712 2.239c-2.545-20.267-16.811-19.256-16.811-19.256-7.303.913-14.19 10.184-13.585 23.12.709 15.166 7.724 23.664 7.724 23.664z" fill="#ffc1b0"/></g><g><path d="m175.674 316.207c-28.105-19.126-79.323-18.343-108.239 5.153-5.635 4.579-9.765 10.747-12.048 17.64l-6.729-41.949-27.508 8.998 2.458 50.99c.607 12.594 12.574 21.491 24.809 18.445l16.553-4.121v84.637h115.586v-81.258l13.19 26.005 25.906-19.897c-11.688-23.517-22.021-49.701-43.978-64.643z" fill="#6184f2"/></g><g><path d="m33.608 357.038-2.659-54.195-9.799 3.205 2.458 50.99c.607 12.594 12.574 21.491 24.809 18.445l.158-.04c-8.136-2.115-14.528-9.289-14.967-18.405z" fill="#6262ef"/></g><g><path d="m64.97 373.851v82.149h10v-84.638z" fill="#6262ef"/></g><g><g><path d="m180.555 456h-80.214l80.214-67.746z" fill="#85a6f9"/></g></g><g><path d="m104.555 300.087v-47.087h36.818v45.88c0 2.903 2.084 5.357 4.935 5.903 3.438.659 6.797 1.484 10.038 2.483-6.768 11.364-19.158 18.99-33.345 18.99-13.581 0-25.51-6.992-32.443-17.557 3.043-1.078 6.169-1.995 9.348-2.767 2.715-.658 4.649-3.052 4.649-5.845z" fill="#ffcdbd"/></g><g><path d="m168.915 202.864c0-7.732-6.268-14-14-14h-45.455c-15.445 0-27.966 12.521-27.966 27.966 0 2.067.231 4.08.657 6.02-2.738 6.485-4.276 13.726-4.276 21.369 0 27.735 20.156 50.219 45.021 50.219 24.864 0 45.021-22.484 45.021-50.219 0-7.558-1.506-14.72-4.187-21.149 3.302-5.993 5.185-12.878 5.185-20.206z" fill="#4c4c4c"/></g><g><path d="m87.874 244.219c0-7.644 1.538-14.884 4.276-21.369-.426-1.94-.657-3.952-.657-6.02 0-15.445 12.521-27.966 27.966-27.966h-10c-15.445 0-27.966 12.521-27.966 27.966 0 2.067.231 4.08.657 6.02-2.738 6.485-4.276 13.726-4.276 21.369 0 27.735 20.156 50.219 45.021 50.219 1.691 0 3.358-.113 5-.316-22.51-2.775-40.021-24.053-40.021-49.903z" fill="#3f3f3f"/></g></g><g><g><path d="m198 0h-134c-3.314 0-6 2.686-6 6v62.443c0 3.314 2.686 6 6 6h97.133l21.237 17.083.078-17.083h15.552c3.314 0 6-2.686 6-6v-62.443c0-3.314-2.686-6-6-6z" fill="#16dba2"/></g><g><path d="m74 0h-10c-3.314 0-6 2.686-6 6v62.443c0 3.314 2.686 6 6 6h10c-3.314 0-6-2.686-6-6v-62.443c0-3.314 2.686-6 6-6z" fill="#14c679"/></g><g><g><path d="m178.7 24.093h-95.4c-1.104 0-2-.896-2-2s.896-2 2-2h95.4c1.104 0 2 .896 2 2s-.896 2-2 2z" fill="#fff"/></g><g><path d="m146.961 52.31h-63.661c-1.104 0-2-.896-2-2s.896-2 2-2h63.661c1.104 0 2 .896 2 2s-.896 2-2 2z" fill="#fff"/></g></g></g><g><g><path d="m120 100h-114c-3.314 0-6 2.686-6 6v54.443c0 3.314 2.686 6 6 6h77.133l21.237 17.083.078-17.083h15.552c3.314 0 6-2.686 6-6v-54.443c0-3.314-2.686-6-6-6z" fill="#ffd54f"/></g><g><path d="m16 100h-10c-3.314 0-6 2.686-6 6v54.443c0 3.314 2.686 6 6 6h10c-3.314 0-6-2.686-6-6v-54.443c0-3.314 2.686-6 6-6z" fill="#ff9852"/></g><g><path d="m95.41 122.093h-75.4c-1.104 0-2-.896-2-2s.896-2 2-2h75.4c1.104 0 2 .896 2 2s-.895 2-2 2z" fill="#fff"/></g><g><path d="m63.671 146.31h-43.661c-1.104 0-2-.896-2-2s.896-2 2-2h43.661c1.104 0 2 .896 2 2s-.896 2-2 2z" fill="#fff"/></g></g><g><g><g><path d="m402.698 426.401 23.509 22.997-8.162-31.858c-6.723-26.24-20.296-50.285-39.587-69.3-7.23-7.126-13.667-11.962-16.587-10.276s-1.951 9.678.605 19.503c6.821 26.215 20.858 49.992 40.222 68.934z" fill="#bcbcbc"/></g><g><path d="m418.899 438.738c-.691 0-1.364-.358-1.734-1l-44.118-76.414c-.552-.957-.225-2.18.732-2.732s2.18-.225 2.732.732l44.118 76.414c.552.957.225 2.18-.732 2.732-.314.182-.658.268-.998.268z" fill="#aaa"/></g></g><g><g><path d="m425.379 426.401-23.509 22.997 8.162-31.858c6.722-26.24 20.296-50.285 39.587-69.3 7.23-7.126 13.667-11.962 16.588-10.276s1.951 9.678-.605 19.503c-6.822 26.215-20.859 49.992-40.223 68.934z" fill="#bcbcbc"/></g><g><path d="m409.178 438.738c-.339 0-.683-.086-.998-.268-.957-.553-1.284-1.775-.732-2.732l44.118-76.414c.552-.957 1.775-1.284 2.732-.732.957.553 1.284 1.775.732 2.732l-44.118 76.414c-.37.642-1.043 1-1.734 1z" fill="#aaa"/></g></g><g><g><path d="m405.178 416.347 8.861 31.671 8.861-31.671c7.298-26.086 7.566-53.696.367-79.81-2.698-9.787-5.854-17.193-9.227-17.193s-6.529 7.406-9.227 17.193c-7.202 26.114-6.934 53.724.365 79.81z" fill="#d6d6d6"/></g><g><path d="m414.039 435.399c-1.104 0-2-.896-2-2v-88.235c0-1.104.896-2 2-2s2 .896 2 2v88.235c0 1.105-.896 2-2 2z" fill="#bcbcbc"/></g></g><g><g><path d="m401.235 468h25.606c4.766 0 8.87-3.364 9.806-8.037l8.391-41.926h-62l8.391 41.926c.936 4.673 5.04 8.037 9.806 8.037z" fill="#ff669d"/></g><g><path d="m401.43 459.963-8.391-41.926h-10l8.391 41.926c.935 4.674 5.039 8.037 9.805 8.037h10c-4.766 0-8.87-3.364-9.805-8.037z" fill="#ef508d"/></g><g><path d="m450.039 420.036h-72c-1.104 0-2-.896-2-2s.896-2 2-2h72c1.104 0 2 .896 2 2s-.896 2-2 2z" fill="#f47db3"/></g></g></g></g></g></svg>